<?xml version="1.0" encoding="utf-8"?>
<!-- Generator: Adobe Illustrator 24.0.1, SVG Export Plug-In . SVG Version: 6.00 Build 0)  -->
<svg version="1.1" id="Layer_1" xmlns="http://www.w3.org/2000/svg" xmlns:xlink="http://www.w3.org/1999/xlink" x="0px" y="0px"
	 viewBox="0 0 512 512" style="enable-background:new 0 0 512 512;" xml:space="preserve">
<style type="text/css">
	.st0{fill:#33B2B6;}
</style>
<g id="teamwork">
	<g>
		<path class="st0" d="M192,136c-2.7,0-5.4,0.3-8,0.8V96c0-4.4-3.6-8-8-8H48c-22.1,0-40,17.9-40,40v256c0,22.1,17.9,40,40,40h128
			c4.4,0,8-3.6,8-8v-52.4c0-2.9-1.5-5.5-4-6.9c-2.5-1.4-5.5-1.4-8,0c-3.8,2.2-7.9,3.4-12,3.4c-13.2,0-24-10.8-24-24s10.8-24,24-24
			c4.1,0,8.1,1.1,12,3.4c2.5,1.4,5.5,1.4,8,0s4-4.1,4-6.9v-93.3c2.6,0.6,5.3,0.8,8,0.8c22.1,0,40-17.9,40-40S214.1,136,192,136
			L192,136z M160,296c-22.1,0-40,17.9-40,40s17.9,40,40,40c2.7,0,5.4-0.3,8-0.8V408H48c-13.2,0-24-10.8-24-24V264h44.4h0.1
			c4.6,0.3,8.1-3.5,8.1-8c0-1.9-0.7-3.7-1.8-5.1c-1.8-3.5-2.8-7.2-2.8-10.9c0-13.2,10.8-24,24-24s24,10.8,24,24
			c0,4.1-1.1,8.2-3.4,12c-1.4,2.5-1.4,5.5,0,8c1.4,2.5,4.1,4,6.9,4H168v32.8C165.4,296.3,162.7,296,160,296L160,296z M192,200
			c-4.1,0-8.2-1.1-12-3.4c-2.5-1.4-5.5-1.4-8,0c-2.5,1.4-4,4.1-4,6.9V248h-32.8c0.6-2.6,0.8-5.3,0.8-8c0-22.1-17.9-40-40-40
			s-40,17.9-40,40c0,2.7,0.3,5.4,0.8,8H24V128c0-13.2,10.8-24,24-24h120v44.4c0,2.9,1.5,5.5,4,6.9c2.5,1.4,5.5,1.4,8,0
			c3.8-2.2,7.8-3.4,12-3.4c13.2,0,24,10.8,24,24S205.2,200,192,200z"/>
		<path class="st0" d="M482.7,347.2l-49.3-17.9c-2.7-1-5.7-0.4-7.9,1.4c-2.2,1.8-3.2,4.7-2.7,7.5c0.8,4.4,0.5,8.5-0.9,12.4
			c-3.4,9.4-12.5,15.8-22.6,15.8c-2.8,0-5.5-0.5-8.2-1.5c-12.4-4.5-18.9-18.3-14.3-30.8c1.4-3.9,3.8-7.3,7.2-10.1
			c2.2-1.8,3.2-4.7,2.8-7.5c-0.5-2.8-2.5-5.2-5.1-6.1l-49.3-17.9c-2-0.7-4.2-0.6-6.1,0.3c-1.9,0.9-3.4,2.5-4.1,4.5l-14,38.4
			c-2.3-1.4-4.7-2.6-7.2-3.5c-4.4-1.6-9-2.4-13.7-2.4c-16.8,0-31.9,10.6-37.6,26.3c-7.5,20.7,3.2,43.7,23.9,51.3
			c2.5,0.9,5.1,1.6,7.8,1.9l-14,38.4c-0.7,2-0.6,4.2,0.3,6.1c0.9,1.9,2.5,3.4,4.5,4.1l120.3,43.8c4.4,1.6,9,2.4,13.6,2.4
			c16.8,0,31.9-10.6,37.7-26.3l43.8-120.3C489,353.3,486.9,348.7,482.7,347.2L482.7,347.2z M428.7,472.2
			c-3.4,9.4-12.5,15.8-22.6,15.8c-2.8,0-5.5-0.5-8.1-1.4l-112.8-41l15.2-41.8c1-2.7,0.4-5.7-1.4-7.9c-1.8-2.2-4.7-3.2-7.5-2.7
			c-1.5,0.3-3,0.4-4.5,0.4c-2.7,0-5.4-0.5-7.8-1.4c-12.4-4.5-18.9-18.3-14.3-30.8c4.4-12.1,18.5-18.8,30.8-14.3
			c3.9,1.4,7.3,3.8,10.1,7.2c1.8,2.2,4.7,3.2,7.5,2.8c2.8-0.5,5.2-2.5,6.1-5.2l15.2-41.8l30.9,11.2c-1.4,2.3-2.6,4.7-3.5,7.2
			c-7.5,20.7,3.2,43.7,23.9,51.3c4.4,1.6,9,2.4,13.7,2.4c16.8,0,31.9-10.6,37.6-26.3c0.9-2.5,1.6-5.2,2-7.8l30.9,11.2L428.7,472.2z"
			/>
		<path class="st0" d="M501.7,110.2l-90.5-90.5C403.6,12.2,393.6,8,382.9,8s-20.8,4.2-28.3,11.7l-90.5,90.5
			c-1.5,1.5-2.3,3.5-2.3,5.7s0.8,4.2,2.3,5.7l37.1,37.1c2,2,5,2.8,7.7,2.1c2.8-0.8,4.9-2.9,5.7-5.7c1.1-4.3,3.2-7.9,6.1-10.8
			c9.1-9.1,24.9-9.1,33.9,0c9.4,9.4,9.4,24.6,0,33.9c-2.9,2.9-6.6,5-10.8,6.1c-2.8,0.7-4.9,2.9-5.7,5.6c-0.7,2.8,0,5.7,2.1,7.7
			l37.1,37.1c1.6,1.6,3.6,2.3,5.7,2.3s4.1-0.8,5.7-2.3l28.9-28.9c1.5,2.3,3.2,4.4,5.1,6.3c7.6,7.6,17.6,11.7,28.3,11.7
			c10.7,0,20.7-4.2,28.3-11.7s11.7-17.6,11.7-28.3s-4.2-20.7-11.7-28.3c-1.9-1.9-4-3.6-6.3-5.1l28.9-28.9
			C504.8,118.4,504.8,113.3,501.7,110.2L501.7,110.2z M453.3,147.3c-2,2-2.8,5-2.1,7.7s2.9,4.9,5.7,5.6c4.3,1.1,7.9,3.2,10.8,6.1
			c4.5,4.5,7,10.6,7,17s-2.5,12.4-7,17c-9.1,9.1-24.9,9.1-33.9,0c-2.9-2.9-5-6.6-6.1-10.8c-0.7-2.8-2.9-4.9-5.6-5.7
			c-2.8-0.7-5.7,0-7.7,2.1l-31.4,31.4l-23.2-23.2c2.2-1.5,4.3-3.2,6.2-5.1c15.6-15.6,15.6-41,0-56.6c-7.6-7.6-17.6-11.7-28.3-11.7
			s-20.7,4.2-28.3,11.7c-1.9,1.9-3.6,4-5.1,6.2L281,115.8L365.9,31c9-9,24.9-9,33.9,0l84.8,84.8L453.3,147.3z"/>
	</g>
</g>
</svg>
