<?xml version="1.0" encoding="utf-8"?>
<!-- Generator: Adobe Illustrator 25.0.1, SVG Export Plug-In . SVG Version: 6.00 Build 0)  -->
<svg version="1.1" id="Layer_1" xmlns="http://www.w3.org/2000/svg" xmlns:xlink="http://www.w3.org/1999/xlink" x="0px" y="0px"
	 viewBox="0 0 512 512" style="enable-background:new 0 0 512 512;" xml:space="preserve">
<style type="text/css">
	.st0{fill-rule:evenodd;clip-rule:evenodd;fill:#33B2B6;}
</style>
<path class="st0" d="M451.2,226.8L451.2,226.8L451.2,226.8l11-11c4.7-4.7,4.7-12.3,0-17.1L295.6,32.1c-5.7-5.7-15-5.7-20.7,0
	L64.6,242.4c6.9,1,13.3,4.1,18.2,9.1l39.2,39.2c1.5-1.9,3-3.7,4.3-5.5c3.5-4.7,6.5-9.4,9.6-14.4c1.8-2.9,3.8-6.4,5.9-9.9
	c4.6-7.8,9.2-15.7,13.8-22.3c13.2-18.8,39.2-41.9,60.8-61.1c6.6-5.9,12.8-11.4,18.5-16.6c6.8-6.3,14.7-6.5,21.1-3.5
	c4.5,2.2,8.1,5.9,10.2,10.5l4.1-3.8c6.8-6.3,14.7-6.5,21.1-3.5c4.6,2.3,8.2,6.1,10.3,10.7l5.9-5.4c6.9-6.3,14.8-6.5,21.2-3.4
	c4.9,2.4,8.7,6.6,10.6,11.8c0,0.1,0.1,0.2,0.1,0.4c2.4,6.7,0.7,14.2-4.4,19.2c2,1,3.8,2.3,5.4,3.9l1.9,1.9v0.5
	c5.5,8.1,4.2,19-3.1,25.6l-16.8,15.2c0.1,0.1,0.2,0.1,0.3,0.2c2.9,1.5,5.5,3.5,7.6,6c2.1,2.4,3.7,5.2,4.8,8.1
	c3.2,8.3,2.2,18.1-5.3,24.8c-6.5,5.8-13,12-19.3,18.2c-22.7,22-44.3,43-75.8,47.5c-9.1,1.2-18.2,2.9-27.1,5
	c-6.5,1.6-12.8,4-18.7,7.1l65.6,65.6L451.2,226.8z M464.8,231.4l17.3,17.3c2.5,2.5,2.5,6.6,0,9.1L244.7,495.1
	c-2.5,2.5-6.6,2.5-9.1,0c0,0,0,0,0,0l-88.6-88.6c-3.2,6.2-6.5,12.7-9.3,18.4c-2.9,5.8-5.4,10.8-7,13.7c-1.5,3.2-5.3,4.6-8.5,3.1
	c-0.7-0.3-1.3-0.7-1.8-1.3l-78.3-78.3c-2.5-2.5-2.5-6.6,0-9.1c0.6-0.6,1.2-1,1.9-1.3c9.4-4.9,18.8-9.9,30.1-18l-36.9-36.9
	c-6-6-9.4-14.2-9.4-22.7h0c0-8.5,3.4-16.7,9.4-22.7L265.8,23c10.7-10.7,28.1-10.7,38.8,0l166.7,166.7c9.7,9.7,9.7,25.5,0,35.2
	L464.8,231.4z M139.7,393.2c-4.5,8.3-9.4,18-13.3,26c-1.1,2.1-2.1,4.2-3,6l-66-66c9.1-4.8,17.8-10.3,26.1-16.3c1.3-1,2.6-1.9,4-3
	c0.3-0.2,0.7-0.5,1-0.7c5.1-3.9,10.5-8.3,15.6-12.8c6.9-5.9,13.5-12.1,18.9-17.7c1.3-1.4,2.6-2.7,3.8-4l0.1-0.1
	c0.2-0.2,0.4-0.4,0.5-0.6c3.5-3.9,6.5-7.6,9.2-11.2c3.7-5,6.9-10,10.2-15.4c2.1-3.5,4.1-6.8,6-10.1c4.4-7.6,9-15.3,13.3-21.4
	c12.3-17.5,37.7-40.1,58.8-58.8c7-6.2,13.6-12.1,18.7-16.8c1.8-1.9,4.6-2.4,6.9-1.3c1,0.5,1.8,1.1,2.5,1.9c0.7,0.8,1.3,1.7,1.6,2.7
	c0.9,2.5,0.1,5.3-2,6.9c-0.1,0.1-0.2,0.2-0.3,0.2l-38.8,36c-2.6,2.4-2.7,6.5-0.3,9c2.4,2.6,6.5,2.7,9,0.3l38.8-36l0.1-0.1
	c0.2-0.2,0.5-0.4,0.7-0.6l17.1-15.9c1.8-1.9,4.6-2.4,6.9-1.3c1,0.5,1.8,1.1,2.5,1.9c0.7,0.8,1.3,1.7,1.6,2.7c0.9,2.5,0.1,5.3-2,6.9
	c-0.4,0.3-0.7,0.7-1,1.1L241,226.9c-2.6,2.4-2.8,6.4-0.5,9c2.4,2.6,6.4,2.8,9,0.5c0,0,0.1,0,0.1-0.1l66.6-61c1.8-1.9,4.7-2.4,7-1.3
	c1.9,1,3.4,2.6,4.1,4.6l0.1,0.2c0.7,2.4-0.1,5.1-2.1,6.6l-58.8,52.2c-2.6,2.3-2.9,6.4-0.6,9c2.3,2.6,6.4,2.9,9,0.6l45.5-40.4
	c0.3-0.2,0.6-0.4,0.9-0.6c3-2.5,7.3-2.3,10,0.5c2.3,2.8,2.1,7-0.6,9.4l-32.3,29.2l-35.3,31.9c-2.6,2.4-2.8,6.4-0.4,9.1
	c2.4,2.6,6.3,2.8,9,0.5l35.3-31.9c3.8-3.4,7.4-3.7,10.2-2.3c1.3,0.7,2.5,1.6,3.5,2.8c1.1,1.3,2,2.8,2.6,4.3c1.4,3.8,1.2,8-1.8,10.7
	c-7,6.1-13.4,12.4-19.8,18.6c-21.1,20.5-41.3,40.1-68.6,44c-9.6,1.2-19.1,3-28.5,5.3c-10.1,2.6-19.8,6.4-27.7,12
	c-0.4,0.3-0.9,0.6-1.3,1c-0.3,0.2-0.6,0.4-0.8,0.6c-4.4,3.4-8.5,7.1-12.4,11c-5,5.1-9.7,10.5-14,16.2c-3,4.3-5.8,8.8-8.2,13.4
	C140,392.7,139.8,393,139.7,393.2L139.7,393.2z M153.5,394.8c1.5-2.8,3.2-5.4,5.1-8c4-5.3,8.3-10.3,12.9-14.9c2.3-2.4,4.7-4.6,7-6.6
	l71.7,71.7c2.5,2.5,6.6,2.5,9.1,0c0,0,0,0,0,0l196.5-196.5l12.8,12.8L240.2,481.5L153.5,394.8L153.5,394.8z M113.4,300.2
	c-5.1,5.3-11.3,11-17.7,16.6c-3.7,3.2-7.4,6.3-11.1,9.2l-38.2-38.2c-3.6-3.6-5.6-8.5-5.6-13.6h0c0-10.7,8.7-19.3,19.3-19.3
	c5.1,0,10,2,13.6,5.6L113.4,300.2z"/>
</svg>
