<?xml version="1.0" encoding="utf-8"?>
<!-- Generator: Adobe Illustrator 24.0.1, SVG Export Plug-In . SVG Version: 6.00 Build 0)  -->
<svg version="1.1" id="Layer_1" xmlns="http://www.w3.org/2000/svg" xmlns:xlink="http://www.w3.org/1999/xlink" x="0px" y="0px"
	 viewBox="0 0 3500 1478.1" style="enable-background:new 0 0 3500 1478.1;" xml:space="preserve">
<style type="text/css">
	.st0{display:none;fill:none;stroke:#FFFFFF;stroke-width:9;stroke-linecap:round;stroke-linejoin:round;stroke-miterlimit:10;}
	.st1{fill:none;stroke:#90EB9D;stroke-width:9;stroke-linecap:round;stroke-linejoin:round;stroke-miterlimit:10;}
	.st2{fill:#90EB9D;}
</style>
<path class="st0" d="M2636.6-90.2c0,0,71.9-15.6,194.8,3.2"/>
<g>
	<g>
		<path class="st1" d="M2709.1,197.4c-63.6,17.3-84.1-66.7-84.1-66.7s98.1-13.2,89.7,62.5"/>
		<path class="st1" d="M2655.9,150.7c0,0,30.5,37.6,51.3,39.1"/>
		<line class="st1" x1="2679.9" y1="175.1" x2="2679.3" y2="159.5"/>
	</g>
	<path class="st1" d="M2773.7,240.3c-11.4-14-27.7-29-49.8-38.8"/>
	<path class="st1" d="M2762.3,213.6c0,0,31.6-40.1-8.4-82c0,0-33.6,30-1.4,72.7"/>
	<path class="st1" d="M2759.1,202.9c0,0,0.1-26.5-3-37.6"/>
</g>
<g>
	<path class="st2" d="M81.6,361.6c-0.5,3.1-3.4,5.3-6.4,4.8c-3.2-0.5-5.3-3.4-4.8-6.5l8.8-59.7c0,0,0,0,0-0.1c0.2-1.8,1.2-3.5,3-4.4
		c2.8-1.4,6.2-0.3,7.6,2.4l26.4,50.8l6.2-42.3c0.4-3,3.3-5.2,6.4-4.7c3.1,0.5,5.3,3.4,4.8,6.4l-8.8,59.7c-0.5,3.1-3.4,5.3-6.5,4.8
		c-1.6-0.2-3.1-1.3-3.9-2.7c-0.2-0.2-0.4-0.5-0.4-0.7L87.9,319L81.6,361.6z"/>
	<path class="st2" d="M209.6,321.9c5.4,7.7,8.1,17.4,6.6,27.5c-1.5,10.2-6.9,18.7-14.2,24.5c-7,5.8-16.7,8.8-26.2,7.4
		c-9.9-1.5-18.3-7.1-23.6-14.7c-5.4-7.6-7.8-17.3-6.3-27.5s6.6-18.7,14-24.5c7.3-5.9,16.9-8.7,26.8-7.3
		C196.1,308.6,204.5,314.2,209.6,321.9z M204.4,347.7c1-7-0.8-13.9-4.3-19c-3.6-5.3-9-8.8-15.2-9.7c-6.6-1-12.7,0.9-17.7,4.8
		s-8.6,10-9.6,17s0.7,13.9,4.4,18.9c3.6,5.3,9,8.9,15.6,9.9c6.2,0.9,12.3-1,17.3-5C199.7,360.7,203.4,354.7,204.4,347.7z"/>
	<path class="st2" d="M289.9,369.5l-12.6-1.9l-3.3,22.3c-0.5,3.1-3.4,5.3-6.6,4.8c-3.1-0.5-5.3-3.4-4.8-6.5l8.9-60.6
		c0.5-3.2,3.4-5.3,6.5-4.8h0.1l18.3,2.7c12.2,1.8,20.6,13.1,18.8,25.4C313.5,362.9,302.2,371.3,289.9,369.5z M279,356.2l12.6,1.9
		c6,0.9,11.3-3.2,12.2-8.9c0.8-6-3.2-11.4-9.1-12.3l-12.6-1.9L279,356.2z"/>
	<path class="st2" d="M322.5,397.1l8.9-60.6c0.5-3.1,3.3-5.3,6.5-4.8s5.4,3.4,4.9,6.5l-8.1,54.9l27.9,4.1c3,0.4,5.3,3.4,4.8,6.6
		c-0.5,3.1-3.5,5.3-6.5,4.8l-33.3-4.9c-0.2,0-0.2,0-0.2,0c-0.1,0-0.1,0-0.1,0C324.1,403.1,322.1,400.2,322.5,397.1z"/>
	<path class="st2" d="M418.7,399.7l-25-3.7l-7,12.6c-1.3,2.1-3.6,3.1-5.9,2.8c-0.7-0.1-1.3-0.3-1.9-0.6c-2.8-1.6-3.8-5.1-2.3-7.9
		l31.6-57.2c1.3-2.1,3.7-3.2,6-2.8c2.4,0.2,4.3,2,4.9,4.4l13.8,63.9c0.6,3.1-1.3,6.2-4.5,6.9c-0.5,0.1-1.3,0.1-2,0
		c-2.3-0.3-4.2-2-4.7-4.4L418.7,399.7z M416.2,387.8l-5.1-23.3l-11.6,20.9L416.2,387.8z"/>
	<path class="st2" d="M444.6,402.6c2.2-2,5.6-1.8,7.6,0.4c4,4.4,11.2,9.8,18.5,10.8c5.1,0.8,10-0.1,13.4-1.9s5.1-4.2,5.5-6.8
		c0.2-1.3,0-2.3-0.4-3.4c-0.5-1.1-1.2-2.3-2.6-3.5c-2.7-2.4-7.5-4.9-13.4-6.9H473c-4.7-1.6-9-3.5-12.7-6c-3.6-2.4-6.6-5.5-8.4-9.4
		c-1.2-2.7-1.6-5.7-1.1-8.8c0.9-6.2,5.2-11,10.4-13.8c5.3-2.8,11.9-3.8,18.6-2.8c9.9,1.5,16.5,7.4,21.2,11.5c2.1,2,2.4,5.4,0.4,7.5
		c-1.9,2.2-5.3,2.5-7.5,0.5c-4.7-4.3-9.3-8.1-15.6-9c-4.6-0.7-8.9,0.2-12,1.8c-3.1,1.6-4.5,3.7-4.9,5.9c-0.2,1.2-0.1,2.1,0.3,3
		s1.2,2,2.4,3.1c2.4,2.2,6.8,4.6,12.2,6.4h0.2c5.1,1.8,9.7,3.8,13.6,6.4c3.9,2.7,7.2,5.9,9,10c1.2,2.7,1.6,5.9,1.2,9.1
		c-1,6.6-5.5,11.7-11.2,14.6c-5.6,3-12.6,4.1-19.9,3.1c-11.1-1.7-19.6-8.7-24.8-14.2C442.3,408,442.5,404.6,444.6,402.6z"/>
	<path class="st2" d="M564.1,376.6l-16.3-2.4l-8.1,54.9c-0.5,3.2-3.3,5.3-6.5,4.8c-3.1-0.5-5.3-3.3-4.8-6.5l8.1-54.9l-16.2-2.4
		c-3.2-0.5-5.3-3.5-4.8-6.6c0.5-3.2,3.3-5.3,6.5-4.8l43.9,6.5c3.1,0.5,5.3,3.3,4.8,6.5C570.2,374.7,567.2,377,564.1,376.6z"/>
	<path class="st2" d="M588.3,374.2c0.5-3.2,3.3-5.3,6.5-4.8c3.1,0.5,5.4,3.3,4.9,6.5l-8.9,60.6c-0.5,3.2-3.5,5.3-6.6,4.8
		c-3.2-0.5-5.3-3.3-4.8-6.5L588.3,374.2z"/>
	<path class="st2" d="M611.4,407.6c3.1-20.3,22.6-34.4,43.2-31.5c9,1.3,16.8,5.5,22.6,11.5c2.2,2.4,2,6.1-0.2,8.4
		c-2.4,2.3-6.3,2.1-8.4-0.1c-4-4.4-9.3-7.2-15.7-8.1c-7.1-1-14.1,0.9-19.6,4.7c-5.3,4-9.1,9.8-10.1,16.8s0.9,13.8,4.9,19
		c4.2,5.2,10.3,9.1,17.4,10.1c6.4,0.9,12.2-0.2,17.4-3.2c2.6-1.4,6.4-0.4,8.1,2.3c1.5,2.8,0.5,6.5-2.2,8.1
		c-7.2,4.1-15.9,5.9-24.9,4.5C623.1,447.1,608.5,428.1,611.4,407.6z"/>
</g>
<path class="st1" d="M25.6,426.5c0,0,222.6-1.8,623.2,62.6"/>
<g>
	<path class="st1" d="M3330.9,341.1c2.5-64.7,87.3-59.1,87.3-59.1s-16.5,95.8-84.9,65.6"/>
	<path class="st1" d="M3390.3,305.1c0,0-44.2,17.5-51.7,36.6"/>
	<line class="st1" x1="3360.4" y1="320.3" x2="3375.2" y2="324.4"/>
</g>
<g>
	<path class="st2" d="M2828.8,213.3l-36.5,34.3l25.5,4.7c2.5,0.5,4.1,2.8,3.6,5.3s-2.8,4-5.2,3.5l-34.2-6.3c-0.2,0-0.5-0.1-0.8-0.2
		c-0.1,0-0.2,0-0.2-0.1c-0.2,0-0.3-0.1-0.5-0.2c-0.1-0.1-0.1-0.1-0.2-0.3c-0.1,0-0.2-0.1-0.4-0.2c-0.1-0.1-0.2-0.1-0.3-0.2
		c0,0,0,0,0-0.1c-0.1,0-0.1-0.1-0.2-0.2c-0.1-0.1-0.2-0.3-0.2-0.5c-0.1-0.1-0.2-0.2-0.3-0.3s-0.1-0.3-0.2-0.4c0-0.3-0.1-0.3-0.1-0.4
		c-0.1-0.2-0.2-0.3-0.2-0.4c0-0.2,0-0.3-0.1-0.5c0-0.1-0.1-0.2,0-0.3c0-0.2,0-0.4,0-0.6c0-0.1,0-0.2,0-0.2s0,0,0-0.1
		c0-0.2,0.1-0.4,0.2-0.5c0-0.1,0-0.2,0.1-0.4c0.1-0.1,0.1-0.2,0.2-0.4c0-0.1,0.1-0.2,0.2-0.4c0.2,0,0.3-0.2,0.3-0.3
		c0.1-0.1,0.2-0.2,0.3-0.4c0,0,0,0,0.1,0l36.5-34.4l-25.6-4.7c-2.5-0.5-4-2.9-3.5-5.2c0.5-2.5,2.7-4,5.2-3.6l34.2,6.3h0.1
		c0.2,0,0.4,0.1,0.6,0.1c0.1,0,0.2,0.1,0.3,0.1c0.2,0,0.3,0.1,0.5,0.2c0.1,0.1,0.2,0.1,0.3,0.2c0.2,0,0.3,0.2,0.4,0.3
		c0.1,0.1,0.2,0.2,0.4,0.3c0,0,0,0,0.1,0c0.1,0.1,0.1,0.2,0.2,0.3c0.1,0.1,0.2,0.3,0.3,0.4c0.1,0.1,0.1,0.3,0.2,0.4
		c0.1,0.1,0.2,0.2,0.3,0.4c0,0.2,0.1,0.3,0.2,0.4c0,0.1,0,0.3,0.1,0.3c0,0.2,0,0.4,0,0.5c0.1,0.2,0.1,0.3,0.1,0.4c0,0.3,0,0.3,0,0.5
		c0,0.1,0,0.2-0.1,0.3c0,0.2-0.1,0.4-0.1,0.6c-0.1,0.1-0.1,0.2-0.1,0.3c0,0.2-0.2,0.3-0.2,0.4c-0.1,0.1-0.1,0.2-0.2,0.4
		c-0.1,0.1-0.1,0.1-0.2,0.2c-0.1,0.1-0.2,0.3-0.3,0.4C2828.8,213.3,2828.8,213.3,2828.8,213.3z"/>
	<path class="st2" d="M2833.9,259.9l8.7-46.8c0.5-2.5,2.7-4,5.2-3.6h0.1c0,0,0,0,0.2,0l25.7,4.8c2.3,0.4,4,2.7,3.6,5.2
		c-0.5,2.5-2.9,4.1-5.2,3.6l-21.5-4l-2.7,14.5l18.5,3.4c2.4,0.4,4,2.9,3.6,5.2c-0.5,2.5-2.8,4.1-5.2,3.6l-18.5-3.4l-2.7,14.6l21.5,4
		c2.3,0.4,4,2.8,3.5,5.2c-0.4,2.4-2.9,4-5.2,3.6l-25.7-4.8c-0.2,0-0.1-0.1-0.1-0.1l-0.1,0.1C2835,264.6,2833.5,262.3,2833.9,259.9z"
		/>
	<path class="st2" d="M2919.6,273.5c0.4,2.4-1.4,4.7-3.8,5c-0.3,0-1,0.1-1.8-0.1c0,0,0,0-0.1,0c-0.8-0.1-2-0.5-2.9-1.4
		c-0.9-0.8-1.6-2-2-3.2c-0.7-2.5-0.7-5.5,0.1-9.8c0.2-1.5,0.1-2.6-0.3-3.6c-0.3-1-1.1-1.9-2-2.7c-1.5-1.4-3.4-2.4-4.1-2.7l-9.4-1.7
		l-3.2,17.2c-0.4,2.4-2.8,4-5.2,3.5s-4-2.8-3.6-5.2l8.7-46.8c0.5-2.5,2.7-4,5.2-3.6c0,0,0,0,0.1,0l14.1,2.6
		c9.4,1.7,15.6,10.8,13.8,20.2c-1,5.2-4.2,9.4-8.6,11.9c0.9,1,1.7,2.1,2.2,3.4c1.2,2.6,1.6,5.7,1,9c-0.5,2.4-0.6,3.9-0.5,4.7
		C2918.5,270.9,2919.4,272,2919.6,273.5z M2914.4,239.5c0.9-4.6-2.1-8.9-6.6-9.8l-9.7-1.8l-3,16.3l9.7,1.8
		C2909.3,246.9,2913.6,244,2914.4,239.5z"/>
	<path class="st2" d="M2982.6,241.7c3.9,6.1,5.7,13.7,4.3,21.5c-1.5,7.8-5.9,14.3-11.7,18.6c-5.6,4.3-13.2,6.3-20.5,5
		c-7.6-1.4-14-6-17.8-12.1c-4-6.1-5.6-13.7-4.1-21.5c1.5-7.8,5.7-14.3,11.6-18.6c5.8-4.3,13.4-6.3,21-4.9
		C2972.6,231,2978.9,235.6,2982.6,241.7z M2977.9,261.5c1-5.4-0.2-10.8-2.8-14.9c-2.7-4.2-6.7-7.1-11.5-7.9
		c-5.1-0.9-9.9,0.3-13.9,3.2s-7,7.5-8,12.9c-1,5.4,0.1,10.8,2.8,14.8c2.7,4.2,6.7,7.1,11.8,8.1c4.8,0.9,9.6-0.4,13.6-3.4
		C2973.8,271.5,2976.9,266.9,2977.9,261.5z"/>
	<path class="st2" d="M3103.2,263.7l-28,42.6c-0.1,0.2-0.3,0.5-0.5,0.6l-0.1,0.1c-0.1,0.1-0.3,0.3-0.5,0.4c0,0.2-0.1,0.1-0.1,0.2
		c-0.2,0-0.4,0.2-0.6,0.3h-0.1c-0.3,0.1-0.5,0.3-0.8,0.3h-0.1c0,0-0.1,0-0.1,0.1c-0.2,0-0.4,0-0.7,0c-0.1,0-0.2,0-0.2,0
		c-0.3,0-0.5,0-0.8-0.1c-0.2,0-0.5-0.1-0.7-0.2c-0.2,0-0.2,0-0.2,0c-0.2-0.1-0.4-0.2-0.5-0.3c-0.1-0.1-0.1-0.1-0.1-0.1
		c-0.3-0.1-0.5-0.4-0.6-0.6c-0.1,0-0.1,0-0.1,0c-0.2-0.2-0.3-0.4-0.5-0.5c-0.1-0.1-0.1-0.1-0.1-0.3c0-0.2-0.2-0.4-0.2-0.5
		c-0.2,0-0.1-0.1-0.1-0.1c-0.1-0.2-0.1-0.5-0.2-0.8l-5.8-26.5l-14.9,22.6c-0.1,0.2-0.3,0.5-0.4,0.7c-0.1,0-0.1,0.1-0.1,0.1
		c-0.2,0.1-0.4,0.3-0.6,0.4c0,0.2-0.1,0.1-0.1,0.2c-0.2,0-0.4,0.2-0.5,0.3c-0.2,0-0.2,0-0.2,0c-0.3,0.1-0.5,0.3-0.7,0.4
		c-0.1,0-0.1,0-0.1,0s-0.1,0-0.1,0.1c-0.3-0.1-0.5,0-0.7,0c-0.1,0-0.2,0-0.2,0c-0.3,0-0.5,0-0.7-0.1c-0.2,0-0.6-0.1-0.8-0.2
		c-0.1,0-0.2,0-0.2,0c-0.2-0.1-0.4-0.2-0.5-0.3c-0.1-0.1-0.1-0.1-0.1-0.1c-0.2-0.1-0.5-0.4-0.6-0.6c-0.1,0-0.1,0-0.1,0
		c-0.2-0.2-0.3-0.4-0.5-0.5c-0.1-0.1-0.1-0.1-0.1-0.3c-0.1-0.2-0.2-0.4-0.3-0.5v-0.1c-0.1-0.2-0.1-0.5-0.3-0.8l-10.9-49.8
		c-0.5-2.3,1-4.7,3.4-5.2c2.3-0.6,4.7,1,5.2,3.3l8.7,39.6l14.7-22.4c1-1.6,2.9-2.3,4.6-1.9c1.7,0.3,3.2,1.6,3.6,3.5l5.7,26.2
		l22.3-33.8c1.4-2,4.1-2.6,6.2-1.2C3104,258.9,3104.5,261.7,3103.2,263.7z"/>
	<path class="st2" d="M3129.6,305.6l-19.3-3.6l-5.8,9.6c-1,1.6-2.9,2.3-4.6,2c-0.6-0.1-1-0.3-1.5-0.5c-2.1-1.3-2.8-4-1.6-6.2
		l26.2-43.4c1-1.6,3-2.4,4.7-2c1.8,0.3,3.3,1.7,3.7,3.6l8.9,49.9c0.4,2.4-1.2,4.8-3.7,5.2c-0.4,0.1-1,0.1-1.5,0
		c-1.7-0.3-3.2-1.7-3.5-3.5L3129.6,305.6z M3127.9,296.3l-3.3-18.2L3115,294L3127.9,296.3z"/>
	<path class="st2" d="M3149.5,308.6c1.7-1.5,4.4-1.2,5.9,0.5c3,3.5,8.4,7.9,14,8.9c4,0.7,7.7,0.2,10.4-1.1c2.7-1.3,4.1-3.1,4.5-5.1
		c0.2-1,0.1-1.8-0.2-2.7c-0.3-0.9-0.9-1.8-1.9-2.8c-2-1.9-5.7-4-10.2-5.7h-0.2c-3.6-1.4-6.9-3-9.7-5c-2.7-2-5-4.5-6.2-7.5
		c-0.8-2.1-1.1-4.5-0.6-6.8c0.9-4.8,4.3-8.4,8.5-10.4s9.3-2.6,14.5-1.7c7.6,1.4,12.5,6.2,16.1,9.5c1.6,1.6,1.7,4.2,0.1,5.8
		c-1.5,1.7-4.2,1.8-5.8,0.1c-3.5-3.4-7-6.5-11.8-7.4c-3.6-0.7-6.9-0.1-9.4,1.1c-2.4,1.2-3.6,2.8-3.9,4.4c-0.2,1-0.1,1.6,0.1,2.3
		c0.3,0.7,0.9,1.6,1.8,2.5c1.8,1.8,5.1,3.7,9.3,5.3h0.2c3.9,1.5,7.4,3.3,10.3,5.4c3,2.2,5.4,4.8,6.7,8c0.8,2.1,1.1,4.6,0.7,7.1
		c-0.9,5.1-4.6,8.9-9.1,11c-4.4,2.1-9.9,2.8-15.5,1.8c-8.5-1.7-15-7.3-18.8-11.7C3147.6,312.7,3147.9,310.1,3149.5,308.6z"/>
	<path class="st2" d="M3243,291.9l-12.6-2.3l-7.8,42.3c-0.5,2.5-2.7,4-5.2,3.6c-2.4-0.4-4-2.7-3.6-5.2l7.8-42.3l-12.5-2.3
		c-2.5-0.5-4-2.9-3.5-5.2c0.5-2.5,2.7-4,5.2-3.6l33.8,6.3c2.4,0.4,4,2.7,3.6,5.2C3247.7,290.6,3245.3,292.3,3243,291.9z"/>
	<path class="st2" d="M3252.6,337.4l8.7-46.8c0.5-2.5,2.7-4,5.2-3.6h0.1c0,0,0,0,0.2,0l25.7,4.8c2.3,0.4,4,2.7,3.6,5.2
		c-0.5,2.5-2.9,4.1-5.2,3.6l-21.5-4l-2.7,14.5l18.5,3.4c2.4,0.4,4,2.9,3.6,5.2c-0.5,2.5-2.8,4.1-5.2,3.6l-18.5-3.4l-2.7,14.6l21.5,4
		c2.3,0.4,4,2.8,3.5,5.2c-0.4,2.4-2.9,4-5.2,3.6l-25.7-4.8c-0.2,0-0.1-0.1-0.1-0.1l-0.1,0.1C3253.7,342.1,3252.1,339.8,3252.6,337.4
		z"/>
</g>
<path class="st1" d="M2733.7,311.4c0,0,289.2,3.2,536.3,74.4"/>
<g>
	<path class="st1" d="M3166.2,618.8c-9.4-6.1-91.9-44.4-180.7-18.8c-48.6,14-88.4,74.5-99.1,102.4c-11.4,29.8-14.9,65.7-9.2,101.8
		c11.6,74.5,66.5,114.3,91.2,123.9c58.9,23,135.1,14.1,156.5,6.6c55.8-19.5,98.5-48.3,120.3-146.4
		C3251.3,761.3,3244.7,669.8,3166.2,618.8z"/>
	<path class="st1" d="M2874.7,765.2c6.5,5.9,40,35.7,43.9,33.8c3.9-1.8,9.1-0.3,9.1-0.3s-6.3,17.9-1.9,22.1
		c4.4,4.2,14.9,8,13.2,18.7s-12.4,49.2-3,54.1c11.5,6.1,10.8-5.4,9.9-16.4c-1-12.2,10.7-23.7,25.8-37.7c15-14.1,19.7-26.5,5.4-34.5
		s-31.7-17.5-39.3-17.8s-7.6,3.5-14.6,1.4s-23.4-13.7-21.4-21.7c1.9-8,16.3,2.6,21.4,1.4c5.1-1.2,4.6-18.1,13-24.3
		s15.2-5.9,13.4-9.9s-1.6-4.3,2.1-7.3c3.7-3,11.7,2.1,13.2-2.6c1.6-4.7-18.8-16.8-27.3-23.6s-9.7-2.8-13.6,7.1
		c-3.9,9.9-16.7,1.3-13-7.2c3.7-8.6,18.6-16,14.9-21.8c-2.4-3.9-8.2-12.4-16.1-16.8"/>
	<path class="st1" d="M2952.8,617.8c-1.9,3.4-2.4,7.8-0.8,13.5c1.8,6.1,7.4,19.5,7.4,27.5s8.6,30.2,15.6,27.1
		c7-3.1,13.2-23.3,19.5-24.5c6.2-1.2,13.8-22.6,13.9-30.1c0-13.9-10.7-24.9-19.3-25.3"/>
	<path class="st1" d="M3073.8,763.5c-1.8-5-6.9-2.1-17-2.6s-11.1-9.5-22.5-6c-11.4,3.4-30,18.8-27.1,32.3s7.8,19,15.5,16.3
		s14.2,0.2,20.2,3.8c6.4,3.9,7.9,13.7,5.6,20.3c-3.6,10.7,6.3,30.9,11.1,31.5c6.8,0.7,14.5-6.3,17.4-14s6.6-28.9,12.6-33.9
		c6.1-5,15.3-13.5,9.5-16.1C3093.5,792.4,3083.7,790.5,3073.8,763.5z"/>
	<path class="st1" d="M3205.4,653.8c-8,0-15.1,0.2-18.4,0.2c-7.2,0,9.4-20.6-2.2-22.8c-11.5-2.2-31.6,7.9-34.9,14.8
		s-12,25.8-15.1,24.9c-3.1-0.9-5.1-17.6-6.6-16.3s-0.7,19.7-5.4,17.9s-19.4-3-23.3,1.1c-3.9,4.1-10.3,18-15.1,14.4s-4.1-6.1-0.5-6.9
		c3.6-0.8,9.2-15-10.6-15.6s-33,19.9-31.6,28.4c1.1,6.4,9.7,16.8,13.7,14.6c9.8-5.4,6.2-16.7,11.1-22.4c2.3-2.7,4.2,10.5,6.8,13.2
		s-5.9,14.2-12.8,16.2c-6.9,2.1-14.5,1.3-19.9,5.7s-10.9,6.8-10.9,10.5s-6.4,4.5-8.4,8.9s4.8,8.5,10.4,5.2
		c5.5-3.3,13.5-10.2,16.1-7.5c2.5,2.7,5.4,10.2,7.8,8.1c2.3-2.1-4.8-11.6-0.5-11s8.7,15.5,12.3,13.8s10.9-4.2,14.3,0.8
		c3.5,4.9-1,8.3-1,8.3"/>
	<path class="st1" d="M3082.5,765.2c0,0,11.3,20.7,16.3,20.2s17.7-5.8,16.8-9.9c-0.9-4.1-19.9-13.4-16.6-15.2
		c3.3-1.8,18.9,1.5,25.2,7.2s9.1,25.9,14,25.5s9.1-16.6,15.7-17.9c6.6-1.3,9.2,4.4,10.8,6.9s10.7,22.1,12.3,17.8s0.5-14.3,3.9-14.4
		c3.4-0.1-1.1-10.6,6.2-11.4c7.3-0.8,13.8-5.2,12.8-13.9s-1.4-17.3,1.4-17c2.8,0.3,7.5,10.3,10.2,7.4c2.7-2.9,0.1-8.4,5.4-10.7
		c5.3-2.3,12.2-12.8,9.9-19.5s-8.4-9-1.8-13.1c2.5-1.6,6.1-1.8,9.8-1.9"/>
	<path class="st1" d="M3213.6,758.7c0,0,6-1.2,13.2-10.1c3.5-4.3,6.7-10.4,6.7-10.4"/>
	<path class="st1" d="M3233.7,829.1c-7-4-14.6-9.1-23.3-8.4c-8,0.7-11,7.6-17.2,9.3s-6.2,27.6,0.2,26.6s14.8-7.7,23.4-3.6"/>
	<path class="st1" d="M3169.3,806.6c0,0,10.8,9.8,24.1,9.9"/>
	<path class="st1" d="M3187.1,806.6c0,0,6-4.6,7.9-9.7"/>
	<path class="st1" d="M3201.5,779.2c0,0-0.8,2.8,0,4.3"/>
	<path class="st1" d="M3215.6,803.7c0,0,8.9,6,17.9,7.9"/>
	<path class="st1" d="M3205.7,790.9c0,0,2.5,2.1,3.3,2.3"/>
	<path class="st1" d="M3023.3,706.7c0,0-0.6,7,2.4,8.9s1.1,9.8,1.1,9.8"/>
	<path class="st1" d="M3001.9,684.3c0,0,1.3,1.9,6.5,0"/>
	<path class="st1" d="M3015.9,716.1c0,0,3.3,6.2,2.5,7.8"/>
	<path class="st1" d="M2926.6,775.9c0,0,6.5,2.7,12.1,1"/>
	<path class="st1" d="M3098.8,823.1c0,0-2.7,8-3.4,13.2"/>
	<path class="st1" d="M2930.5,667c0,0,11.7,20.2,25.2,27.7"/>
</g>
<g>
	<path class="st1" d="M181,842.6c0,0,18.6-7.4,49.6,11.8s43.5,34.5,41.8,40.2s-10.5,11-10.5,11l56.3,5.4l-9.7-60.4l-15.2,12.9
		c0,0-29.3-39.3-57.5-46.3C207.6,810.2,181,842.6,181,842.6z"/>
	<path class="st1" d="M285.7,981.4l-27.4,47.7l57.8,20.6c0,0-4.7-15.4-1.3-17.5c3.4-2.2,32.9-3.9,54-16.4c36.3-21.5,16.6-71,16.6-71
		S372,969.1,345,981.4c-26.9,12.2-45.4,16.1-48.4,15.9C293.6,997,285.7,981.4,285.7,981.4z"/>
	<path class="st1" d="M183.1,918.9l26.1,45.9l-19,2.3c0,0-10.6,37.4-11.8,56.3c-1.2,18.9,11.2,46.4,11.2,46.4s-29.5,3-46.1-24.2
		c-14.1-22.9-4.3-48.5-1.7-56.8c2.7-8.3,11.9-25.6,9.7-27s-17.2-3.2-17.2-3.2L183.1,918.9z"/>
	<path class="st1" d="M306,923.9c0,0,24.5,12.1,32.1,24.2c5.1,8.1,2,22.3,2,22.3s18.2-10,26.1-19.8s8.5-22-3.3-31
		s-34.7-27.2-34.7-27.2l1.2,27L306,923.9z"/>
	<path class="st1" d="M163.2,913.9l24.4-13.9l16.1,17.2c0,0,2-23.5,6.1-35.3c3.7-10.6,14.2-15.1,14.2-15.1s-27.5-16.4-40.4-9.4
		C170.7,864.4,163.2,913.9,163.2,913.9z"/>
	<path class="st1" d="M250.5,1014.1l-10.3,23.1l24.7,13.7c0,0-23,10.9-40.3,14s-24.7-4.2-31-18c-4.6-10.3-2.8-26.4-2.8-26.4
		s8.4,12.2,22.4,8.4C227.3,1025.1,250.5,1014.1,250.5,1014.1z"/>
</g>
<g>
	<g>
		<path class="st2" d="M439.7,1141c-0.7-14,10.3-25.8,24.4-26.6c5.9-0.3,11.7,1.4,16.2,4.6c1.9,1.2,2.3,3.8,1.1,5.6
			c-1.2,1.7-3.8,2.2-5.6,0.9c-3.1-2.1-7-3.4-11.2-3.2c-5,0.3-9.3,2.4-12.3,5.8c-3.1,3.3-4.8,7.7-4.6,12.4c0.2,4.6,2.4,8.8,5.9,11.7
			c3.3,3,7.8,4.7,12.8,4.4c3.5-0.2,6.7-1.4,9.4-3.2l-0.5-9.6l-10,0.5c-2.2,0.1-4.1-1.6-4.2-3.8c-0.1-2.2,1.6-4,3.8-4.1l13.8-0.7
			c0.1,0,0.1,0,0.1,0c0.1,0,0.1,0,0.1,0c2.2-0.1,4.1,1.5,4.3,3.7l0.8,15.4c0,0.5-0.1,0.8-0.1,1.2c-0.1,0.1-0.1,0.2-0.1,0.4v0.1
			c-0.2,0.6-0.6,1.2-1.2,1.7c-4.2,3.7-9.6,6-15.6,6.3C452.6,1165.4,440.4,1155,439.7,1141z"/>
		<path class="st2" d="M536.3,1118.1c4.6,4.4,7.6,10.4,8,17.3s-2,13.3-6.1,18.1c-3.9,4.8-9.9,8-16.3,8.4c-6.7,0.4-13-2.3-17.5-6.6
			c-4.6-4.3-7.5-10.4-7.9-17.3s1.9-13.2,6-18c4-4.8,10-8,16.7-8.4C525.7,1111.1,532,1113.7,536.3,1118.1z M536.3,1135.8
			c-0.3-4.8-2.4-9.1-5.4-12c-3.1-3-7.1-4.6-11.3-4.4c-4.5,0.2-8.3,2.3-11.1,5.6c-2.8,3.2-4.4,7.7-4.1,12.5s2.3,9.1,5.4,11.9
			c3.1,3,7.1,4.7,11.6,4.4c4.2-0.2,8-2.3,10.8-5.6C534.9,1145,536.6,1140.5,536.3,1135.8z"/>
		<path class="st2" d="M576.9,1133.7c-0.7-14,10.3-25.8,24.4-26.6c5.9-0.3,11.7,1.4,16.2,4.6c1.9,1.2,2.3,3.8,1.1,5.6
			c-1.2,1.7-3.8,2.2-5.6,0.9c-3.1-2.1-7-3.4-11.2-3.2c-5,0.3-9.3,2.4-12.3,5.8c-3.1,3.3-4.8,7.7-4.6,12.4c0.2,4.6,2.4,8.8,5.9,11.7
			c3.3,3,7.8,4.7,12.8,4.4c3.5-0.2,6.7-1.4,9.4-3.2l-0.5-9.6l-10,0.5c-2.2,0.1-4.1-1.6-4.2-3.8c-0.1-2.2,1.6-4,3.8-4.1l13.8-0.7
			c0.1,0,0.1,0,0.1,0c0.1,0,0.1,0,0.1,0c2.2-0.1,4.1,1.5,4.3,3.7l0.8,15.4c0,0.5-0.1,0.8-0.1,1.2c-0.1,0.1-0.1,0.2-0.1,0.4v0.1
			c-0.2,0.6-0.6,1.2-1.2,1.7c-4.2,3.7-9.6,6-15.6,6.3C589.8,1158.2,577.6,1147.7,576.9,1133.7z"/>
		<path class="st2" d="M669.3,1148.2c0.8,2-0.2,4.2-2.2,5c-0.3,0.1-0.8,0.3-1.5,0.3c0,0,0,0-0.1,0c-0.7,0-1.8,0-2.8-0.6
			c-0.9-0.5-1.8-1.4-2.4-2.3c-1.1-2-1.7-4.5-1.9-8.3c-0.1-1.3-0.5-2.2-1-3c-0.5-0.7-1.3-1.4-2.2-1.9c-1.5-0.9-3.4-1.4-4-1.5
			l-8.2,0.4l0.8,15.2c0.1,2.1-1.5,3.9-3.7,4.1c-2.2,0.1-3.9-1.5-4-3.6l-2.2-41.2c-0.1-2.2,1.5-3.9,3.6-4c0,0,0,0,0.1,0l12.4-0.7
			c8.3-0.4,15.3,5.9,15.7,14.2c0.2,4.6-1.6,8.8-4.8,11.7c0.9,0.7,1.8,1.4,2.6,2.5c1.5,2,2.5,4.5,2.7,7.4c0,2.1,0.3,3.4,0.5,4.1
			C667.8,1146.2,668.8,1147,669.3,1148.2z M658,1120.6c-0.2-4.1-3.6-7.1-7.6-6.9l-8.6,0.5l0.8,14.4l8.6-0.5
			C655.2,1127.9,658.2,1124.5,658,1120.6z"/>
		<path class="st2" d="M680.7,1149.5l-2.2-41.2c-0.1-2.2,1.5-3.9,3.6-4h0.1c0,0,0,0,0.1,0l22.6-1.2c2-0.1,3.9,1.5,4,3.6
			c0.1,2.2-1.6,4-3.6,4.1l-18.9,1l0.7,12.8l16.3-0.9c2.1-0.1,3.9,1.6,4,3.6c0.1,2.2-1.5,4-3.6,4.1l-16.3,0.9l0.7,12.9l18.9-1
			c2-0.1,3.9,1.5,4.1,3.7c0.1,2.1-1.6,3.9-3.6,4l-22.6,1.2c-0.1,0-0.1-0.1-0.1-0.1l-0.1,0.1C682.6,1153.3,680.8,1151.6,680.7,1149.5
			z"/>
		<path class="st2" d="M722.1,1147.3l-2.2-41.2c-0.1-2.2,1.5-3.9,3.6-4h0.1c0,0,0,0,0.1,0l22.6-1.2c2-0.1,3.9,1.5,4,3.6
			c0.1,2.2-1.6,4-3.6,4.1l-18.9,1l0.7,12.8l16.3-0.9c2.1-0.1,3.9,1.6,4,3.6c0.1,2.2-1.5,4-3.6,4.1l-16.3,0.9l0.7,12.9l18.9-1
			c2-0.1,3.9,1.5,4.1,3.7c0.1,2.1-1.6,3.9-3.6,4l-22.6,1.2c-0.1,0-0.1-0.1-0.1-0.1l-0.1,0.1C724,1151.1,722.2,1149.4,722.1,1147.3z"
			/>
		<path class="st2" d="M771.2,1144.7c0.1,2.1-1.5,3.9-3.6,4c-2.2,0.1-3.9-1.5-4-3.6l-2.1-40.6c0,0,0,0,0-0.1
			c-0.1-1.2,0.4-2.5,1.4-3.3c1.7-1.3,4.1-1.1,5.4,0.6l24.2,30l-1.5-28.8c-0.1-2,1.5-3.9,3.6-4s3.9,1.5,4,3.6l2.1,40.6
			c0.1,2.1-1.5,3.9-3.6,4c-1.1,0.1-2.2-0.4-2.9-1.2c-0.1-0.1-0.3-0.3-0.4-0.4l-24-29.8L771.2,1144.7z"/>
	</g>
	<path class="st1" d="M458.5,1199.6c0,0,136.7-31.2,353.8-29.2"/>
	<path class="st1" d="M702.4,1197c0,0,36.3-1.8,74.1,0.5"/>
</g>
<g>
	<path class="st1" d="M2885.8,554.3L2885.8,554.3c-0.6-0.5-1.1-1-1.8-1.4c-0.6,0.5-1.1,1-1.6,1.6l0,0c-7.2,7.9-6.6,20.2,1.3,27.4
		l0,0c0.6,0.5,1.1,1,1.8,1.4c0.6-0.5,1.1-1,1.6-1.6l0,0C2894.3,573.8,2893.7,561.5,2885.8,554.3z"/>
	<path class="st1" d="M2941.8,541.2L2941.8,541.2c0.1-1.3,0.1-2.5,0-3.7c-1.2-0.2-2.4-0.3-3.7-0.4l0,0
		c-17.6-0.9-32.7,12.8-33.6,30.4l0,0c-0.1,1.3-0.1,2.5,0,3.7c1.2,0.2,2.4,0.3,3.7,0.4l0,0C2925.8,572.5,2940.9,558.8,2941.8,541.2z"
		/>
	<path class="st1" d="M2899.1,577.5c0,0-13.6,6.9-28.7,25.1"/>
</g>
<g>
	<g>
		<path class="st1" d="M2785.3,1245c8-44.8,66.5-32.7,66.5-32.7s-20.8,65.1-65.5,37.5"/>
		<path class="st1" d="M2830.1,1225.7c0,0-32.4,7.9-39.6,20.4"/>
		<line class="st1" x1="2807.8" y1="1233.4" x2="2817.7" y2="1237.7"/>
	</g>
	<path class="st1" d="M2780.8,1296.9c7.9-9.8,25.3-22.9,44.2-26.5s51.5-26.9,50.6-63.1s-37.8-56.8-64.4-52.9
		c-26.5,3.8-52.5,28.1-51.6,61.4c0.8,29.2-7.7,46-19,55.7s-31.2,34.8-11.4,50.7C2749,1338.2,2767.2,1313.8,2780.8,1296.9z"/>
	<path class="st1" d="M2740.5,1271.6c0,0,22.3,27.7,40.2,25.3"/>
	<path class="st1" d="M2756.9,1286.9c0,0,11.5-20.7,28.7-37.8"/>
	<path class="st1" d="M2797.1,1172c0,0,11.7-11,32.1-3.3"/>
	<path class="st1" d="M2725,1283.1c0,0,13.4,28.2,43.5,33.9"/>
</g>
</svg>
