<?xml version="1.0" encoding="utf-8"?>
<!-- Generator: Adobe Illustrator 25.0.1, SVG Export Plug-In . SVG Version: 6.00 Build 0)  -->
<svg version="1.1" id="Layer_1" xmlns="http://www.w3.org/2000/svg" xmlns:xlink="http://www.w3.org/1999/xlink" x="0px" y="0px"
	 viewBox="0 0 49.2 50" style="enable-background:new 0 0 49.2 50;" xml:space="preserve">
<style type="text/css">
	.st0{fill:#90eb9d;}
</style>
<path class="st0" d="M46.1,24.3c0,12-9.9,21.6-22,21.5C12,45.8,2.3,36,2.4,23.9C2.4,12.1,12.3,2.4,24.3,2.5
	C36.4,2.5,46.1,12.2,46.1,24.3z M24.2,43.8c11.1,0,19.9-8.7,19.9-19.7c0-10.9-8.8-19.7-19.8-19.7c-11.1,0-20,8.7-20,19.6
	C4.3,35.1,13.1,43.8,24.2,43.8z"/>
<path class="st0" d="M28.5,38.1c-0.5-0.6-0.6-0.7-0.7-0.9c-3-4.3-3-4.3,0.1-8.2c0.7,0.4,1.3,1,1.9,1c2.2,0.1,4.4,0,7,0
	c-1.2,1.8-2.1,3.6-3.4,4.8c-0.8,0.8-2.3,1-3.6,1.1C29,36.4,28.2,36.4,28.5,38.1z"/>
<path class="st0" d="M10.8,21.2c0.3,0,0.7,0,1-0.1c4.8-0.3,4.8-0.3,6.4,4c-0.7,0.6-1.5,1-1.9,1.6c-1.2,1.8-2.2,3.7-3.4,5.7
	c-0.9-1.6-1.7-3.1-2.4-4.6c-0.7-1.5-0.4-2.9,0.5-4.2C11.4,22.8,12.3,21.9,10.8,21.2z"/>
<path class="st0" d="M22.7,11.4c2.2,0,4.1-0.3,5.8,0.1c1.1,0.3,2.1,1.4,2.9,2.4c0.6,0.7,1,1.4,2.2,0.7c-0.6,1.4-1.2,2.9-1.9,4.3
	c-0.2,0.3-0.8,0.6-1.3,0.6c-1.4,0-2.7-0.1-3.8-0.2c-0.2-1-0.2-1.8-0.5-2.5C25.1,15.1,24,13.4,22.7,11.4z"/>
<path class="st0" d="M35.7,21.5c0.9,1.6,1.8,3,2.5,4.5c0.7,1.4,0,2.9-1.5,3.4c-2,0.7-3.3,0.2-4.4-1.6c-0.6-1-1.2-2.1-1.9-3.3
	C32.2,23.5,33.9,22.5,35.7,21.5z"/>
<path class="st0" d="M21.1,19.6c-1.8-0.9-3.4-1.8-5.4-2.8c0.9-1.6,1.7-3.2,2.6-4.7c0.7-1.1,2.5-1.2,3.5-0.5c1.6,1.2,2,2.8,1.1,4.5
	C22.4,17.4,21.8,18.4,21.1,19.6z"/>
<path class="st0" d="M18,35.7c-0.7,0-1.4,0.1-2.1,0c-1.6-0.2-2.5-1.7-2.1-3.3c0.7-2.3,1.3-2.7,4.2-2.7c3.3,0,3.1-0.6,3.1,3
	C21.1,36.3,21.4,35.7,18,35.7z"/>
</svg>
