<?xml version="1.0" encoding="utf-8"?>
<!-- Generator: Adobe Illustrator 25.0.1, SVG Export Plug-In . SVG Version: 6.00 Build 0)  -->
<svg version="1.1" id="expnaded" xmlns="http://www.w3.org/2000/svg" xmlns:xlink="http://www.w3.org/1999/xlink" x="0px" y="0px"
	 viewBox="0 0 96 96" style="enable-background:new 0 0 96 96;" xml:space="preserve">
<style type="text/css">
	.st0{fill:#33B2B6;}
</style>
<path class="st0" d="M48,94c-19.6,0-35.6-16.8-35.6-37.4c0-0.6,0.4-1,1-1h69.2c0.6,0,1,0.4,1,1C83.6,77.2,67.6,94,48,94z M14.4,57.6
	C14.9,76.6,29.8,92,48,92s33.1-15.4,33.6-34.4H14.4z"/>
<path class="st0" d="M66.9,57.6c-0.5,0-0.6-0.2-1.2-0.8c-0.9-1-3.8-4-5.5-4.3c-2.7-0.6-4.8-1.4-6-4c-0.7-1.4-5.5-1.1-8.5-0.9h-0.3
	c-0.9,0-1.6,0.5-2,1.2c-0.7,1-1.6,2.4-5,2.4c-4.7,0-9.2,5.8-9.3,5.9c-0.3,0.4-1,0.5-1.4,0.1c-0.4-0.3-0.5-0.9-0.2-1.3
	c0.2-0.3,5.1-6.7,10.9-6.7c2.3,0,2.8-0.7,3.4-1.5c0.7-1.3,2.1-2.1,3.5-2.1h0.3c4.3-0.3,9.1-0.6,10.4,2.1c0.7,1.6,1.9,2.3,4.6,2.8
	c2.1,0.4,4.6,2.8,6.6,4.9c0.1,0.2,0.2,0.3,0.3,0.3c0.3,0.2,0.4,0.5,0.4,0.8C67.9,57.2,67.4,57.6,66.9,57.6z"/>
<path class="st0" d="M48,47.4c-0.6,0-1-0.4-1-1V15.7c0-0.6,0.4-1,1-1s1,0.4,1,1v30.7C49,47,48.6,47.4,48,47.4z"/>
<path class="st0" d="M55.7,45.4c-1.9,0-3.8-0.7-5.3-1.8l-1.7,1.2c-0.5,0.3-1.1,0.2-1.4-0.2s-0.2-1.1,0.2-1.4l1.9-1.3
	c0.2-2.2,1.3-4.2,3-5.5c3.1-2.4,8-2.8,14.7-1.2c0.5,0.1,0.9,0.7,0.7,1.2c0,0.1-0.1,0.2-0.1,0.3c-0.2,0.3-4.6,7.7-10.6,8.7
	C56.6,45.4,56.2,45.4,55.7,45.4z M51.4,41.9c1.5,1.2,3.4,1.8,5.3,1.5c3.8-0.7,7.1-4.6,8.5-6.6C60,35.6,56,36,53.7,37.8
	C52.4,38.8,51.6,40.3,51.4,41.9z"/>
<path class="st0" d="M53.1,30.5c-1.3,0-2.5-0.4-3.5-1.1L48.7,30c-0.5,0.3-1.1,0.1-1.4-0.3c-0.3-0.4-0.2-1,0.2-1.3l1.1-0.8
	c0.2-1.5,0.9-2.8,2.1-3.8c2.1-1.7,5.5-2,10.1-0.8c0.3,0.1,0.6,0.3,0.7,0.6c0.1,0.3,0.1,0.6-0.1,0.9c-0.1,0.2-3.1,5.2-7.3,6
	C53.8,30.5,53.5,30.5,53.1,30.5z M50.7,27.7c0.9,0.7,2,1,3.1,0.8c2.2-0.4,4.1-2.5,5.2-3.8c-3.2-0.6-5.5-0.3-6.9,0.8
	C51.3,26,50.9,26.8,50.7,27.7z"/>
<path class="st0" d="M42.7,40.5c-0.4,0-0.7,0-1.1-0.1c-4.3-0.8-7.4-5.9-7.5-6.2c-0.2-0.3-0.2-0.6-0.1-0.9c0.1-0.3,0.4-0.5,0.7-0.6
	c4.7-1.2,8.2-0.9,10.4,0.9c1.2,1,2,2.4,2.2,3.9l1.2,0.8c0.5,0.2,0.7,0.8,0.5,1.3s-0.8,0.7-1.3,0.5c-0.1-0.1-0.2-0.1-0.3-0.2l-1-0.7
	C45.2,40.1,44,40.5,42.7,40.5z M36.6,34.5c1.1,1.4,3.1,3.6,5.4,4c1.2,0.2,2.4-0.1,3.3-0.8c-0.2-1-0.7-1.8-1.4-2.4
	C42.4,34.1,39.9,33.8,36.6,34.5z"/>
<path class="st0" d="M42.7,25.2c-0.4,0-0.7,0-1.1-0.1c-4.3-0.8-7.4-5.9-7.5-6.1c-0.3-0.5-0.1-1.1,0.4-1.4c0.1,0,0.2-0.1,0.3-0.1
	c4.7-1.2,8.2-0.9,10.4,0.9c1.2,1,2,2.3,2.2,3.9l1.2,0.8c0.4,0.3,0.5,1,0.1,1.4c-0.3,0.4-0.9,0.5-1.3,0.2l-1-0.7
	C45.2,24.7,44,25.1,42.7,25.2z M36.6,19.1c1.1,1.4,3.1,3.6,5.4,4c1.2,0.2,2.4-0.1,3.3-0.8c-0.2-1-0.7-1.8-1.4-2.4
	C42.4,18.7,39.9,18.4,36.6,19.1z"/>
<path class="st0" d="M48,17.7c-0.6,0-1-0.4-1-1v-1.2c-1.6-0.5-2.9-1.7-3.6-3.2c-1.9-4,0.6-9.5,0.7-9.7c0.1-0.3,0.4-0.5,0.7-0.6
	c0.3-0.1,0.6,0,0.9,0.2c3.7,3.2,5.5,6.2,5.3,9c-0.1,1.5-0.8,3-1.9,4v1.4C49,17.2,48.6,17.7,48,17.7L48,17.7z M45.4,4.7
	c-0.5,1.7-1.2,4.6-0.2,6.7c0.5,1.1,1.4,1.9,2.6,2.2c0.7-0.7,1.1-1.6,1.2-2.6C49,9.3,47.8,7.1,45.4,4.7z"/>
<path class="st0" d="M35.8,91.7c-0.1,0-0.2,0-0.3-0.1c-0.5-0.2-0.8-0.8-0.6-1.3c0,0,0,0,0,0c0.3-1.2,0.5-2.4,0.6-3.7
	c0.1-2-4-7.9-6-9.8s-5.2-6.7-6-10.6c0,0,0-0.1,0-0.1c-0.9,0-4,2.4-6.5,5.3c-0.4,0.4-1,0.4-1.4,0.1c-0.4-0.4-0.4-1-0.1-1.4
	c1.8-2,6.2-6.5,8.6-5.8c0.8,0.2,1.3,0.9,1.4,1.7c0.7,3.3,3.6,7.8,5.4,9.5s6.8,8.2,6.6,11.4c-0.1,1.4-0.3,2.8-0.7,4.2
	C36.6,91.4,36.2,91.7,35.8,91.7z"/>
<path class="st0" d="M57.5,92.6h-0.1c-0.5-0.1-0.9-0.6-0.9-1.1c0,0,0,0,0,0c0-0.3,0.9-7.4,5.5-8.3c1-0.2,1.1-1.6,0.8-4.3
	c-0.2-2.2-0.5-4.6,1.6-5c1-0.2,2-0.3,3-0.3c1.1,0.1,2.3-0.2,3.3-0.7c0.5-0.3,0.6-0.7,0.9-1.4c0.5-1.6,1.5-2.9,3-3.7
	c2.1-1.2,4.3-2,6.7-2.5c0.5-0.1,1.1,0.3,1.2,0.8c0,0,0,0,0,0c0.1,0.5-0.3,1.1-0.8,1.2c0,0,0,0,0,0c-2.1,0.4-4.1,1.2-6,2.3
	c-1,0.6-1.8,1.5-2.1,2.7c-0.2,1-0.9,1.9-1.7,2.5c-1.3,0.7-2.8,1-4.2,0.9c-0.9,0-1.8,0.1-2.7,0.3c-0.2,0.3-0.1,1.9,0,2.9
	c0.3,2.5,0.6,5.9-2.4,6.5c-2.6,0.5-3.7,4.9-3.8,6.6C58.4,92.2,58,92.6,57.5,92.6z"/>
<path class="st0" d="M57.6,68.4c-2.1,0.1-4-0.9-5.1-2.7c-0.8-1.4-1.5-1.3-4.2-0.6c-2.2,0.6-4.5,1-6.8,1.1h-0.2
	c-7.6,0-11.1-8.9-11.2-9.3c-0.2-0.5,0.1-1.1,0.6-1.3c0.5-0.2,1.1,0.1,1.3,0.6c0,0.1,3.1,8,9.4,8h0.2c2.2-0.1,4.3-0.4,6.4-1
	c2.6-0.7,4.8-1.2,6.4,1.5c0.7,1.1,2,1.8,3.4,1.7c1.9,0,3.6-0.9,4.1-1.7c1-1.6,2.8-1.5,4.1-1.5s1.9,0,2.2-0.5c0.9-1.5,0.7-4.8,0.5-6
	c-0.1-0.5,0.3-1,0.9-1.1c0.5-0.1,1,0.3,1.1,0.8c0.1,0.5,0.6,5-0.8,7.3c-0.9,1.5-2.6,1.5-4,1.4s-2,0-2.3,0.5
	C62.5,67.2,60.1,68.4,57.6,68.4z"/>
</svg>
