<?xml version="1.0" encoding="utf-8"?>
<!-- Generator: Adobe Illustrator 24.0.1, SVG Export Plug-In . SVG Version: 6.00 Build 0)  -->
<svg version="1.1" id="Line" xmlns="http://www.w3.org/2000/svg" xmlns:xlink="http://www.w3.org/1999/xlink" x="0px" y="0px"
	 viewBox="0 0 100 100" style="enable-background:new 0 0 100 100;" xml:space="preserve">
<style type="text/css">
	.st0{fill:#33B2B6;}
</style>
<path class="st0" d="M94.8,34.4l-4.2-2.1c-1.1-0.5-2.3-0.6-3.4-0.2c-1.1,0.4-2.1,1.2-2.6,2.3L79.8,44c-0.4,0.7-1.3,1.1-2,0.7
	l-10.9-5.3c-0.7-0.4-1.1-1.3-0.7-2l4.7-9.6c1.1-2.2,0.2-4.9-2.1-6l-4.2-2.1c-2.2-1.1-4.9-0.1-6,2.1L44.4,50.6l-1-1.9
	c-0.5-1-1.4-1.7-2.5-2c0.3-1.1,0.1-2.2-0.4-3.2l-3.4-6.1c-0.5-0.9-1.4-1.6-2.4-2c0.2-1,0.1-2.1-0.5-3.1l-0.4-0.8
	c-2.1-3.8-6.3-6.2-11.2-6.4l-0.1,0c-0.8-0.3-1.6-0.7-2.2-1.2c0.7-0.4,0.9-1.3,0.5-2l-3.4-6c-0.2-0.4-0.5-0.6-0.9-0.7
	s-0.8-0.1-1.1,0.1L5.3,21.1c-0.7,0.4-1,1.3-0.6,2l3.4,6c0.2,0.4,0.5,0.6,0.9,0.7c0.1,0,0.3,0.1,0.4,0.1c0.2,0,0.5-0.1,0.7-0.2
	c0.1,0.7,0.1,1.6-0.1,2.5l0,0.2c-2.4,4.3-2.5,9.1-0.4,12.9L9.9,46c0.5,0.9,1.4,1.6,2.4,2c-0.2,1-0.1,2.1,0.5,3.1l3.4,6.1
	c0.6,1,1.5,1.7,2.5,2c-0.2,1-0.1,2.2,0.4,3.2l8.7,15.6c0.6,1.1,1.5,1.8,2.7,2.1c0.4,0.1,0.8,0.2,1.2,0.2c0.8,0,1.5-0.2,2.2-0.6
	l14.3-8l22.9,11.2c0.6,0.3,1.3,0.4,2,0.4c1.7,0,3.3-0.9,4.1-2.5l19.7-40.4c0.5-1.1,0.6-2.3,0.2-3.4S95.8,34.9,94.8,34.4L94.8,34.4z
	 M10,26.4L8.1,23l7.5-4.2l1.9,3.4L10,26.4z M14,45.3c-0.2,0-0.4,0-0.6,0c-0.4-0.1-0.7-0.4-0.9-0.7l-0.4-0.8
	c-1.6-2.9-1.4-6.7,0.5-10.1c0.1-0.1,0.1-0.3,0.2-0.4l0.1-0.3c0.3-1.4,0.4-3.3,0-4.7l4.7-2.6c1,1.1,2.6,2,4,2.5l0.3,0.1
	c0.1,0,0.3,0.1,0.4,0.1c3.9,0.1,7.2,2,8.9,4.9l0.4,0.8c0.2,0.3,0.2,0.8,0.1,1.1c0,0.2-0.1,0.3-0.3,0.5c-0.2,0.1-0.4,0.1-0.5,0.2
	l-16.5,9.2C14.4,45,14.2,45.1,14,45.3L14,45.3z M15.4,49.6c-0.2-0.3-0.2-0.8-0.1-1.1s0.4-0.7,0.7-0.9l16.5-9.2
	c0.2-0.1,0.5-0.2,0.7-0.2c0.1,0,0.3,0,0.4,0.1c0.4,0.1,0.7,0.4,0.9,0.7l3.4,6.1c0.2,0.3,0.2,0.8,0.1,1.1s-0.4,0.7-0.7,0.9l-16.5,9.2
	c-0.7,0.4-1.6,0.2-2-0.6C18.8,55.7,15.4,49.6,15.4,49.6z M32.5,77.1c-0.3,0.2-0.8,0.2-1.1,0.1s-0.7-0.4-0.9-0.7l-8.7-15.6
	c-0.4-0.7-0.1-1.6,0.6-2l16.5-9.2c0.2-0.1,0.5-0.2,0.7-0.2c0.1,0,0.3,0,0.4,0.1c0.4,0.1,0.7,0.4,0.9,0.7l2.1,3.7l-4,8.2
	c-1.1,2.2-0.2,4.9,2.1,6l4,1.9L32.5,77.1L32.5,77.1z M94.1,39.1L74.5,79.5c-0.4,0.7-1.3,1.1-2,0.7L42.3,65.5c-0.7-0.4-1-1.3-0.7-2
	l19.7-40.4c0.3-0.5,0.8-0.8,1.3-0.8c0.2,0,0.4,0,0.7,0.1l4.2,2.1c0.7,0.4,1.1,1.3,0.7,2l-4.7,9.6c-1.1,2.2-0.2,4.9,2.1,6l10.9,5.3
	c2.2,1.1,4.9,0.2,6-2.1l4.7-9.6c0.2-0.4,0.5-0.6,0.9-0.8s0.8-0.1,1.1,0.1l4.2,2.1c0.4,0.2,0.6,0.5,0.8,0.9S94.3,38.7,94.1,39.1z"/>
<path class="st0" d="M78.8,10c-1.2,1.6-1.6,3.6-1.3,5.5c0.3,2,1.4,3.7,3,4.8c1.5,1.1,3,1.6,4.5,1.6c0.8,0,1.6-0.1,2.3-0.4
	c2.2-0.8,4.2-2.5,6.3-5.4c0.5-0.7,0.3-1.6-0.3-2.1c-0.7-0.5-1.6-0.3-2.1,0.4c-1.7,2.3-3.3,3.8-4.8,4.3c-1.4,0.5-2.7,0.2-4.1-0.8
	c-1-0.7-1.6-1.7-1.8-2.9c-0.2-1.2,0.1-2.3,0.8-3.3c0.9-1.3,2.6-1.6,3.9-0.6c0.7,0.5,0.9,1.5,0.4,2.3c-0.3,0.3-0.7,0.4-1.1,0.2
	c-0.7-0.5-1.6-0.3-2.1,0.4S82,15.5,82.7,16c1.7,1.2,4,0.8,5.3-0.9c1.5-2.1,1-5-1.1-6.4C84.2,6.8,80.6,7.4,78.8,10L78.8,10z"/>
<path class="st0" d="M45.9,87.3c0.2-0.2,0.5-0.2,0.6-0.2c0.1,0,0.3,0.1,0.5,0.3c0.5,0.7,1.5,0.8,2.1,0.3c0.7-0.5,0.8-1.4,0.3-2.1
	c-0.6-0.8-1.5-1.3-2.5-1.4c-1-0.1-2,0.1-2.8,0.8c-1,0.8-1.6,1.8-1.8,3.1s0.2,2.4,0.9,3.4c0.9,1.2,2.3,2,3.8,2.2
	c0.3,0,0.5,0.1,0.8,0.1c1.3,0,2.5-0.4,3.5-1.2c1.6-1.2,2.6-2.9,2.8-4.9c0.3-2-0.3-3.9-1.5-5.5c-1.7-2.2-3.8-3.2-6.2-3.1
	c-2.3,0.1-4.8,1.2-7.5,3.3c-0.7,0.5-0.8,1.4-0.3,2.1c0.5,0.7,1.5,0.8,2.1,0.3C43,82.9,45,82,46.6,82c1.5-0.1,2.6,0.6,3.7,2
	c0.7,0.9,1,2.1,0.9,3.3s-0.8,2.2-1.7,2.9c-0.6,0.4-1.3,0.7-2.1,0.6c-0.7-0.1-1.4-0.5-1.8-1.1c-0.3-0.3-0.4-0.8-0.3-1.2
	S45.5,87.6,45.9,87.3L45.9,87.3z"/>
<path class="st0" d="M36.9,16c0.8,0,1.5-0.7,1.5-1.5S37.8,13,36.9,13c-1.9,0-3.5,1.6-3.5,3.5c0,2.3,1.9,4.2,4.2,4.2
	c2.9,0,5.3-2.4,5.3-5.3c0-3.7-3-6.7-6.7-6.7c-3.4,0-7.4,1.7-7.4,9.9c0,0.8,0.7,1.5,1.5,1.5s1.5-0.7,1.5-1.5c0-6.1,2.4-6.9,4.4-6.9
	s3.7,1.6,3.7,3.7c0,1.3-1,2.3-2.3,2.3c-0.7,0-1.2-0.5-1.2-1.2C36.4,16.2,36.7,16,36.9,16z"/>
</svg>
