<?xml version="1.0" encoding="utf-8"?>
<!-- Generator: Adobe Illustrator 24.0.1, SVG Export Plug-In . SVG Version: 6.00 Build 0)  -->
<svg version="1.1" id="Layer_1" xmlns="http://www.w3.org/2000/svg" xmlns:xlink="http://www.w3.org/1999/xlink" x="0px" y="0px"
	 viewBox="0 0 512 512" style="enable-background:new 0 0 512 512;" xml:space="preserve">
<style type="text/css">
	.st0{fill:#33B2B6;}
</style>
<path class="st0" d="M208,496c-106,0-192-86-192-192s86-192,192-192c4.4,0,8,3.6,8,8s-3.6,8-8,8c-97.2,0-176,78.8-176,176
	s78.8,176,176,176s176-78.8,176-176c0-4.4,3.6-8,8-8s8,3.6,8,8C399.9,410,314,495.9,208,496z"/>
<path class="st0" d="M145.6,429.8c-1.2,0-2.4,0-3.7-0.1c-23.6-1.7-53.7-18.3-61.1-40.3c-8.7-26.1-44.5-70.2-60.4-78.1
	c-4-2-5.6-6.8-3.6-10.7c2-4,6.8-5.6,10.7-3.6c21.1,10.5,58.9,58.7,68.4,87.4c5,15.1,29.4,28.2,47,29.4c6.1,0.5,10.7-0.7,11.8-2.9
	c2.7-5.4,0-15.9-2.7-26c-4.2-16.1-9.4-36.1,4.2-49.7c19.5-19.5,21.5-22.4,9.2-34.7c-6.7-6.7-26.5-11.3-42.4-15
	c-21.8-5-37.6-8.7-42.3-18.7c-1.8-3.9-1.7-8.5,0.4-12.3c5.7-11.4,20.7-14.7,35.3-17.9c17.1-3.7,28.3-6.8,28.3-15.3
	c0-19.4-31.8-49.2-43-58.2c-3.5-2.8-4-7.8-1.3-11.2c2.8-3.5,7.8-4,11.2-1.3c5,4,49,40.1,49,70.7c0,22-22.7,27-40.9,31
	c-9.1,2-20.3,4.4-23.7,8.4c9.8,4.3,20,7.4,30.6,9.3c19.7,4.6,40.1,9.3,50.1,19.3c24.1,24.1,8.6,39.5-9.2,57.3
	c-6.6,6.6-4.3,17.9,0,34.3c3.4,13,6.9,26.5,1.5,37.2C164.4,426.3,155.1,431,145.6,429.8z"/>
<path class="st0" d="M286.8,476.8c-3-1-6-2.2-8.9-3.6c-8.6-3.7-15.1-10.9-18-19.8c-1.9-8.8,0.2-17.9,5.7-25
	c17.1-25.6,17.1-51.6,17.1-87.6h16c0,37.3,0,66.8-19.7,96.4c-2.8,3.4-4.1,7.8-3.5,12.1c1.9,4.3,5.4,7.8,9.7,9.5
	c2.1,1,4.2,1.9,6.4,2.6L286.8,476.8z"/>
<path class="st0" d="M312,272c-39.8,0-72-32.2-72-72s32.2-72,72-72c12.7,0,25.1,3.3,36.1,9.7c3.9,2,5.4,6.9,3.4,10.8
	c-2,3.9-6.9,5.4-10.8,3.4c-0.2-0.1-0.4-0.2-0.6-0.3c-26.8-15.5-61-6.3-76.5,20.5s-6.3,61,20.5,76.5c26.8,15.5,61,6.3,76.5-20.5
	c10-17.3,10-38.7,0-56c-2.1-3.9-0.6-8.7,3.3-10.8c3.7-2,8.4-0.8,10.6,2.8c19.9,34.4,8.1,78.5-26.4,98.4C337,268.7,324.6,272,312,272
	z"/>
<path class="st0" d="M312,312c-61.9,0-112-50.1-112-112c0-61.9,50.1-112,112-112c22.2,0,43.9,6.6,62.3,18.9
	c3.7,2.5,4.7,7.4,2.2,11.1c-2.5,3.7-7.4,4.7-11.1,2.2c-44.1-29.5-103.8-17.6-133.3,26.5s-17.6,103.8,26.5,133.3
	s103.8,17.6,133.3-26.5c21.6-32.3,21.6-74.5,0-106.8c-2.5-3.6-1.7-8.6,1.9-11.1c3.6-2.5,8.6-1.7,11.1,1.9c0.1,0.1,0.1,0.2,0.2,0.3
	c34.4,51.4,20.6,120.9-30.7,155.3C355.9,305.4,334.2,312,312,312z"/>
<path class="st0" d="M440,208h-88c-4.4,0-8-3.6-8-8s3.6-8,8-8h88c4.4,0,8,3.6,8,8S444.4,208,440,208z"/>
<path class="st0" d="M312,168c-4.4,0-8-3.6-8-8V72c0-4.4,3.6-8,8-8s8,3.6,8,8v88C320,164.4,316.4,168,312,168z"/>
<path class="st0" d="M272,208h-88c-4.4,0-8-3.6-8-8s3.6-8,8-8h88c4.4,0,8,3.6,8,8S276.4,208,272,208z"/>
<path class="st0" d="M312,336c-4.4,0-8-3.6-8-8v-88c0-4.4,3.6-8,8-8s8,3.6,8,8v88C320,332.4,316.4,336,312,336z"/>
<path class="st0" d="M312,208c-4.4,0-8-3.6-8-8c0-2.1,0.8-4.2,2.3-5.7l77.7-77.7V72c0-2.1,0.8-4.2,2.3-5.7l48-48
	c3.1-3.1,8.2-3.1,11.3,0c1.5,1.5,2.3,3.5,2.3,5.7v40h40c4.4,0,8,3.6,8,8c0,2.1-0.8,4.2-2.3,5.7l-48,48c-1.5,1.5-3.5,2.3-5.7,2.3
	h-44.7l-77.7,77.7C316.2,207.2,314.1,208,312,208z M411.3,112h25.4l32-32h-25.4L411.3,112z M400,75.3v25.4l32-32V43.3L400,75.3z"/>
</svg>
