<?xml version="1.0" encoding="utf-8"?>
<!-- Generator: Adobe Illustrator 25.0.1, SVG Export Plug-In . SVG Version: 6.00 Build 0)  -->
<svg version="1.1" xmlns="http://www.w3.org/2000/svg" xmlns:xlink="http://www.w3.org/1999/xlink" x="0px" y="0px"
	 viewBox="0 0 600 500" style="enable-background:new 0 0 600 500;" xml:space="preserve">
<style type="text/css">
	.st0{fill:#A8D281;}
	.st1{fill:#195C66;}
	.st2{fill:#659081;}
	.st3{fill:#89AD81;}
	.st4{fill:#435561;}
	.st5{fill:#4B9DB1;}
	.st6{fill:#4BABBB;}
	.st7{fill:#BCE481;}
	.st8{fill:#4BB5C9;}
	.st9{fill:#FFB38F;}
	.st10{fill:#EE9A88;}
	.st11{fill:#3A5E63;}
	.st12{fill:#2A4347;}
	.st13{fill:#79B1BA;}
	.st14{fill:#5DB1B1;}
	.st15{fill:#53A0AD;}
	.st16{fill:#98E0E0;}
	.st17{fill:#BBC1C4;}
	.st18{fill:#DDE9F3;}
	.st19{fill:#D0D4DB;}
	.st20{fill:#FFFFFF;}
	.st21{fill:#FF9E02;}
	.st22{fill:#FFE8CC;}
	.st23{fill:#E18B02;}
	.st24{fill:#E5D0C3;}
	.st25{fill:#864321;}
	.st26{fill:#FFA888;}
	.st27{fill:#213639;}
	.st28{fill:#D29288;}
	.st29{fill:#DB9481;}
	.st30{fill:#7AC5D1;}
	.st31{fill:#5FAAC1;}
	.st32{fill:#B4E1F0;}
	.st33{fill:#966948;}
	.st34{fill:#845F48;}
	.st35{fill:#B38848;}
	.st36{fill:#FFB077;}
	.st37{fill:#FFD777;}
	.st38{fill:#FFB977;}
	.st39{fill:#22373C;}
	.st40{fill:#CA8A81;}
	.st41{fill:#AC686C;}
</style>
<g id="BACKGROUND">
</g>
<g id="OBJECTS">
	<g>
		<g>
			<path class="st0" d="M262.2,200.5c-5-6.4-6.5-15.5-3.8-23.2c2.6-7.4,8.6-13.1,14.3-18.5c7.2-6.8,14.3-14,19-22.7
				c6.2,10.7,8.6,24.5,4.2,36.1c-0.9,2.4-2.1,4.7-3,7.2c-1.8,4.7-2.5,9.8-2.1,14.8c0,0.5,0.1,1-0.2,1.4c-0.3,0.5-1,0.6-1.5,0.7
				C280.1,197.7,271.2,199,262.2,200.5z"/>
			<path class="st1" d="M291.4,160.4c-0.2-0.1-0.4,0-0.5,0.2c-1.1,2.2-3.8,3.4-5.3,4c1.5-2.4,2.6-4.8,3.3-7.1c0,0,0,0,0,0
				c1.8-5.5,1.7-9.8,1.7-9.8c0-0.2-0.2-0.4-0.4-0.4c-0.2,0-0.4,0.2-0.4,0.4c0,0.1,0.1,3.8-1.4,8.9c-0.5-0.9-1.3-2.5-1.3-5.1
				c0-0.2-0.2-0.4-0.4-0.4s-0.4,0.2-0.4,0.4c0,3.5,1.3,5.5,1.7,6.1c-1.1,3.3-3,6.9-6,10.5c-0.7,0.8-1.3,1.7-1.9,2.6
				c-0.4-1.9-1.3-6.4-0.7-9c0.1-0.2-0.1-0.4-0.3-0.5c-0.2-0.1-0.4,0.1-0.5,0.3c-0.9,3.3,0.6,9.1,0.8,10.1c-2.9,4.7-4.5,10-5.2,14.8
				c-3.7-5.9-3.2-14.7-3.2-14.7c0-0.2-0.2-0.4-0.4-0.4c-0.2,0-0.4,0.2-0.4,0.4c0,0.4-0.5,9.9,3.9,16c-0.6,4.9-0.4,9,0.1,11
				c0.1,0.2,0.2,0.3,0.4,0.3c0,0,0.1,0,0.1,0c0.2-0.1,0.3-0.3,0.3-0.5c-0.9-2.9-0.8-10.2,1.4-17.5c1.1-0.4,5.6-2.2,9.9-6.8
				c0.1-0.2,0.1-0.4,0-0.6c-0.2-0.1-0.4-0.1-0.6,0c-3.6,3.9-7.4,5.7-9,6.4c1.3-4,3.2-8,6-11.2c0.8-0.9,1.5-1.9,2.1-2.8
				c0.8-0.2,5.1-1.6,6.7-4.7C291.6,160.8,291.6,160.5,291.4,160.4z"/>
			<path class="st2" d="M256.1,177.6c5.4-12.4,3.9-19.3,1.7-23.9c-2.1-4.6-2.9-13.6-1.9-18.8c1-5.2,1.2-7.7-2.5-5.6
				c-3.7,2.1-7.3,17-3.9,25.2c3.5,8.2,1.7,17.1-4.1,32.1c-5.8,15.1,5.6,20.9,5.6,20.9l11.2-3.7C255.7,200,250.7,190,256.1,177.6z"/>
			<path class="st1" d="M253.3,203.1c-0.1,0-0.2,0-0.2-0.1c-8-9-3.3-21.7-0.5-29.3c0.5-1.4,0.9-2.5,1.2-3.5
				c2.1-6.8,1.1-10.9-1.7-18.6c-2.7-7.5,0.6-14.3,0.6-14.4c0.1-0.2,0.3-0.2,0.4-0.1c0.2,0.1,0.2,0.3,0.1,0.4c0,0.1-3.2,6.7-0.6,13.9
				c2.8,7.8,3.9,12,1.7,18.9c-0.3,1-0.8,2.2-1.3,3.6c-2.9,8-7.3,20,0.4,28.7c0.1,0.1,0.1,0.3,0,0.4
				C253.5,203,253.4,203.1,253.3,203.1z"/>
			<path class="st3" d="M323.5,192.2l-0.2,6.3c12.7-4.4,28.8-49.9,28.8-49.9C340.9,156.4,323.5,192.2,323.5,192.2z"/>
			<path class="st2" d="M365,151.8c-14.7,14.5-16.8,50-16.8,50l6,12.3C366.8,202.2,365,151.8,365,151.8z"/>
			<path class="st1" d="M353.2,204.3C353.2,204.3,353.2,204.3,353.2,204.3c-0.3,0-0.4-0.2-0.4-0.5c3.6-21.2,8.5-39.4,8.5-39.6
				c0.1-0.2,0.3-0.3,0.5-0.3c0.2,0.1,0.3,0.3,0.3,0.5c0,0.2-4.9,18.4-8.5,39.6C353.6,204.1,353.4,204.3,353.2,204.3z"/>
			<path class="st0" d="M340.6,160.8c-13.4-14.1-17.9-30.6-17.9-30.6S305,179.8,337.5,191C337.5,191,354,174.9,340.6,160.8z"/>
			<path class="st1" d="M337.9,184.8c-0.3-3.2-1.1-6.9-3-10.3c0-0.5-0.5-7.5,1.8-11.2c0.1-0.1,0-0.3-0.1-0.4c-0.1-0.1-0.3,0-0.4,0.1
				c-1.9,3.1-2,8.1-2,10.4c-0.5-0.7-0.9-1.4-1.5-2.1c-2.1-2.6-3.6-5.6-4.7-8.7c0-0.6-0.1-5,1.6-6.9c0.1-0.1,0.1-0.3,0-0.4
				c-0.1-0.1-0.3-0.1-0.4,0c-1.2,1.4-1.6,3.9-1.7,5.6c-2.7-8.3-2.7-16.5-2.7-16.6c0-0.2-0.1-0.3-0.3-0.3c-0.2,0-0.3,0.1-0.3,0.3
				c0,0.1,0,3.2,0.7,7.6c-0.7-1.2-1.9-2.7-3.4-3.4c-0.2-0.1-0.3,0-0.4,0.2c-0.1,0.2,0,0.3,0.1,0.4c2.5,1.2,3.9,4.8,4,4.9
				c0,0,0,0,0,0c0.5,2.7,1.2,5.8,2.3,8.8c0,0,0,0,0,0c0,0,0,0,0,0c0.5,1.3,1,2.5,1.6,3.8c-1.5-1.3-3.8-3.1-6.3-3.2
				c-0.2,0-0.3,0.1-0.3,0.3c0,0.2,0.1,0.3,0.3,0.3c3.7,0.2,7.3,4.5,7.4,4.6c0.7,1.1,1.4,2.2,2.2,3.2c2.8,3.5,4.2,7.4,4.8,11.1
				c-3.1-6-9.4-7.2-9.5-7.2c-0.2,0-0.3,0.1-0.4,0.3c0,0.2,0.1,0.3,0.3,0.4c0.1,0,7.5,1.4,9.9,8.9c0.5,5.5-0.7,9.7-0.7,9.8
				c0,0.2,0.1,0.3,0.2,0.4c0,0,0.1,0,0.1,0c0.1,0,0.3-0.1,0.3-0.2c0-0.1,1.1-4.1,0.7-9.4C338.1,185.4,338,184.9,337.9,184.8z"/>
			<path class="st3" d="M309.1,149.2c0,0-5.2,24.6,6.1,43.6l3.5,0.6C318.6,193.5,318.5,169.2,309.1,149.2z"/>
			<path class="st4" d="M316.7,193.2c-0.1,0-0.2-0.1-0.3-0.2c-4.6-14-6.2-31.9-6.2-32.1c0-0.2,0.1-0.3,0.3-0.3
				c0.2,0,0.3,0.1,0.3,0.3c0,0.2,1.6,18,6.2,31.9C317,192.9,316.9,193.1,316.7,193.2C316.7,193.2,316.7,193.2,316.7,193.2z"/>
			<path class="st2" d="M298.1,189.1c0,0-0.8-11.3,3.8-20.1c0,0,3.6,16.7,2.8,20.1C303.9,192.4,298.1,189.1,298.1,189.1z"/>
			<path class="st4" d="M302,190.9c-0.1,0-0.3-0.1-0.3-0.2c-1.5-5.2-0.6-13.3-0.6-13.7c0-0.2,0.2-0.3,0.3-0.3c0.2,0,0.3,0.2,0.3,0.3
				c0,0.1-1,8.3,0.5,13.4C302.3,190.6,302.3,190.8,302,190.9C302.1,190.9,302,190.9,302,190.9z"/>
			<path class="st3" d="M234.1,122.5c0,0-0.1,13-7.3,22.8c-12.6,17-15.4,41.6,3.5,53.8c0,0,13.3-10.6,13.7-35.3
				C244.3,139.3,234.1,122.5,234.1,122.5z"/>
			<path class="st1" d="M232.6,165.2c0.1,0,0.1,0,0.1-0.1c0.1-0.2,3.6-4.1,4.7-8.3c0.1-0.2-0.1-0.4-0.3-0.5
				c-0.2-0.1-0.4,0.1-0.5,0.3c-0.8,2.8-2.7,5.6-3.8,7c0.6-2.8,1-5.5,1.3-8c0,0,0,0,0,0c0.3-2.4,0.5-4.6,0.6-6.7c3.2-3.5,3-7.5,3-7.7
				c0-0.2-0.2-0.4-0.4-0.4c-0.2,0-0.4,0.2-0.4,0.4c0,0,0.1,3.2-2.2,6.3c0.4-6.8,0.1-11.4,0.1-11.5c0-0.2-0.2-0.4-0.4-0.4
				c-0.2,0-0.4,0.2-0.4,0.4c0,0.1,0.5,7.9-0.6,18.2c-1.2-2.1-3.1-5.5-3.3-6.7c0-0.2-0.2-0.4-0.4-0.3c-0.2,0-0.4,0.2-0.3,0.4
				c0.2,1.7,3.4,6.9,3.9,7.8c-0.5,4-1.3,8.3-2.4,12.6c-0.4,1.6-0.8,3.3-1.1,4.9c-0.7-2.6-2.1-8.5-2.1-12.3c0-0.2-0.2-0.4-0.4-0.4
				c-0.2,0-0.4,0.2-0.4,0.4c0,5.2,2.4,13.5,2.5,13.9c0,0.1,0.1,0.1,0.1,0.1c-0.5,3-0.8,6-1,9c0,0,0,0.1,0,0.1
				c-0.1,1.7-0.1,3.4-0.1,5.1c-4.5-8.5-5.8-18.7-5.8-18.8c0-0.2-0.2-0.4-0.4-0.3c-0.2,0-0.4,0.2-0.3,0.4c0,0.1,1.5,11.6,6.7,20.5
				c0.4,8.6,2.3,17.3,5.7,26.4c0.1,0.2,0.2,0.3,0.4,0.3c0,0,0.1,0,0.1,0c0.2-0.1,0.3-0.3,0.2-0.5c-4.3-11.4-6.1-22.3-5.7-32.9
				c0.8-0.9,5.4-6.5,7.7-11.9c0.1-0.2,0-0.4-0.2-0.5c-0.2-0.1-0.4,0-0.5,0.2c-1.9,4.4-5.3,9-6.9,10.9c0.3-4.8,1.1-9.5,2.3-14.2
				C232.1,167.3,232.4,166.2,232.6,165.2z"/>
			<path class="st0" d="M228.3,223.3c0,0,3.9-20.3,10.8-28.8c0,0-0.4,19.5-4.7,25.2C230.2,225.4,228.3,223.3,228.3,223.3z"/>
			<path class="st0" d="M335.7,196l2.1,2.7c10.1-2.6,17.1-20.2,17.1-20.2C348.6,180.1,335.7,196,335.7,196z"/>
		</g>
		<g>
			
				<ellipse transform="matrix(0.7071 -0.7071 0.7071 0.7071 -114.4914 298.8542)" class="st5" cx="303.5" cy="287.6" rx="100.2" ry="100.2"/>
			<path class="st6" d="M316.5,188.3c0.5,4.4,11,6.5,9.4,11.5c-0.2,0.5-0.5,0.9-0.7,1.3c-1,1.9-0.6,4.1-0.9,6.2
				c-0.3,2.2-1.2,4.3-0.8,6.4c0.3,2.1,2.9,4.1,4.6,2.9c1.1-3.7,5-6.3,8.8-6.1c1,0.1,2.1,0.3,3-0.3c0.6-0.4,0.9-1.1,1.4-1.6
				c1.8-2,4.9-1.1,7.6-1.2c3.1-0.1,6-2.1,7.5-4.8C344.5,195.1,331,190.2,316.5,188.3z"/>
			<path class="st6" d="M289.6,327.2c1.5-2.3,1.3-5.2,1.2-8c0-2.1,0.2-4.2,1.2-6.1c0.9-1.5,1.8-3.8,3.6-4.3c1.2-0.4,2.7,0.4,2.8,1.6
				c0,0.6-0.2,1.1-0.2,1.7c-0.1,2,2.3,3.3,2.5,5.3c0.1,0.9-0.2,2,0.2,2.8c0.2,0.3,0.4,0.5,0.6,0.7c1.1,1.4,0.1,3.1,0.4,4.6
				c0.3,1.5,1.8,1.8,2.6,3.1c0.5,0.8,0.6,1.8,0.9,2.6c0.6,1.5,2,2.5,3.2,3.7c2.5,2.6,4,6.3,3.8,9.9c-5.7,1.8-11.8,2.6-17.8,2.4
				c-1.6-0.1-3.2-0.2-4.8,0.1c-1.6,0.3-3.1,1.1-4.7,1.1c-6.4,0.1-4.7-7.1-3.5-10.7C283.2,332.9,287,331.2,289.6,327.2z"/>
			<g>
				<path class="st0" d="M241.6,268.6c0.1,0.3,0.4,0.6,0.7,0.5c0.1,0,0.1-0.1,0.2-0.2c0.8-0.8,1.8-1.4,2.9-1.7
					c0.4-0.1,0.8-0.2,1.2-0.1c0.6,0.2,0.8,0.9,1.4,1.2c0.6,0.3,1.3,0.2,1.9,0c0.2,0,0.5-0.1,0.7,0c0.5,0.2,0.7,0.8,1.1,1
					c0.6,0.3,1.3-0.2,1.8-0.7c0.1-0.1,0.2-0.2,0.2-0.4c0-0.1-0.1-0.2-0.1-0.2c-0.8-0.8-2-1.1-3.1-1.2s-2.3-0.2-3.3-0.8
					c-0.6-0.4-1.1-0.9-1.8-1.1c-0.8-0.3-1.8-0.2-2.2-0.8c-0.5-0.8-1-0.6-1.9-0.5c-0.5,0.1-1.2,0.2-1.6,0.5c-0.4,0.3-0.6,0.7-0.4,1.2
					c0.3,0.8,0.9,0.7,1.5,0.9c0.6,0.2,1,0.9,0.9,1.5C241.6,267.9,241.5,268.2,241.6,268.6z"/>
				<path class="st0" d="M269.6,216c-0.2,0.1-0.4,0.2-0.5,0.4c-0.1,0.2-0.2,0.4,0,0.6c0.2,0.2,0.5,0.1,0.8,0.1
					c0.4,0.1,0.5,0.7,0.8,1c0.2,0.2,0.5,0.3,0.7,0.5c0.4,0.4,0.5,1.3,1.2,0.8c0.3-0.2,0.3-0.5,0.5-0.8c0.2-0.4,0.6-0.8,1-1
					c0.2-0.1,0.4-0.3,0.6-0.5c0.2-0.3,0.2-0.7,0.3-1.1c0.1-0.7,0.5-1.2,1.1-1.6c0.1-0.1,0.2-0.1,0.3-0.2c0.1-0.1,0.2-0.2,0.2-0.4
					c0.3-0.9-0.3-1.8-1-2.4c-0.7-0.6-1.5-1.2-1.9-2c-0.1-0.1-0.1-0.3-0.2-0.4c-0.1-0.1-0.3-0.2-0.4-0.3c-0.4-0.2-0.9-0.2-1.4-0.1
					c-0.4,0.1-0.7,0.3-1.1,0.2c-0.7-0.1-1.1-0.8-1.8-1.1c-0.7-0.3-1.4-0.1-2.1,0c-0.4,0.1-1,0.1-1.4,0.4c-0.5,0.4-0.2,1-0.3,1.5
					c0,0.3-0.3,0.6,0,0.8c0.2,0.2,0.6,0.1,0.9,0c0.4-0.1,0.7-0.4,1-0.6c0.9-0.4,2-0.1,2.9,0.4c0.6,0.3,1.4,0.9,0.9,1.6
					c-0.2,0.3-0.7,0.5-0.6,0.9c0,0.4,0.4,0.6,0.4,1C270.4,214.7,270.4,215.5,269.6,216z"/>
				<path class="st0" d="M234,277.6c0.2,0.3,0.3,0.6,0.5,0.9c0.4,0.7,1.1,1.3,1.8,1.7c1.5,0.9,3.2,1.9,4.9,2.2
					c0.6,1.1,0.3,2.5-0.1,3.8c-0.2,0.8-0.5,1.6-0.7,2.3c-0.2,0.7-0.4,1.3-0.7,2c-0.3,0.5-0.6,1-0.9,1.6c-1.2,2.3-1,5.2,0.6,7.3
					c1.1,1.5,2.8,2.5,3.7,4.1c0.5,0.9,0.6,1.9,1,2.8c0.8,1.9,3.4,2.7,4.3,4.6c0.6,1.4,2.2,2.1,2.9,3.5c0.3,0.6,0.4,1.3,0.4,1.9
					c0.3,3.8,0,7.6-0.9,11.3c-0.2,0.7-0.4,1.4-0.2,2.2c0.1,0.5,0.3,0.9,0.5,1.4c1,2.3,0.8,5,2,7.2c0.5,0.9,1.2,1.6,1.5,2.5
					c0.5,1.2,0.5,2.5,0.9,3.7c0.9,2,3.1,3.2,3.9,5.3c0.2,0.6,0.3,1.2,0.6,1.8c0.2,0.6,0.7,1.1,1.3,1.2c0.6,0.1,1.3-0.3,1.6-0.8
					c0.4-0.5,0.5-1.2,0.6-1.8c0.4-2.1,0.9-4.2,0.7-6.4c-0.1-1.2-0.4-2.4-0.1-3.5c0.5-1.7,2.1-2.7,3.6-3.6c1.5-0.9,3.1-2.2,3.1-3.9
					c0-0.6-0.1-1.1,0-1.7c0.2-1.2,1.4-1.9,2.4-2.6c2.8-1.9,4.6-4.9,5.4-8.2c0.3-1.2,1.1-2.2,2.1-2.8c0.5-0.3,1.2-0.5,1.7-0.8
					c1.9-1.2,2.6-3.6,2.9-5.8c0.3-2.2,0.4-4.6,1.7-6.4c1.1-1.5,3-2.6,3.2-4.5c0.1-0.9-0.3-1.8-0.9-2.4c-0.4-0.3-0.9-0.6-1.3-0.8
					c-1.4-0.7-2.7-1.3-4.1-2c-0.6-0.3-1.2-0.6-1.8-0.6c-0.3,0-0.5,0-0.8,0c-0.3,0-0.6-0.2-0.9-0.3c-2.1-0.8-3.9-1.9-6.1-2.3
					c-1.4-0.2-2.7-1.3-3.1-2.7c-0.2-0.6-0.3-1.3-0.6-1.9c-0.3-0.7-1-1.3-1.6-1.8c-2.3-1.9-4.7-3.8-7.6-4.4c-1.2-0.3-2.5-0.3-3.7-0.8
					c-1.1-0.5-2-1.4-3-2.1c-1-0.8-2.2-1.5-3.5-1.5c-0.8,0-1.5,0-2.3,0c-0.2,0-0.5,0-0.6,0.1c-0.2,0.2-0.2,0.5-0.3,0.8
					c-0.2,0.4-0.6,0.7-1.1,0.9c-2,1-6.5,2.7-8,0.2c-0.3-0.5-0.5-1-0.9-1.5c-0.5-0.5-1.3-0.8-1.6-1.5c-0.4-0.8-0.3-1.7-0.5-2.5
					c-0.6-1.7-3.7-1.9-3.8-3.8c0-0.4,0.1-0.8,0-1.2c-0.2-0.6-1-0.7-1.5-0.5c-0.6,0.2-1,0.6-1.6,0.8c-1.7,0.6-3.4-0.6-4.4-2.1
					c-0.4-0.6-0.8-1.2-0.9-1.8c-0.1-0.7,0-1.3,0.1-2c0.3-2.1,0.8-4.4,2.7-5.5c2.2-1.3,5,0.1,7.5,0c1.1,0,2.2-0.4,3.4-0.4
					c1.1,0,2.4,0.3,3,1.3c0.3,0.5,0.4,1.2,0.7,1.7c0.3,0.5,1.1,0.9,1.6,0.5c0-1.7-0.1-3.3-0.1-5c0-0.4,0-0.7,0.1-1
					c0.2-0.5,0.7-0.7,1.1-1c2.1-1.1,4.3-2.3,5.2-4.5c0.4-0.9,0.5-2,1-2.8c0.7-1.1,2.1-1.7,3.3-2.3c1.8-0.9,3.6-1.6,5.1-3
					c1.4,0,2.5-1,3.5-2c0.7-0.7,1.4-1.4,2.1-2.1c0.4-0.4,0.9-0.9,1-1.5c0.1-0.4,0.1-0.8,0.2-1.1c0.3-1,1.5-1.5,2.6-1.6
					c1.1,0,2.2,0.2,3.2,0c0.8-0.1,1.5-0.5,2.3-0.3c0.7,0.2,1.5,0.9,2.2,0.5c0.4-0.2,0.5-0.8,0.6-1.3c0.2-1.6,0.3-3.4-0.9-4.4
					c-0.4-0.3-0.9-0.6-1.2-1c-0.3-0.3-0.3-0.8-0.6-1.2c-1-1.7-4.3-1-4.8-2.9c-0.1-0.4,0-0.7-0.2-1.1c-0.2-0.6-0.9-1-1.5-1.1
					c-0.6-0.1-1.3,0.1-1.9,0.3c-0.9,0.3-1.8,0.6-2.3,1.4c-0.4,0.7-0.3,1.7-0.8,2.5c-0.8,1.2-2.7,1.1-3.5,2.2
					c-0.6,0.7-0.6,1.7-0.9,2.5c-0.6,1.4-2.3,2.1-3.7,1.6c-0.4-0.2-0.9-0.4-1.2-0.7c-1.4-1-2.4-2.4-3.5-3.7c-0.5-0.6-0.9-1.2-1.4-1.8
					c-0.1-0.1-0.2-0.3-0.3-0.4c0-0.2,0-0.3,0-0.5c0.3-1.3,1.3-2.3,2.3-3.1c1.1-0.8,2.3-1.4,3.2-2.4c0.4-0.4,0.8-0.8,1.2-1.1
					c1.3-0.7,2.9,0.1,4.2-0.5c0.8-0.4,1.4-1.3,2.3-1.4c0.6-0.1,1.3,0.1,1.7-0.3c0.2-0.2,0.3-0.5,0.4-0.8c0.2-0.8,0.3-1.9-0.5-2.2
					c-0.3-0.1-0.7,0-1,0.1c-1.4,0.3-3.1,0.4-4.3-0.2c-1.1-0.5-2.3,0.5-3.5,0.6c-0.7,0-1.3-0.3-2-0.3c-1.8-0.1-3.5,1.8-5.2,1.3
					c-0.7-0.2-1.2-0.8-1.9-1.1c-1.6-0.8-3.6,0.4-5.3-0.1c-13.7,11.6-24.3,26.9-30.2,44.3c0.6,0.8,1.3,1.5,1.9,2.3
					c2.3,3.2,2.6,7.5,5.4,10.3c1.1,1.1,2.2,2.2,3.3,3.2c0.3,0.3,0.6,0.5,1,0.7c1.3,0.7,2.8,0.1,4.3,0.1c2.3-0.1,4.8,1.1,5.9,3.1
					c0.9,0.4,1.8,0.9,2.6,1.5C233.4,277,233.7,277.2,234,277.6z"/>
				<path class="st7" d="M252.4,283.9c0,0,0.1,0,0.1,0c1.2,0.5,2.1,1.5,3.3,2c1.3,0.6,2.8,0.3,4.2,0.9c1,0.5,1.8,1.4,2.5,2.3
					c2.9,3.3,6.7,5.8,10.9,7.4c1.8,0.7,3.9,1.6,4.3,3.4c0.1,0.6,0,1.3,0.2,2c0.2,1,0.9,1.8,1.3,2.7c0.8,1.7,0.5,3.8-0.6,5.3
					c-0.9,1.2-2.2,2-2.8,3.3c-1.1,2.5,0.6,5.9-1.3,7.9c-0.5,0.5-1.3,0.8-2,1.2c-2.9,1.3-5.4,3.4-7.3,6c-0.7,1-1.6,2.2-2.8,2
					c-0.5-0.1-0.9-0.4-1.2-0.6c-1.9-1.4-4-3.2-3.7-5.5c0.1-0.6,0.3-1.3,0.2-1.9c-0.2-0.9-1-1.5-1.3-2.4c-0.3-0.9,0.1-1.8,0.2-2.7
					c0.1-2.6-2.6-4.6-3-7.1c-0.1-0.8,0-1.6-0.2-2.4c-0.6-2.7-3.1-3.6-4.8-5.3c-0.9-0.9-1.2-2.2-2.2-2.9c-0.7-0.5-1.5-0.7-2-1.4
					c-0.7-1.2,0.3-2.7,0.2-4.1c0-0.4-0.2-0.8-0.2-1.2c0-1,0.9-1.8,1.4-2.8c0.6-1.3,0.3-2.7,0.3-4c0-1.4,1.1-2.7,0.8-4
					c0.6-0.3,1.2-0.4,1.8-0.3c0.2,0.8,0.9,1.4,1.7,1.7C250.9,283.5,251.7,283.6,252.4,283.9z"/>
				<path class="st7" d="M257,335.7c0.2,0.6-0.1,1.1-0.2,1.7c-0.2,1.2,0.6,2.4,1.3,3.4c0.2,0.3,0.6,0.2,0.8,0
					c0.2-0.2,0.3-0.6,0.5-0.8c0.2-0.2,0.4-0.4,0.7-0.5c0.5-0.3,1.1-0.5,1.5-1c0.4-0.4,0.6-1.1,0.3-1.6c-0.3-0.5-0.8-0.7-1.1-1.1
					c-0.3-0.4-0.3-0.8-0.4-1.3c-0.3-1.2-1.6-3-3-2.5C255.7,332.6,256.6,334.6,257,335.7z"/>
				<path class="st7" d="M226.2,253.6c0.8,0.3,1.6,0.5,2.4,0.4c1.4-0.2,2.5-1.5,3.9-1.8c1-0.2,2.1,0.2,3.1,0.4c1,0.2,2.2,0.3,3-0.4
					c0.6-0.6,0.9-1.5,1.6-1.9c0.6-0.3,1.4-0.2,2-0.5c0.8-0.3,1.3-1.1,1.6-1.9c0.8-1.8,1.1-3.8,2.5-5.1c0.8-0.8,1.9-1.3,2.5-2.3
					c0.3-0.5,0.4-1.1,0.8-1.6c1.3-1.5,4-0.4,5.4-1.8c0.7-0.8,0.7-2.1,1.5-2.8c0.8-0.8,2.2-0.7,2.9-1.6c0.5-0.6,0.4-1.6-0.2-2.1
					c-0.7-0.6-1.8-0.5-2.6-0.1c-0.8,0.4-1.5,1-2.4,1.4c-2.5,1.2-5.5,0.1-8.1-1.1c-0.6-0.3-1.3-0.6-1.6-1.3c-0.3-0.7,0-1.7-0.4-2.4
					c-0.2-0.4-0.5-0.7-0.8-1c-1.4-1.6-1.1-4.3,0.5-5.6c0.3-0.3,0.7-0.5,0.9-0.9c0.1-0.3,0-0.5,0-0.8c0-0.6,0.5-1.2,1-1.6
					c1.1-1.1,2.5-2,4-2.5c-1.5-0.5-3.1-1-4.6-0.6c-2.8,0.9-5.9-0.6-8.9-1c-6.8,6.1-12.7,13.2-17.6,21c0,0.2,0,0.4,0,0.6
					c-0.1,0.4-0.3,0.8-0.5,1.1c-0.6,1-1.4,1.8-2.2,2.7c-0.7,1.3-1.4,2.6-2.1,3.9c-0.1,1.2,0.3,2.5,0.9,3.5
					C217.2,250.1,221.8,252.1,226.2,253.6z"/>
				<path class="st0" d="M367.3,214.7c-1.3,0.5-2.7-0.4-3.9-1.2c-0.4-0.2-0.7-0.5-1.2-0.6c-0.6-0.2-1.3,0-2,0
					c-1.8,0-3.3-1.2-4.9-1.7c-2.3-0.7-4.7-0.3-7.1,0.1c-1.4,0.2-2.9,0.5-4,1.4c-1,0.8-1.7,2-2.9,2.5c-0.7,0.3-1.4,0.4-2.1,0.5
					c-2,0.4-3.8,1.5-5.1,3.2c-0.4,0.6-0.8,1.5-0.2,1.9c0.5,0.5,1.4,0,2.1,0.2c0.4,0.1,0.7,0.5,1.1,0.8c1.3,1.3,3.1,1.9,4.9,1.7
					c1.1-0.1,2.5-0.9,2.3-2.1c0-0.2-0.1-0.5-0.1-0.7c0.1-0.9,1.4-0.8,2.2-0.4c0.9,0.4,1.9,0.9,2.8,1.3c-0.6,0.9-1.1,1.9-1.7,2.8
					c-0.4,0.6-0.8,1.3-1.5,1.7c-1,0.6-2.2,0.3-3.4,0.2c-2.4-0.3-4.9,0.3-6.9,1.5c-1.1,0.6-2.1,1.5-3.4,1.5c-1.3,0-2.8-1.1-3.9-0.3
					c-0.4,0.3-0.7,0.7-0.9,1.2c-0.7,1.2-1.3,2.5-2,3.7c-0.2,0.3-0.4,0.7-0.3,1.1c0.1,0.3,0.3,0.6,0.4,0.8c0.3,0.8-0.3,1.7-1,2.2
					c-0.7,0.5-1.6,0.7-2.3,1.2c-1.5,1-2.1,3-2.5,4.8c-0.1,0.4-0.2,0.8,0,1.1c0.1,0.3,0.4,0.5,0.7,0.7c1.5,0.9,3.5,0.5,4.6-0.8
					c0.5-0.5,0.8-1.2,1.3-1.7c1-0.9,2.6-0.6,3.9-1.1c1.6-0.6,2.6-2.1,4-2.9c1.3-0.7,2.8-0.7,4.3-0.7c1.4,0,2.8,0,4.2,0
					c0.9,0,1.9,0.1,2.4,0.8c0.3,0.4,0.3,0.9,0.5,1.3c0.5,1.1,1.7,1.6,2.8,2c1.7,0.6,3.9,1.2,5.3,0c1-0.8,1.3-2.3,1.4-3.6
					c0.1-0.5,0.1-1,0.4-1.4c0.3-0.5,0.9-0.8,1.5-1c1.9-0.5,3.8,0.2,5.6,1c1.4,0.6,2.9,1.1,4.3,1.7c0.8,0.3,1.8,1,1.5,1.8
					c-0.2,0.7-1.1,0.8-1.9,0.9c-2.5,0.1-5,0.7-7.3,1.6c-0.3,0.1-0.7,0.3-0.9,0.5c-0.5,0.6-0.2,1.4,0.1,2.1c1.4,0.1,2.8,0.4,3.9,1.2
					c1.1,0.8,1.8,2.4,1.3,3.7c-0.5,1.3-2.1,2-3.5,2c-1.4,0-2.8-0.5-4.1-0.9c-1.4-0.4-2.9-0.6-4.2-0.1c-0.6,0.2-1.1,0.6-1.6,0.9
					c-1.9,0.9-4.2,0.1-6.1-0.9c-1.9-1-3.7-2.3-5.8-2.5c-1.7-0.2-3.4,0.3-5.1,0.3c-1.6,0-3.2-0.6-4.8-0.6c-1.6-0.1-3.5,0.6-4.1,2.1
					c-0.2,0.7-1.2,0.3-1.9,0.4c-1.9,0.3-2.8,2.3-4.1,3.8c-1.4,1.6-3.5,2.6-4.5,4.4c-1,1.7-0.9,3.9-1.7,5.8c-0.6,1.5-1.7,2.8-2,4.3
					c-0.2,1.1-0.1,2.2,0.1,3.3c0.2,1.6,0.5,3.4,1.6,4.6c0.6,0.6,1.4,1,2.1,1.5c1.5,1,2.9,2.3,4,3.7c0.4,0.5,0.8,1.1,1.4,1.4
					c0.5,0.2,1.1,0.2,1.6,0.2c1.7-0.1,3.4-0.3,5-0.8c1-0.2,2-0.6,3.1-0.6c1.5-0.1,3,0.2,4.4,0.6c0.7,0.2,1.4,0.4,1.9,0.9
					c1.1,1.3-0.2,3.5,0.7,5.1c0.5,1,1.8,1.4,2.2,2.5c0.2,0.5,0.1,1,0.2,1.5c0.2,1.4,1.2,2.6,1.9,3.8c1.1,1.8,1.6,3.9,1.6,6
					c-0.7,1-0.7,2.1-0.5,3.3c0.2,1.2,0.6,2.4,0.6,3.6c0.1,1.5-0.4,3,0,4.5c0.4,1.6,1.7,2.7,2.5,4.2c1.2,2.3,0.8,5.1,2.3,7.2
					c0.7,1,1.8,1.7,2.2,2.8c0.3,0.7,0.2,1.5,0.8,2.1c0.3,0.3,0.7,0.5,1.2,0.6c2.5,0.5,5.3-0.7,6.5-2.9c0.3-0.6,0.6-1.2,1-1.8
					c0.6-1,1.7-1.6,2.5-2.4c1-1,1.6-2.2,2.6-3.2c0.9-0.8,2-1.4,2.6-2.5c0.9-1.6,0.3-3.6,0.5-5.4c0.3-4.1,4.5-7.2,4.6-11.3
					c0-0.8,0-1.7-0.3-2.4c-0.3-0.8-0.7-1.2-0.5-2.2c0.1-0.7,0.4-1.4,0.5-2.1c0.1-0.5,0-1.1,0.3-1.6c0.1-0.3,0.3-0.5,0.6-0.7
					c2.1-2.1,4.9-3.7,6-6.4c0.5-1.3,1.6-2.4,2.5-3.5c1-1.4,1.7-3,1.9-4.8c0-0.3,0.1-0.6-0.1-0.8c-0.2-0.2-0.6-0.2-0.9-0.2
					c-1.7,0.3-3.3,1.5-5.1,1.3c-1.6-0.3-2.7-1.8-3.3-3.4c-0.2-0.4-0.3-0.9-0.6-1.2c-0.3-0.4-0.7-0.6-1.1-0.9c-2-1.3-4-3-4.6-5.4
					c-0.3-1.5-0.6-3.1-1.2-4.5c-0.6-1.6-1.2-3.3-1.9-4.9c0.2-0.3,0.7-0.4,1.1-0.2c0.4,0.2,0.6,0.5,0.9,0.8c1.1,1.3,2.3,2.7,3.4,4
					c0.3,0.4,0.6,0.7,0.8,1.1c0.5,1,0.2,2.3,0.7,3.3c0.7,1.7,2.9,2.4,3.6,4c0.3,0.6,0.3,1.2,0.7,1.7c0.3,0.4,0.7,0.6,1.2,0.8
					c2,0.8,4.5,0.8,6.1-0.6c0.6-0.5,1.1-1.2,1.8-1.6c0.6-0.3,1.2-0.5,1.8-0.7c1.1-0.5,1.9-1.4,2.7-2.3c0.8-0.9,1.7-2,1.7-3.3
					c0-1.2-0.9-2.3-1.7-3.2c-1.5,0-3,0-4.4-0.1c-0.2,0-0.4,0-0.6-0.1c-0.3-0.2-0.4-0.5-0.6-0.8c-0.5-0.9-1.3-1.6-2.1-2.4
					c-0.7-0.8-1.4-1.7-1.3-2.8c1-0.2,1.7,0.8,2.7,1.2c1,0.4,2,0,3,0.2c1.5,0.3,2.6,1.6,4,2.1c0.5,0.2,1.1,0.3,1.7,0.3
					c1.6,0.2,3.1,0.4,4.7,0.6c1.5,0.2,3,0.4,4.4-0.1c0.3-0.1,0.5-0.2,0.7-0.3c-5.2-18.8-15.8-35.3-30-47.9c-0.5,0.3-1,0.6-1.4,1
					C368.2,214.1,367.8,214.5,367.3,214.7z"/>
				<path class="st7" d="M357.3,215.2c-0.7,0.1-1.4,0.4-2.1,0.4c-1,0-2.1-0.3-2.7,0.4c-0.8,1,0.3,2.4,0.1,3.7
					c-0.1,0.5-0.4,1-0.7,1.5c-0.8,1.7-0.1,4.1-1.5,5.4c-1.2,1.1-3.3,0.6-4.7,1.5c-0.6,0.4-1,1.1-1.6,1.5c-1.6,1.2-3.9,0.7-5.8,1.3
					c-0.9,0.3-1.8,1.1-1.6,2c0.2,0.7,1.1,1,1.9,0.9c0.7-0.1,1.4-0.5,2.2-0.7c1.8-0.5,3.7,0.4,5.4,1.2c1.7,0.8,3.7,1.5,5.4,0.7
					c0.6-0.3,1.1-0.8,1.7-1.1c1.4-0.8,3-0.9,4.6-1c1.1,0,2.3,0,3.4,0.3c1.1,0.3,2.1,1,3.2,1.6c3.2,1.7,6.9,2.3,10.5,2.8
					c1.4-2.8,0.5-6.4-1.7-8.7c-1-1.1-2.3-2-2.9-3.3c-0.3-0.7-0.4-1.4-0.6-2.1C368.4,218.2,362.8,214.3,357.3,215.2z"/>
				<path class="st7" d="M341.5,255.9c-2.1,0.2-4.2-0.9-6.2-1.5c-2.7-0.8-5.6-0.8-8.2,0.1c-0.9,0.3-1.8,0.7-2.5,1.3
					c-0.7,0.6-1.2,1.5-1.8,2.3c-1.5,1.9-3.8,3.6-3.6,5.9c0.1,1,0.7,2,0.5,3c-0.2,0.8-0.9,1.3-1.3,2c-1.3,2-0.3,4.7,0.8,6.9
					c0.2,0.4,0.5,0.9,0.9,1.2c0.5,0.4,1.2,0.4,1.8,0.4c4.5,0,9,0.8,13.4,1.5c1.4,0.2,3.2,0.7,3.5,2.2c0.1,0.4,0,0.9,0.1,1.3
					c0.2,2.7,3.8,4.1,4.4,6.7c0.2,0.9,0.1,1.9,0.2,2.8c0.3,2.6,2.3,5,3.3,7.4c1.1,2.7,0.4,5.9,1.5,8.6c0.7,1.6,2,3.1,1.7,4.8
					c-0.1,0.7-0.5,1.2-0.6,1.9c-0.1,1.1,0.7,1.7,1,2.6c0.2,0.7,0.1,1.5,0.3,2.2c0.3,1.4,1.1,2.8,2.6,3.1c1.6,0.4,3.1-0.7,4.3-1.6
					c1.3-1,2.6-2.1,3-3.7c0.2-1.1,0-2.2,0-3.3c0.1-3.1,2.7-5.7,3.3-8.7c0.2-1.1,0.2-2.3,0.2-3.4c0.2-4,1.7-7.9,4.2-11.1
					c0.9-1.1,1.9-2.1,2.5-3.3c0.7-1.2,0.9-2.7,0.3-4c-0.4-0.7-1-1.2-1.4-1.8c-0.9-1-1.4-2.3-1.9-3.6c-1.9-4.4-4.2-8.6-6.9-12.6
					c-0.5-0.7-1-1.5-1-2.3c-0.1-2.3,1.1-3.8-1.9-4.6c-1.8-0.5-3.8-0.1-5.6-0.3c-1.5-0.2-2.9-0.7-4.3-1.4
					C345.5,255.8,344.3,255.6,341.5,255.9z"/>
				<path class="st0" d="M375.9,320.3c0.5-0.3,1.1-0.8,1.1-1.4c0-0.2,0-0.4,0-0.5c0.1-0.3,0.3-0.4,0.5-0.6c0.4-0.4,0.8-0.7,1.2-1.1
					c0.5-0.5,1.1-1,1.2-1.7c0-0.3,0-0.7,0-1c0-1,0.3-2,1-2.7c0.3-0.3,0.7-0.7,0.8-1.1c0.3-0.8-0.2-1.5-0.4-2.3
					c-0.1-0.5,0.3-1.6-0.2-1.9c-1-0.6-3.1,1.4-3.3,2.2c-0.1,0.2-0.1,0.5-0.2,0.7c-0.1,0.1-0.2,0.2-0.3,0.3c-0.7,0.4-1.5,0.7-1.9,1.4
					c-0.4,0.8,0.1,1.7,0.1,2.6c0,0.9-0.3,1.7-0.7,2.5c-0.5,1.1-1,2.2-1.5,3.3c-0.1,0.1-0.1,0.3-0.1,0.5c0,0.2,0.1,0.3,0.3,0.4
					c0.5,0.4,1,0.9,1.6,0.8C375.4,320.6,375.6,320.5,375.9,320.3z"/>
				<path class="st0" d="M312.1,218.1c0.3,0,0.6-0.3,0.9-0.5c0.8-0.5,6.3-0.2,4.1-2.5c-0.6-0.6-1.9-0.6-2.6-0.6
					c-1.6,0.1-2,0.9-3.1,1.9c-0.2,0.2-0.4,0.3-0.5,0.4c-0.1,0.2-0.2,0.4-0.1,0.6c0.1,0.1,0.1,0.2,0.2,0.2
					C311.3,217.9,311.7,218.1,312.1,218.1z"/>
				<path class="st0" d="M307.7,213.3c2.2-0.7,2.7-3.5,4.4-5c0.9-0.8,2.2-1.2,2.7-2.2c0.4-0.8,0.2-1.7,0.7-2.5
					c0.5-0.8,1.6-1.2,2.2-1.9c0.1-0.2,0.2-0.4,0.2-0.6c-0.1-0.2-0.2-0.3-0.4-0.4c-0.9-0.5-1.8-1-2.7-1.5c-0.5-0.3-1.1-0.6-1.7-0.7
					c-1-0.2-2,0.1-2.9,0.3c-1.9,0.3-3.8-0.1-5.7,0c-3.3,0.2-6.5,2.1-9.9,1.7c-1.5-0.2-3-0.8-4.4-0.6c-1.4,0.2-2.7,1-4,0.6
					c-0.7-0.2-1.2-0.8-1.9-1c-0.4-0.1-0.9-0.1-1.3-0.1c-1.3,0.1-2.7,0.1-4,0.2c-1.1,0-2.2,0.1-3.2,0.7c-1.3,0.8-2.6,1.8-3.7,2.9
					c-0.1,0.1-0.3,0.3-0.3,0.5c-0.1,0.2-0.1,0.4-0.1,0.5c0,0.8-0.1,1.2,0.7,1.3c0.6,0,1.4-0.4,1.9-0.6c1.1-0.5,2.4-1.3,3.6-0.6
					c0.5,0.3,0.9,0.8,1.3,1.1c1.1,0.7,2.5,0.4,3.7,0.1c1.3-0.3,2.8-0.4,3.6,0.5c0.4,0.4,0.6,1,1,1.4c0.6,0.7,1.7,1,2.2,1.8
					c0.6,1,0.1,2.2,0.2,3.4c0.1,0.6,0.3,1.1,0.3,1.7c-0.1,1.3-1.5,2.3-1.7,3.6c-0.1,0.9,0.5,1.8,1.3,2.1c0.5,0.2,1,0.1,1.4-0.2
					c0.5-0.4,0.5-1.2,0.9-1.9c0.4-0.8,1.3-1.2,2.2-1.4c0.8-0.2,1.6-0.9,2.4-1c0.5-0.1,0.9,0.2,1.4,0.3c0.9,0.2,1.8-0.1,2.5-0.6
					c0.5-0.4,0.8-1,1.3-1.3C303.6,212.5,305.9,213.8,307.7,213.3z"/>
			</g>
			<path class="st7" d="M267.3,226.1c0.8,0.4,1.8,0,2.6,0.3c0.6,0.3,1,0.9,1.2,1.5c0.1,0.1,0.1,0.3,0.1,0.4c0,0.1-0.2,0.2-0.3,0.2
				c-0.8,0.2-1.6,0.2-2.4,0c-0.2-0.1-0.4-0.1-0.6,0c-0.2,0.1-0.3,0.3-0.3,0.5c-0.4,0.8-1.3,1.1-2.1,1.1c-0.8,0-1.7-0.3-2.5-0.6
				c-0.6-0.2-1.3-0.6-1.2-1.2c0-0.3,0.3-0.6,0.4-1c0.4-1.2,0.2-2.8,1.8-3.3C265.6,223.6,266.1,225.5,267.3,226.1z"/>
			<path class="st7" d="M295.2,202.8c0.5,0.2,1,0.4,1.5,0.6c1.5,0.4,3-0.7,4.5-0.8c1.1-0.1,2.1,0.3,3.2,0.3c1.4,0,2.8-0.7,4.3-0.7
				c0.4,0,0.8,0.1,1.1,0.3c0.3,0.3,0.4,0.8,0.1,1.1c-0.2,0.2-0.6,0.2-0.9,0.4c-0.9,0.5-0.3,1.8-0.7,2.7c-0.3,0.8-1.2,1.1-2,1.1
				c-0.8,0.1-1.7,0-2.4,0.3c-0.8,0.4-1.4,1.2-2.2,1.7c-1.1,0.6-2.4,0.5-3.6,0.4c-0.3,0-0.7-0.1-1-0.2c-0.3-0.2-0.5-0.5-0.7-0.9
				c-1.3-1.9-3.7-2.2-5.4-3.6C288.2,203,293.5,202.3,295.2,202.8z"/>
			<path class="st6" d="M286.1,225.3c-2.7,0.4-3.6,3.9-3.6,6.7c0.1,2.8,0.2,6.1-2.1,7.7c-1.9,1.3-4.7,0.7-6.6,2
				c-1,0.7-1.6,1.7-2.5,2.6c-2,2.2-5.1,3.1-7.7,4.4s-5.2,3.8-5,6.8c0.1,1.6,1.1,3,1.6,4.6c0.6,2.2,0.2,4.6,0.5,6.9
				c0.5,3.3,2.7,6.3,5.7,7.6c2,0.9,4.3,1.1,6.1,2.3c2.1,1.3,3.4,3.7,5.2,5.5c1.8,1.8,4.8,2.9,6.8,1.3c0.6-0.5,1-1.1,1.6-1.4
				c0.8-0.4,1.7-0.1,2.6,0.2c3.3,1,6.7,1.6,10.2,1.7c1.8,0.1,3.8-0.1,5.2-1.2c1.7-1.3,2.2-3.6,2-5.7c-0.2-2.1-0.9-4.1-1.2-6.2
				c-0.7-4.3,0.6-9,3.8-12c1-0.9,2.2-1.7,3-2.8c3.2-4.3-0.6-10.9,1.6-15.8c0.7-1.5,1.9-2.7,2.7-4.1c1.9-3,3.9-11.5,0.7-14
				c-2.2-1.7-7.8-2.9-10.6-3.3c-3.5-0.4-6.3,1.1-9,3.3c-1.7,1.5-3.1,3.9-5.6,4.1C289.9,226.7,288.2,225,286.1,225.3z"/>
			<path class="st8" d="M289,242.3c-3.5,0.8-6.6,3.3-8.2,6.6c-0.7,1.4-1.1,2.9-2.3,3.9c-0.6,0.5-1.4,0.9-2,1.5
				c-1.3,1.5-0.3,3.9,1.3,5.2c1.6,1.2,3.5,1.8,5,3.1c0.9,0.8,1.6,1.8,2.5,2.7c2.1,2.1,5.8,3.2,8,1.3c3.3-2.8,0.6-8.9,3.4-12.3
				c1-1.3,2.7-1.9,3.7-3.2c2-2.7,0.3-6.4,1-9.5c0.6-2.6,2.6-4.2-0.2-6.3c-1.7-1.3-3.9-1.5-5.4,0.1c-1.1,1.2-0.9,3.3-2,4.6
				C292.6,241.6,291,241.8,289,242.3z"/>
			<path class="st6" d="M328.4,296.1c1,0.8,2.1,1.6,2.6,2.8c0.6,1.2,0.5,2.7,0.8,4c0.6,2.6,2.5,4.7,3.4,7.2
				c1.4,3.9,0.2,8.5,2.1,12.2c1.8,3.4,6,5.5,6.4,9.2c-2.2,1-4.8,0.2-6.9-1c-2.1-1.2-3.9-2.9-6.2-3.8c-2.2-0.8-4.6-0.9-6.6-2.2
				c-3.2-2-3.8-6.3-5.9-9.5c-2.2-3.3-5.9-5.3-9.4-7.2c-0.8-0.4-1.6-0.9-1.9-1.7c-0.3-0.7-0.2-1.4-0.2-2.1c0.1-1.9,0.1-4-1.1-5.6
				c-0.8-1.1-2.1-1.9-3-2.9c-0.9-1.1-1.2-2.9-0.1-3.8c1.5-1.1,3.5,0.7,5.3,1c2.9,0.5,6.2-1.6,9.3-1.4
				C321.7,291.7,324.8,293.3,328.4,296.1z"/>
		</g>
		<g>
			<g>
				<path class="st9" d="M145,218.8c0,0-7.6,10.3-11.3,11.5c-3.7,1.2-48.1,6.8-48.1,6.8l-3.2-13.4c0,0,39.5-4.6,40.9-5.1
					c1.4-0.4,11.4-15.8,11.4-15.8L145,218.8z"/>
				<path class="st10" d="M134.7,202.8c0,0-2.2,3.3-4.6,6.9c2.3,3.4,6.9,10.6,8.6,16.5c3.2-3.3,6.3-7.5,6.3-7.5L134.7,202.8z"/>
			</g>
			<g>
				<path class="st11" d="M222.5,250.1c0,0,4.1,7.1,3.9,35.6c-0.2,28.5,8.6,67.2,8.6,67.2h-67c0,0-3.5-36.4-3.7-51.4
					c-0.2-15-1.6-39.2-1.6-39.2L222.5,250.1z"/>
				<path class="st12" d="M177.1,281.7c0,0,10.9,41.1,18.5,71.3h6.7C194.6,314.7,177.1,281.7,177.1,281.7z"/>
				<path class="st13" d="M216.3,279.4c-12.1-2.1-16.5-12-16.6-12.1l0.8-0.4c0,0.1,4.3,9.6,15.9,11.5L216.3,279.4z"/>
			</g>
			<g>
				<path class="st14" d="M117,201.6l31.5,80.1c0,0-10.9,14.5-40,16.5l-41.7-73.6L117,201.6z"/>
				<path class="st15" d="M117,201.6l-50.3,23l6.4,11.3c8.1-14.4,39.2-30,44.5-32.6L117,201.6z"/>
				
					<rect x="58.2" y="206.9" transform="matrix(0.9047 -0.426 0.426 0.9047 -80.7746 59.0191)" class="st16" width="66.7" height="6.3"/>
				<path class="st17" d="M100.8,196.3c0,0-0.9-3.2,0.7-4.4c1.6-1.2,3.1-1.5,4.8-1.4c1.7,0.1,4.9-0.4,5.8-0.5
					c0.9-0.1,4.2,0.3,4.5,0.8c0.3,0.5,0.6,3.7,0.6,3.7l-17.7,8.3L100.8,196.3z"/>
				<path class="st17" d="M80.1,212c0,0-2.3-6.7-0.8-10.4c1.5-3.7,6.4-1.6,7.5-1.5c1.1,0.1,4.8,1.5,4.8,1.5l1.9,4.1L80.1,212z"/>
				<path class="st18" d="M103.7,197.9c-0.6-1.6-3.1-3.5-4.7-3.8c-1.6-0.3-5.3-0.3-6.5,1.2c-1.2,1.5-2.9,1.4-5.4,3.3
					c-2.5,1.8-1,10.5-1,10.5l18.3-8.6C104.4,200.5,104.3,199.5,103.7,197.9z"/>
				<path class="st19" d="M87.8,208.3c0,0-3.9-2.4-5.4-1.9c-1.5,0.5-5,2.8-5.3,3.6c-0.3,0.8,0,3.3,0,3.3L87.8,208.3z"/>
				<path class="st18" d="M79.6,212c0,0-3.9-6.3-5.3-6.3s-3.6,0.5-4.8,3.1c-1.2,2.6-2.1,3.9-3.4,4.5c-1.2,0.6-1.1,2.8-1.1,3.2
					c0,0.4,0.9,2.1,0.9,2.1L79.6,212z"/>
				<path class="st19" d="M102.2,201.6c0,0-0.6-4.8,2.2-6.2c2.8-1.4,5.1-0.7,6.9-0.6c1.8,0.1,4.3,0.5,4.3,0.5L102.2,201.6z"/>
				
					<ellipse transform="matrix(0.8157 -0.5784 0.5784 0.8157 -121.4239 107.2462)" class="st16" cx="107.6" cy="244.2" rx="18.2" ry="18.2"/>
				<g>
					<path class="st20" d="M123.7,245.5l-8.2-5.6c-0.3-0.2-0.7-0.1-0.9,0.2c-0.2,0.3-0.1,0.7,0.2,0.9l7.3,5l-7.4,3.7l0.7-2.6
						c0.1-0.3-0.1-0.7-0.5-0.8c-0.3-0.1-0.7,0.1-0.8,0.5l-1.1,4c-0.1,0.3,0.1,0.6,0.4,0.8l3.9,1.6c0.1,0,0.2,0,0.2,0
						c0.3,0,0.5-0.2,0.6-0.4c0.1-0.3,0-0.7-0.4-0.8l-2.5-1l8.4-4.2c0.2-0.1,0.3-0.3,0.4-0.5C124,245.8,123.9,245.6,123.7,245.5z"/>
					<path class="st20" d="M108.4,252.8l-8.1,4.1l0.3-8l2.2,1.7c0.3,0.2,0.7,0.2,0.9-0.1c0.2-0.3,0.2-0.7-0.1-0.9l-3.2-2.6
						c-0.3-0.2-0.6-0.2-0.9,0l-2.9,2.9c-0.3,0.3-0.3,0.7,0,0.9c0.1,0.1,0.3,0.2,0.5,0.2c0.2,0,0.3-0.1,0.5-0.2l1.8-1.8l-0.3,8.8
						c0,0.2,0.1,0.4,0.3,0.6c0.1,0.1,0.2,0.1,0.3,0.1c0.1,0,0.2,0,0.3-0.1l9.1-4.6c0.3-0.2,0.4-0.5,0.3-0.9
						C109.2,252.7,108.8,252.6,108.4,252.8z"/>
					<path class="st20" d="M108.6,231.4c-0.4,0-0.6,0.3-0.6,0.7l0.2,2.7l-7.1-4.9c-0.2-0.1-0.4-0.2-0.7,0c-0.2,0.1-0.3,0.3-0.4,0.6
						l-0.4,9.4c0,0.4,0.3,0.7,0.6,0.7c0,0,0,0,0,0c0.3,0,0.6-0.3,0.6-0.6l0.3-8.2l6.1,4.2l-2.7,0.6c-0.3,0.1-0.6,0.4-0.5,0.8
						c0.1,0.3,0.3,0.5,0.6,0.5c0,0,0.1,0,0.1,0l4.1-0.8c0.3-0.1,0.5-0.4,0.5-0.7l-0.3-4.1C109.2,231.7,108.9,231.4,108.6,231.4z"/>
				</g>
			</g>
			<g>
				<path class="st21" d="M187.8,155.7c0,0,5.4,1.1,13.5,4.1c8,3.1,11.8,6.7,13,8.1c1.2,1.4,9.5,16.1,10.2,32.4
					c0.7,16.3,0,16.7,0,16.7s-2.4,0.8-4.6,1.4c0,0-0.7,9.1,0.5,15.9c1.2,6.8,5,15.6,5,15.6s-4.1,5.8-18.8,7.3
					c-14.7,1.5-20.5,2.2-27.7,5c-7.2,2.9-18.6,2-18.6,2s-0.3-21.7-3.5-32.8c-2.2-7.4-3.9-10.6-5-13.1c0,0-3.3,2.8-6.1,4.4
					c0,0-4.2-1.1-8.1-7.6c-3.9-6.5-8.7-9.2-8.7-9.2s9.7-14.5,13.8-21.3c4.1-6.9,8.5-13.2,10.5-14.8c2-1.6,18.7-8.9,18.7-8.9
					L187.8,155.7z"/>
				<path class="st22" d="M191,156.5c-2.1-0.6-3.3-0.8-3.3-0.8l-16,5.2c0,0-2.4,1-5.5,2.4c0,5.1,0.5,16.3,6,17.5
					C179.3,182.3,186.8,175.7,191,156.5z"/>
				<path class="st23" d="M198.7,211.8c0,0,1.6-13.4-1.5-25.2c0,0-0.8,27.6-3,31.6c0,0,2.3-0.3,2.5,2.9c0.1,3.1-26.1,19.4-26.1,19.4
					l26.1-5.4l4.3-8.4l0.7-9.2l-3-0.6l0.1-4.5"/>
				<path class="st22" d="M150,219.8c-2.1-1.4-8.6-6.2-10.9-10.5c-1.8-3.4-5.4-6.1-7.6-7.5c-1.6,2.5-2.7,4.1-2.7,4.1
					s4.8,2.7,8.7,9.2c3.9,6.5,8.1,7.6,8.1,7.6C147.1,221.9,148.8,220.7,150,219.8z"/>
				<path class="st23" d="M149.8,191.2c0,0-5.2,10.1-3.1,24.5c0.3,2.3,0.5,4.2,0.6,6c2.3-1.5,4.4-3.3,4.4-3.3
					S146.5,204.2,149.8,191.2z"/>
				<path class="st24" d="M147,217.6c0.2,1.5,0.3,2.9,0.3,4.1c0.1-0.1,0.2-0.2,0.3-0.2c0.1-0.1,0.3-0.2,0.4-0.3
					c0.3-0.2,0.5-0.4,0.8-0.6c0.1-0.1,0.2-0.1,0.3-0.2c0.3-0.2,0.5-0.4,0.7-0.6c0,0,0.1,0,0.1-0.1
					C149.3,219.3,148.3,218.6,147,217.6z"/>
				<path class="st22" d="M224.7,213.2c-3.7,1.3-12.3,3-26.1-1.4v5c0,0,14,3,21.2,1.6c2.2-0.5,4.6-1.4,4.6-1.4
					S224.7,216.9,224.7,213.2z"/>
				<path class="st23" d="M219.9,218.4c0.6-0.2,1.3-0.3,1.8-0.5l-4.3,0.8l-15.8,18.3l-29.3,16.5c0,0,42.4-12.1,46.5-18.4
					c0.5-0.7,0.9-1.5,1.4-2.3C219.3,226.3,219.9,218.4,219.9,218.4z"/>
			</g>
			<g>
				<path class="st25" d="M206.6,147.1c-6.7-4.2-9.5-14.7-11.6-22.5c2.7,4.5,5.7,6,5.7,6c-3-2.2-7.4-11.6-7.4-11.6l0,0
					c-0.3-0.9-0.6-1.6-1-2.2c-3.2-5.3-11-13.3-17.3-13.3c-4.1,0-6.2,1.4-7.1,2.4c0-1.3,0.4-3.2,0.4-3.2c-0.8,1.2-1.3,3.2-1.5,4.1
					c-1-0.6-3.2-1.6-6.9-1.7c0,0,2.6,0.5,4.4,1.5c-1.1-0.1-2.4-0.1-3.5-0.1c-1.9,0-7,0.6-11.2,6c0,0,0,0,0,0s-3.5,3.4-5.4,8
					c0,0,1.4-2.1,2.8-3.6c-0.5,1.1-1,2.4-1.5,3.8c-4.1,13,7.7,23.6,7.7,23.6l12.6,5.4c0,0,20,5.6,21.7,5.5c0.5,0,1.5-0.3,2.8-0.7
					l-2.3-5.6l3.1,5.4c1.3-0.5,2.3-0.8,3.7-1.5l-0.1-2.8l1.7,2c1.5-0.8,2.8-1.6,3.5-2.3c0.4-0.5,0.9-0.8,1.5-1.1l-3.8-5l4.5,4.6
					C204,147.1,206.6,147.1,206.6,147.1z"/>
				<path class="st26" d="M183.1,143.4c0,0,3,11,5.5,13.4c0,0-5.3,21.7-14.5,21.7c-7,0-5.4-15.6-5.4-15.6s-1.8-8.4-4-11
					C162.5,149.4,183.1,143.4,183.1,143.4z"/>
				<path class="st10" d="M184.1,146.9c-0.6-2-1-3.5-1-3.5s-20.5,6-18.3,8.5c1.9,2.2,3.5,8.7,3.9,10.5c1-1.1,2.4-1.9,4.4-1.5
					C177.3,161.8,182.6,152.4,184.1,146.9z"/>
				<path class="st9" d="M183.4,136.8c0,0,1.2,21.2-12.4,21c-13.5-0.2-21.3-20.4-21.3-20.4s1.4-2,0-7.6c0,0,8.5,4.1,18.6,1.4
					c6.5-1.8,7.8-8,7.8-8s2.1,8.6,3.9,12.3C182,139.2,183.4,136.8,183.4,136.8z"/>
				<path class="st27" d="M171.6,135.9c0.4,0.7,0.4,1.5,0,1.8c-0.4,0.3-1.1-0.1-1.5-0.8c-0.4-0.7-0.4-1.5,0-1.8
					C170.5,134.8,171.2,135.1,171.6,135.9z"/>
				<path class="st27" d="M159.1,139.9c0.4,0.7,0.4,1.5,0,1.8c-0.4,0.3-1.1-0.1-1.5-0.8s-0.4-1.5,0-1.8
					C158,138.8,158.7,139.1,159.1,139.9z"/>
				<path class="st25" d="M166.7,134.9c-0.1,0-0.2-0.1-0.3-0.2c-0.1-0.1,0-0.2,0-0.3c0.1-0.2,4-2.9,7.7-2.6c0.2,0,0.3,0.2,0.3,0.4
					c0,0.2-0.2,0.3-0.4,0.3c-3.4-0.3-7,2.2-7.2,2.4c0,0-0.1,0.1-0.1,0.1C166.8,134.8,166.8,134.9,166.7,134.9z"/>
				<path class="st25" d="M154.1,139.2c-0.1,0-0.2,0-0.3-0.1c-0.1-0.1-0.1-0.3,0.1-0.5c0.1-0.1,2.6-2,6.1-2.2c0.2,0,0.3,0.1,0.3,0.3
					c0,0.2-0.1,0.3-0.3,0.3c-3.3,0.2-5.7,2.1-5.8,2.1C154.3,139.2,154.2,139.2,154.1,139.2z"/>
				<path class="st28" d="M169.4,147.2C169.4,147.2,169.4,147.2,169.4,147.2c-1.4,0-2.1-0.1-2.6-0.6c-0.6-0.5-0.7-1.4-0.6-2.5
					c0.1-2.3-1.6-5.9-1.7-5.9c-0.1-0.1,0-0.3,0.1-0.4c0.1-0.1,0.3,0,0.4,0.1c0.1,0.2,1.8,3.7,1.7,6.2c0,1.2,0.1,1.8,0.4,2.1
					c0.4,0.3,1.1,0.4,2.3,0.4c0.2,0,0.3,0.1,0.3,0.3C169.7,147.1,169.6,147.2,169.4,147.2z"/>
				<path class="st20" d="M175.5,149.5c0.5-0.3,0.9-0.7,1.3-1.1c0.1-0.1,0.3-0.3,0.4-0.3c0.2-0.1,0.4,0,0.5,0.1
					c0,0.1,0.1,0.2,0.1,0.2c0.1,0.7-0.3,1.3-0.7,1.8c-0.3,0.5-0.6,0.9-1,1.3c-0.3,0.3-0.7,0.5-1,0.6c-1.3,0.6-3,0.9-4.2,0.1
					c-0.6-0.4-0.6-0.9,0.1-1.2c0.7-0.2,1.5-0.3,2.2-0.5C174,150.3,174.8,150,175.5,149.5z"/>
				<path class="st9" d="M182.3,133.3c0,0-3-7-2.6-8.1c0.3-1.1,3-1.6,4.5,0C185.6,126.8,186.3,135.8,182.3,133.3z"/>
			</g>
			<g>
				<path class="st9" d="M200.9,217.2c-0.4,2-1.5,7.9-2.7,9.5c-1.5,1.9-24.2,11.7-38.9,19.3c-14.7,7.6-17.4,9.9-21.9,9.6
					c-4.5-0.3-7.7-0.3-8.6,0c-0.8,0.3-1.4,0.6-0.7,1.4c0.7,0.8,1.9,0.9,1.7,1.3c-0.3,0.5-3.6,2.4-6.9,3.4c-3.4,1-9.5,2.3-10.2,2.6
					c-0.7,0.4-0.8,1.6,0.4,1.4c1.2-0.2,11.5-2,11.5-2s-11.3,4.3-11.8,5.4c-0.5,1.1,0.5,1.2,1.6,0.9c1.1-0.4,11-3.6,11-3.6
					s-9.7,5.2-9.8,5.9c-0.1,0.7-0.6,1.6,1.8,0.8c2.4-0.8,10.1-5.1,10.1-5.1s-2.2,2.3-1.6,3c0.6,0.6,1.9,0.3,2.9-0.2
					c1-0.5,4.5-3.1,6.9-3.8c2.4-0.7,21.6-7.2,28.3-9.9c6.6-2.7,47-20.3,49.9-24c2.1-2.8,4.1-10.8,5-14.5
					C213.3,219.3,204.8,218,200.9,217.2z"/>
				<path class="st10" d="M200.9,217.2c-0.1,0.8-0.4,2.1-0.7,3.5c2.8,1.5,9.4,4.9,16.1,7.1c1.1-3.2,2-6.9,2.5-9.2
					C213.3,219.3,204.8,218,200.9,217.2z"/>
			</g>
		</g>
		<g>
			<g>
				<path class="st11" d="M457.9,353c0,0-4.6-58.5-15.6-80l-56.2,5c0,0-3.7,8.1-1.4,20.9c2.4,12.7,5.1,46.7,4.1,54.1H457.9z"/>
				<path class="st12" d="M431.2,298.7c0,0-9.3,37.3-8.9,54.3h7.1C427.1,344.1,431.2,298.7,431.2,298.7z"/>
			</g>
			<polygon class="st29" points="452.6,194.9 466.9,234.6 443.4,234.6 442.6,192.7 			"/>
			<path class="st30" d="M387.3,161.1c0,0-15.8,6.3-18.8,8.1c-3,1.8-4.6,2.8-5.4,3.9c-0.8,1-5.5,18-4.8,38.9c0,0,9.5,3.4,21.1,3.1
				c0,0-1.4,31.5,0,42.1c1.4,10.6,0,20.9,0,20.9s4,4.6,12,3.6c8-1,30.1-4.4,32.4-3.6c2.3,0.8,21.1-1.5,21.1-1.5s-0.3-53.6-1-77.8
				c0,0,7.2-0.4,11.4-3.8c0,0-12.6-23.8-16.7-27.2c-4.1-3.5-26.9-8.9-29.2-8.9C407.3,158.8,387.3,161.1,387.3,161.1z"/>
			<path class="st31" d="M417.4,259.1l6.4-9.9c0,0-30.9-0.2-44.8-0.1c0.1,3.2,0.3,6.1,0.5,8.1c0.7,4.8,0.7,9.6,0.6,13.3
				C393.3,262.5,417.4,259.1,417.4,259.1z"/>
			<path class="st32" d="M454,192.5c-5,2.2-10.1,2-10.1,2v4.2c0,0,7.2-0.4,11.4-3.8C455.3,194.9,454.9,194,454,192.5z"/>
			<path class="st32" d="M387.3,161.1c0,0-1.3,0.5-3.2,1.3c0.9,1.9,3.2,5.2,8.4,5.9c7.3,1.1,23-2.5,23.7-5.3c0.3-1.1,0.2-2.1,0-2.9
				c-3.3-0.8-5.9-1.3-6.5-1.3C407.3,158.8,387.3,161.1,387.3,161.1z"/>
			<g>
				<path class="st33" d="M411.5,219.1l5.4,63.9l1.7,0.5c17.3,4.6,35.6,4.6,52.9,0l1.7-0.5l5.4-63.9H411.5z"/>
				<path class="st34" d="M462.4,249.2c-16.1,0.1-32.2,2.5-47.8,6.2l0.9,10.1c2-2,4.2-3.9,6.7-5.3c4.8-2.8,10.5-3.5,16.1-3.7
					c5.6-0.3,11.2-0.2,16.6-1.5c0.9-0.2,1.8-0.5,2.7-1c1.1-0.7,2.1-1.7,3.3-2.2c1-0.4,3.7-0.1,4.4-1.1
					C466.3,249,463.2,249.2,462.4,249.2z"/>
				<path class="st34" d="M411.9,223.9c13.3,0.7,52,3.4,65.3,11.9l1.4-16.7h-67.1L411.9,223.9z"/>
				<rect x="406" y="215.1" class="st35" width="78" height="6.2"/>
			</g>
			<g>
				<path class="st0" d="M453.5,178.4c0,0-5.1-24.6,9-37.7c14.1-13.1,30.9-22.2,36.3-25.8c0,0,0,20.5-17.2,35
					C464.4,164.3,453.5,178.4,453.5,178.4z"/>
				<path class="st2" d="M442.1,198.3c-5-0.7-10.4-2.8-14.2-6.2c-0.9-0.8-1.7-1.7-2.4-2.5c-5.7-6.5-12.2-12.8-20.4-15.6
					c5.6-2.4,11.9-2.8,17.8-1.4c3.2,0.8,6.3,2.2,8.9,4.2C437.8,181.7,440.8,190.8,442.1,198.3z"/>
				<path class="st1" d="M438.6,192.6c0-0.1-0.1-0.1-0.1-0.1c-0.8-1.1-1.6-2.2-2.6-3.3c0,0,0,0,0,0c0,0-1.2-2.8-1-5.9
					c0-0.2-0.1-0.3-0.3-0.3c-0.2,0-0.3,0.1-0.3,0.3c-0.1,1.9,0.3,3.7,0.6,4.9c-0.8-0.9-1.6-1.8-2.5-2.6c0,0,0,0,0,0
					c-1.2-1.2-2.6-2.4-4-3.6c-0.1-0.2-0.7-1.6-0.4-3.4c0-0.2-0.1-0.3-0.2-0.3c-0.2,0-0.3,0.1-0.3,0.2c-0.2,1.2,0,2.2,0.2,2.8
					c-1.3-1-2.7-2-4.3-3c-0.1-0.1-0.3,0-0.4,0.1c-0.1,0.1,0,0.3,0.1,0.4c3.2,2.1,6,4.3,8.3,6.4c-0.8-0.1-2.1-0.3-3.6-0.3
					c-0.2,0-0.3,0.1-0.3,0.3c0,0.2,0.1,0.3,0.3,0.3c0,0,0,0,0,0c2.2,0,3.9,0.3,4.4,0.4c2.2,2.1,4,4.3,5.5,6.3
					c-1.3-0.5-3.7-1.4-6.5-1.9c-0.2,0-0.3,0.1-0.3,0.2c0,0.1,0.1,0.3,0.2,0.3c3.6,0.7,6.7,2,7.2,2.2c1.2,1.8,2.2,3.4,3,4.9
					c3,5.6,3.6,9.7,3.6,9.8c0,0.1,0.1,0.2,0.3,0.2c0,0,0,0,0,0c0.2,0,0.3-0.2,0.2-0.3C445.3,207.4,444.3,200.7,438.6,192.6z"/>
				<path class="st1" d="M483.3,134.6c-0.1-0.1-0.2-0.2-0.4-0.1c-1.1,0.5-2.6,1-3.6,1.3c1.5-1.3,2.4-1.9,2.4-2
					c0.1-0.1,0.2-0.3,0.1-0.4c-0.1-0.1-0.3-0.2-0.4-0.1c0,0-1.4,0.9-3.4,2.8c0,0,0,0,0,0c-1.1,1-2.4,2.2-3.8,3.8
					c0.3-1.4,0.9-3.8,1.8-5.1c0.1-0.1,0-0.3-0.1-0.4c-0.1-0.1-0.3,0-0.4,0.1c-1.2,1.9-1.9,5.7-2,6.2c-1.6,1.8-3.4,3.9-5.2,6.4
					c0,0,0,0,0,0c-0.7,1-1.4,2-2.2,3.1c-0.4,0.6-0.8,1.2-1.2,1.9c0-1.8,0-6.1,0.4-8.2c0-0.1-0.1-0.3-0.2-0.3c-0.1,0-0.3,0.1-0.3,0.2
					c-0.5,2.7-0.4,8.8-0.4,9.1c0,0,0,0,0,0c-1.5,2.4-2.9,5.1-4.4,8.1c0,0-0.1,0.1-0.1,0.1c-0.9,1.9-1.9,4-2.7,6.2
					c-0.2-2.6-0.4-9.2,1-14.3c0-0.1,0-0.3-0.2-0.3c-0.1,0-0.3,0-0.3,0.2c-1.8,6.5-1,15.5-0.9,15.6c0,0,0,0,0,0
					c-4.1,10.3-7.5,23.5-8.5,39.7c0,0.2,0.1,0.3,0.3,0.3c0,0,0,0,0,0c0.1,0,0.3-0.1,0.3-0.3c1.3-20,6.1-35.4,11.8-46.9
					c1-0.6,6.6-4,8.8-6c0.1-0.1,0.1-0.3,0-0.4c-0.1-0.1-0.3-0.1-0.4,0c-1.9,1.7-6.1,4.3-8,5.5c2.6-5.1,5.3-9.4,7.9-13
					c1-0.4,5.6-2,7.1-3.3c0.1-0.1,0.1-0.3,0-0.4c-0.1-0.1-0.3-0.1-0.4,0c-1.1,1-4.5,2.3-6.2,2.9c3.5-4.7,6.8-8.1,9.1-10.1
					c0.6-0.1,3.1-0.8,4.8-1.6C483.3,134.9,483.4,134.8,483.3,134.6z"/>
				<path class="st3" d="M460.5,200.8c0,0,1.6-16.5,13.2-20.9c11.6-4.4,27.9-5.9,34.9-9C508.6,170.9,501.9,195.7,460.5,200.8z"/>
				<path class="st1" d="M492.5,182.1c0,0-2.3,0.8-5.8,2.2c0,0,0,0,0,0c-1.6,0.6-3.4,1.4-5.3,2.4c0.4-1.1,1.4-3.2,2.8-4.1
					c0.1-0.1,0.2-0.3,0.1-0.4c-0.1-0.1-0.3-0.2-0.4-0.1c-1.9,1.2-3,4.3-3.2,4.9c-1,0.5-2,1-3.1,1.6c-1.3,0.7-2.7,1.4-4.1,2.3
					c0,0,0,0,0,0c-1.7,1-3.5,2.1-5.3,3.4c0.7-1.7,2.5-5.7,5-8.2c0.1-0.1,0.1-0.3,0-0.4c-0.1-0.1-0.3-0.1-0.4,0
					c-3.2,3.1-5.2,8.5-5.4,9.1c-4.9,3.4-9.6,7.7-12.9,12.6c-0.1,0.1,0,0.3,0.1,0.4c0,0,0.1,0,0.2,0c0.1,0,0.2,0,0.2-0.1
					c4.6-6.9,12.1-12.4,18.8-16.3c0.4,0.1,2,0.3,3.7,0.3c1,0,2.1-0.1,3.1-0.3c0.1,0,0.2-0.2,0.2-0.3c0-0.1-0.2-0.3-0.3-0.2
					c-2,0.4-4.6,0.2-5.9,0.1c1.1-0.7,2.3-1.3,3.3-1.8c3.4-1.8,6.5-3.2,9-4.2c0.4,0.1,1.6,0.4,3.2,0.4c0.7,0,1.5-0.1,2.3-0.2
					c0.1,0,0.2-0.2,0.2-0.3c0-0.1-0.2-0.2-0.3-0.2c-1.8,0.4-3.5,0.2-4.4,0c3-1.2,4.9-1.9,5-1.9c0.1,0,0.2-0.2,0.2-0.3
					C492.8,182.1,492.7,182.1,492.5,182.1z"/>
			</g>
			<g>
				<path class="st36" d="M447.1,205.3c-10,1.7-13.3,9.8-13.3,9.8h31.6C465.4,215.1,459.6,203.2,447.1,205.3z"/>
				<path class="st37" d="M415.3,215.1h25.9C428.3,198,415.3,215.1,415.3,215.1z"/>
				<path class="st37" d="M442.6,215.1c0,0,2.2-3.7,6.7-3.8c4.6-0.1,8,3.8,8,3.8H442.6z"/>
				<path class="st38" d="M460.5,215.1c0,0,2.3-4.5,7.1-4.4c4.8,0.1,12.4,4.4,12.4,4.4H460.5z"/>
			</g>
			<path class="st31" d="M385.1,238.3c-0.9-1.9-4.1-48.5-4.1-48.5l-0.5,19.9l-1.1,5c0,0-0.1,0.4-0.1,1c-0.1,2.9-0.7,16.1-0.6,27.4
				l11.7-0.7C390.5,242.4,386,240.2,385.1,238.3z"/>
			<path class="st32" d="M380.6,209.7c-3.8-0.2-14.5-0.9-22.3-3.9c0,2,0,4.1,0.1,6.2c0,0,9.5,3.4,21.1,3.1h1.2V209.7z"/>
			<path class="st29" d="M469.7,245.9c0.2-0.4,0.3-1.6-1.5-1.7c-1.7-0.1-15.1,0.9-15.1,0.9s13.9-2.6,14.7-3.1
				c0.8-0.5,1.2-1.5,0.7-1.8c-0.5-0.3-1.7-0.6-7.9,0.9c-6.2,1.5-12.7,0.9-12.7,0.9c2.9-0.7,3.2-2.8,3.2-3.2c0-0.4-0.4-0.8-1-0.8
				c-0.6,0-6.3,0.8-8.8,2.6c-2.4,1.8-5.9,2.6-26.5,1.3c-20.6-1.3-32.8,0-32.8,0c-0.2-7.1-2.1-24-2.4-26.8h-0.2
				c-8,0.2-14.9-1.4-18.5-2.3c0.8,5.6,4.9,31.8,5.9,35.2c1.2,3.8,1.4,8.7,17.3,9.4c15.8,0.8,50-3.1,52.8-3.9c2.8-0.8,3,1,6.3,1
				c3.3,0,10-0.5,11.6-1.1c1.5-0.6,1.5-1.3,1.1-1.5c-0.4-0.3-2.8-0.8-2.8-0.8s10.7-0.7,12.3-0.8c1.6-0.1,2.1-1.1,1.6-1.7
				c-0.5-0.6-12.9-0.6-12.9-0.6s12.6-1.1,12.9-1.2C467.3,246.7,469.5,246.3,469.7,245.9z"/>
			<g>
				<path class="st39" d="M420.3,134.8c3.7-1.2,6.2-6.3,6.4-9.9c0.1-2.9-0.3-5.8,0.3-8.6c0.2-1,0.5-1.9,0.5-2.9
					c-0.1-2-1.6-3.7-2.1-5.6c-0.4-1.3-0.3-2.7-0.5-4c-0.4-3-2.2-5.8-4.7-7.5c-2.5-1.7-5.8-2.2-8.7-1.5c-2.5,0.6-4.9,2.2-7.5,2.1
					c-3.8-0.2-7.1-3.8-10.8-2.8c-2.4,0.7-3.8,3.1-5.9,4.4c-0.8,0.4-1.6,0.7-2.4,1.1c-2.4,1.2-4,3.9-4,6.5c0,1.3,0.3,2.8,0,4.1
					c-0.4,1.4-1.4,2.1-1.2,3.7c0.2,2.3,1.2,5.2,0.9,7c-0.3,1.8-0.6,7.4,1.1,9.5c1.6,2.1,1.9,0.7,2.5,3.4c0.6,2.6,1.7,8.3,5.5,9.3
					c3.8,1.1,4.9,0,4.9,0S420,134.9,420.3,134.8z"/>
				<path class="st40" d="M389.8,140.7c0,0,1.1,16.3,0,18c-1.1,1.7-1.9,2.1-2.5,2.4c-0.6,0.4,2.4,6.3,11.5,5.4
					c9-0.9,13.6-2.8,14.6-4.2c1-1.4-2.2-3.6-2.5-5c-0.3-1.4-0.1-12.4-0.1-12.4L389.8,140.7z"/>
				<path class="st29" d="M387.3,128.7c0,0,0.1,10.4,5.1,16.2c5,5.8,10.1,7.1,12.6,7c2.5-0.2,10.8-5.3,13-10.5
					c2.2-5.2,3.9-10.7,4.1-13.2c-1.1-1.4-1.5-3.8-1.4-5.6c0-0.4,0.1-0.8-0.2-1.2c-0.2-0.4-0.7-0.5-1.1-0.7c-1.9-0.6-4-1.7-4.5-3.6
					c-0.2-0.8-0.3-1.8-1-2.3c-0.7-0.4-1.6,0-2.3,0.1c-1.3,0.3-2.6-0.1-3.8-0.7c-1.2-0.5-2.3-1.3-3.5-1.8c-0.3-0.1-0.5-0.2-0.8-0.2
					c-0.3,0-0.5,0.2-0.8,0.3c-0.8,0.5-1.6,1.1-2.5,1.5c-2.8,1.4-6.3,1.4-9-0.1c0,5.2-0.1,10.8-2.3,15.5c-0.1,0.2-0.2,0.4-0.4,0.4
					C387.9,129.9,387.7,128.7,387.3,128.7z"/>
				<path class="st40" d="M386.6,127.6c0.9-0.9,1.1-8.9,1.1-8.9s-0.7-1.7-2-1.6c-1.4,0.1-2,1.9-2.4,2.9c-0.3,1,0,4,0.7,5.8
					C384.6,127.5,385.8,128.3,386.6,127.6z"/>
				<path class="st41" d="M406,135.8c-0.1,0-0.2,0-0.2-0.1c-0.1-0.1,0-0.3,0.1-0.3c0.8-0.5,2-1.4,2.2-1.7c0-0.1,0.1-0.1,0.1-0.2
					c0.2-0.4,0.5-0.8-0.1-2.5c-0.8-2.1-1.2-7-1.2-7.2c0-0.1,0.1-0.3,0.2-0.3c0.2,0,0.3,0.1,0.3,0.2c0,0.1,0.4,5.1,1.1,7.1
					c0.7,1.9,0.3,2.5,0.1,3c0,0-0.1,0.1-0.1,0.1c-0.3,0.5-2,1.7-2.3,1.9C406.1,135.8,406.1,135.8,406,135.8z"/>
				<path class="st39" d="M399.8,126c0,1.3-0.5,2.3-1.1,2.3c-0.6,0-1.1-1-1.1-2.3c0-1.3,0.5-2.3,1.1-2.3
					C399.3,123.7,399.8,124.8,399.8,126z"/>
				<path class="st39" d="M394.5,122.9c-0.3,0-0.5-0.2-0.6-0.4c-0.1-0.3,0.1-0.7,0.4-0.8c0.2-0.1,3.7-1.3,7.1-0.4
					c0.3,0.1,0.5,0.4,0.4,0.7c-0.1,0.3-0.4,0.5-0.7,0.4c-3-0.8-6.4,0.3-6.4,0.3C394.6,122.9,394.5,122.9,394.5,122.9z"/>
				<path class="st39" d="M413.4,127.1c0,1.3,0.5,2.3,1.1,2.3c0.6,0,1.1-1,1.1-2.3c0-1.3-0.5-2.3-1.1-2.3
					C413.8,124.8,413.4,125.8,413.4,127.1z"/>
				<path class="st39" d="M418.7,124c-0.1,0-0.1,0-0.2,0c0,0-3.4-1.1-6.4-0.3c-0.3,0.1-0.7-0.1-0.7-0.4c-0.1-0.3,0.1-0.7,0.4-0.7
					c3.4-0.9,7,0.3,7.1,0.4c0.3,0.1,0.5,0.5,0.4,0.8C419.2,123.8,418.9,124,418.7,124z"/>
				<path class="st20" d="M405.3,141.5c0.6-0.1,1.1-0.2,1.7-0.3c0.6,0,1.2,0,1.8,0.1c0.2,0,0.3,0.1,0.5,0.2c0.3,0.2,0.3,0.8,0,1.1
					c-0.3,0.3-0.6,0.5-1,0.6c-1,0.4-2.1,0.7-3.2,0.8c-1.5,0.1-3-0.4-4.1-1.3c-0.3-0.2-0.8-0.8-0.4-1.2c0.3-0.2,0.7,0,1,0.1
					C402.8,141.7,404.1,141.7,405.3,141.5z"/>
			</g>
		</g>
		<path class="st30" d="M101.5,325.8l12.2,27.1l-12.2,24.6l0,0c133.5,24.5,270.4,24.5,403.9,0l0,0l-12.2-23.4l12.2-28.4h0
			C371.9,350.3,235.1,350.3,101.5,325.8L101.5,325.8z"/>
		<g>
			<path class="st0" d="M467.3,311.9c3.2-6.5,9.7-11.2,16.9-12.3c-1.7,4-5.3,6.8-8.7,9.4c-1.2,0.9-2.5,1.9-3.9,2.5
				C470,312.2,468.7,312.5,467.3,311.9z"/>
			<path class="st0" d="M76.1,287c-4.3-5.2-5.9-12.5-4.2-19c2.8,2.9,3.8,7,4.8,11c0.3,1.4,0.7,2.8,0.7,4.3S77.1,285.9,76.1,287z"/>
			<path class="st0" d="M117.2,157.3c2.4-4.7,7.1-8.2,12.4-9c-1.2,2.9-3.9,5-6.4,6.9c-0.9,0.7-1.8,1.4-2.9,1.8
				C119.2,157.4,118.3,157.7,117.2,157.3z"/>
			<path class="st2" d="M488.2,254.8c-0.8-3.3,0.4-6.8,2.3-9.6c1.9-2.8,4.6-5,7.2-7.1c0.6,3.4-0.6,6.9-2.6,9.7
				C493.2,250.6,490.9,252.7,488.2,254.8z"/>
			<path class="st2" d="M128,313.1c2.6-2.2,6.2-2.9,9.6-2.4c3.4,0.4,6.5,1.7,9.7,3c-2.7,2.1-6.4,2.7-9.8,2.3
				C134,315.6,131.1,314.5,128,313.1z"/>
			<path class="st3" d="M436.9,125.1c1.2,1,1.1,2.5,1.8,3.9c1.9,3.5,5.6,6,9.5,6.5C448.7,134.5,441.6,125.9,436.9,125.1z"/>
			<path class="st3" d="M487.8,163.3c0.5-1.3,1.6-2.3,3-2.7c0.3-0.1,0.5,0.5,0.5,0.8c-0.3,1.7-1.5,3.2-3,4
				C488,164.7,487.5,163.9,487.8,163.3z"/>
			<path class="st3" d="M80.7,181.4c0.5-1.3,1.6-2.3,3-2.7c0.3-0.1,0.5,0.5,0.5,0.8c-0.3,1.7-1.5,3.2-3,4
				C81,182.8,80.5,182,80.7,181.4z"/>
		</g>
	</g>
</g>
</svg>
