<?xml version="1.0" encoding="UTF-8"?>
<svg width="174px" height="101px" viewBox="0 0 174 101" version="1.1" xmlns="http://www.w3.org/2000/svg" xmlns:xlink="http://www.w3.org/1999/xlink">
    <title>logo with tagline</title>
    <g id="Design" stroke="none" stroke-width="1" fill="none" fill-rule="evenodd">
        <g id="Hub-Landing-Desktop" transform="translate(-110.000000, -90.000000)" fill="#000">
            <path d="M123.859156,118.314245 C123.141815,118.405029 122.432807,118.562251 121.626014,118.707065 C121.882106,120.154418 122.1066,121.48837 122.366307,122.815568 C122.401679,122.99635 122.636863,123.296658 122.738262,123.280637 C123.507324,123.159226 124.314274,123.077709 125.006461,122.759967 C125.327795,122.612326 125.582,121.965062 125.579969,121.545855 C125.576026,120.800897 125.376844,120.052168 125.216177,119.314277 C125.06227,118.606386 124.599764,118.220478 123.859156,118.314245 M229.360759,111.483336 C229.166135,109.141813 227.823735,107.700271 225.667154,106.876937 C224.079037,106.270666 222.552703,105.502619 220.963329,104.900589 C219.860199,104.482797 219.359963,103.757942 219.27114,102.616709 C219.19175,101.596101 219.607566,100.875959 220.527862,100.656382 C221.41656,100.444344 222.242689,100.911141 222.55962,101.829185 C222.661177,102.123682 222.704409,102.438597 222.772323,102.744717 C222.969305,103.634646 223.374744,103.944849 224.272875,103.820611 C225.050426,103.713179 225.824676,103.572763 226.59311,103.412871 C227.331516,103.259418 227.626753,102.817438 227.567014,102.044835 C227.300861,98.6176795 225.026059,96.5197637 221.543112,96.4069911 C220.593261,96.5748935 219.623129,96.6707031 218.698116,96.9275042 C217.2496,97.3294332 215.997438,98.0857007 215.203379,99.4196528 C213.336061,102.557024 214.875129,107.264416 218.217059,108.694649 C219.949179,109.435995 221.69246,110.153468 223.40147,110.945075 C224.447847,111.42962 225.024958,113.14147 224.551762,114.196946 C224.432126,114.464114 224.195843,114.723428 223.94651,114.880807 C222.691046,115.673199 221.381974,114.920858 221.090982,113.26351 C220.762102,111.389411 220.503023,111.208001 218.651897,111.556057 C218.574708,111.570507 218.499248,111.595637 218.421587,111.605061 C215.605832,111.948719 216.046329,112.647501 216.408851,114.572331 C216.962381,117.510701 218.725628,119.109465 221.56072,119.274069 C223.174304,119.36768 224.748744,119.095172 226.240649,118.462357 C227.904068,117.756979 229.143812,116.611348 229.390157,114.755155 C229.53243,113.683815 229.450997,112.569283 229.360759,111.483336 M214.780646,115.31729 C214.625168,112.471274 213.578319,110.290585 210.605198,109.354321 C209.114708,108.884854 207.72656,108.099844 206.259336,107.543991 C205.069427,107.093215 204.541208,106.267211 204.470464,105.050743 C204.419686,104.181703 204.868358,103.505539 205.693387,103.277952 C206.532407,103.046595 207.301783,103.358055 207.657545,104.146364 C207.837549,104.544994 207.908449,104.995457 208.005604,105.427542 C208.169415,106.155224 208.606454,106.52841 209.354136,106.430716 C210.209191,106.319042 211.063774,106.185223 211.907353,106.007583 C212.478805,105.887114 212.876541,105.464766 212.823248,104.88771 C212.622021,102.702309 211.910497,100.709784 209.757217,99.771007 C208.695433,99.3081367 207.414659,99.0772514 206.258078,99.1487159 C202.553311,99.3777165 199.326299,101.05941 199.736613,105.808424 C199.958591,108.377692 200.924163,110.431001 203.596073,111.359883 C205.125708,111.891705 206.579726,112.636821 208.089553,113.230526 C209.215321,113.673135 209.780012,114.442282 209.89446,115.641943 C210.007021,116.825113 209.592778,117.536931 208.534924,117.741273 C207.560076,117.929593 206.696217,117.357877 206.42299,116.316066 C206.310586,115.886964 206.26531,115.440743 206.165325,115.007715 C205.985165,114.22726 205.536807,113.92381 204.734889,114.044907 C203.958909,114.162235 203.182615,114.283332 202.413081,114.436313 C201.660998,114.585839 201.30272,115.100855 201.412137,115.861206 C201.494357,116.430409 201.59497,116.999612 201.732527,117.557664 C202.431789,120.390643 204.435093,121.939617 207.866318,121.925887 C208.428651,121.816478 209.504112,121.695381 210.525808,121.392874 C213.658966,120.464464 214.957977,118.572617 214.780646,115.31729 M200.637258,120.180176 C200.35224,118.429531 200.048985,118.218279 198.287625,118.543717 C198.210436,118.55801 198.134976,118.581727 198.05763,118.59492 C196.51699,118.855491 194.976193,119.115276 193.355691,119.388569 C193.085607,117.78745 192.832031,116.285124 192.569808,114.731752 C194.192667,114.454218 195.685987,114.194904 197.180565,113.944543 C198.250681,113.765332 198.557552,113.342984 198.380535,112.259551 C198.317337,111.872386 198.244865,111.486791 198.178994,111.100098 C197.962047,109.822846 197.589935,109.574841 196.289824,109.812009 C194.828103,110.078705 193.363709,110.331736 191.809706,110.606757 C191.590872,109.325736 191.386345,108.128744 191.170183,106.862801 C191.428319,106.80076 191.551885,106.764007 191.678123,106.742018 C193.250204,106.46794 194.822915,106.196532 196.395311,105.923239 C197.5052,105.73052 197.818516,105.287911 197.626722,104.181075 C197.560066,103.794695 197.487593,103.409101 197.413862,103.023978 C197.138748,101.585578 196.812227,101.367886 195.389493,101.622959 C192.555816,102.130907 189.720567,102.629431 186.88579,103.130154 C186.001022,103.286276 185.661138,103.767994 185.826678,104.707871 C186.905755,110.836072 187.988133,116.963644 189.079001,123.089803 C189.285258,124.248785 189.673562,124.505272 190.812378,124.307213 C193.441998,123.849997 196.072091,123.394038 198.700611,122.931325 C200.987203,122.528925 201.012671,122.487931 200.637258,120.180176 M187.213254,123.79848 C187.147541,123.176346 187.030736,122.557668 186.902925,121.944329 C186.68472,120.896863 186.292014,120.64823 185.239192,120.836236 C183.72622,121.106388 182.212463,121.372299 180.624346,121.653131 C180.11625,118.81167 179.630791,116.11518 179.152564,113.41759 C178.724014,111.000676 178.317317,108.579677 177.873046,106.165747 C177.685812,105.148124 177.293263,104.880014 176.284615,105.00865 C175.688639,105.084669 175.097694,105.202782 174.507377,105.31744 C173.136679,105.583665 172.872255,106.009467 173.135264,107.392267 C173.418239,108.879985 173.670873,110.373516 173.934668,111.864847 C174.739888,116.417058 175.537405,120.970841 176.35473,125.521011 C176.510995,126.391622 177.021293,126.747845 177.870846,126.600832 C180.653273,126.119585 183.432713,125.622004 186.210895,125.11704 C186.987975,124.975839 187.295474,124.575951 187.213254,123.79848 M171.576074,108.892865 C171.48678,108.272144 171.375319,107.653309 171.243422,107.040127 C171.09093,106.331293 170.609087,106.015436 169.913126,106.134334 C166.586287,106.702281 163.261807,107.284363 159.939841,107.880896 C159.190116,108.0155 158.868468,108.473659 158.946915,109.231025 C158.998007,109.724209 159.104123,110.212524 159.200177,110.700053 C159.448251,111.961756 159.780747,112.186359 161.039827,111.964269 C161.748207,111.839402 162.457058,111.717677 163.219989,111.585114 C163.608922,113.766117 163.978204,115.821783 164.341512,117.878547 C164.892055,120.994087 165.429235,124.112139 165.991726,127.225479 C166.181476,128.275301 166.558462,128.529275 167.641626,128.391686 C168.237759,128.315981 168.826975,128.187659 169.419335,128.083368 C170.661437,127.864576 170.980727,127.440344 170.76378,126.19262 C170.17252,122.79248 169.563181,119.395323 168.961545,115.99691 C168.657033,114.276421 168.353779,112.555618 168.034803,110.748901 C168.981825,110.571103 169.805124,110.434928 170.619462,110.258073 C171.369817,110.095039 171.683604,109.639865 171.576074,108.892865 M160.692868,124.5937 C160.471991,121.823232 159.359429,119.781074 156.528582,118.8668 C154.990614,118.370003 153.525592,117.642479 152.041075,116.988461 C150.666604,116.382818 150.50578,115.956701 150.418372,114.337676 C150.374197,113.518112 150.949264,112.930061 151.779481,112.748808 C152.490376,112.593785 153.208974,112.905402 153.54257,113.607953 C153.740495,114.024646 153.828217,114.498825 153.928673,114.955256 C154.08148,115.649482 154.510972,116.041987 155.200959,115.970366 C156.109465,115.876127 157.034949,115.758485 157.89472,115.474041 C158.2574,115.3542 158.731068,114.766778 158.709216,114.420135 C158.570558,112.23018 157.820675,110.330166 155.702767,109.273276 C154.046894,108.446958 152.313359,108.481826 150.560803,108.876216 C146.967182,109.684943 145.338034,111.845528 145.674302,115.486449 C145.909171,118.0309 146.950989,120.020912 149.588785,120.912256 C151.072358,121.413607 152.477328,122.142388 153.937005,122.719601 C155.072362,123.16865 155.705754,123.910153 155.816429,125.162746 C155.918771,126.320157 155.572127,126.988782 154.540213,127.245269 C153.578728,127.484322 152.672895,126.946375 152.373256,125.919956 C152.24183,125.470122 152.195296,124.996257 152.095155,124.536528 C151.956497,123.89963 151.593818,123.46456 150.900687,123.546391 C149.993439,123.653509 149.06764,123.754816 148.206925,124.034392 C147.839058,124.153918 147.34794,124.732859 147.36822,125.076203 C147.558285,128.304515 148.887794,131.494032 153.387248,131.466412 C154.111821,131.370265 154.844882,131.315763 155.559708,131.171106 C159.323271,130.409342 160.984018,128.246872 160.692868,124.5937 M146.749449,130.927656 C146.724295,130.641955 146.654809,130.360494 146.623368,130.075107 C146.332061,127.437831 145.60686,127.822954 143.737498,128.164256 C142.279549,128.430638 140.814369,128.65634 139.293538,128.91 C139.059769,127.566467 138.867189,126.304293 138.610783,125.054999 C138.492877,124.479828 138.562991,124.204336 139.224995,124.115437 C140.598208,123.931043 141.962303,123.673928 143.324197,123.415399 C144.158501,123.25692 144.45924,122.788239 144.329544,121.950455 C144.257542,121.485228 144.168091,121.022829 144.090744,120.558546 C143.897064,119.394695 143.543503,119.119988 142.38315,119.312079 C141.065588,119.529928 139.754786,119.787671 138.438797,120.015572 C138.118407,120.071016 137.736391,120.21316 137.649769,119.677097 C137.479041,118.621621 137.300138,117.567402 137.104886,116.394755 C137.452316,116.315437 137.725229,116.240675 138.002702,116.19167 C139.522433,115.923718 141.046094,115.677126 142.562681,115.39221 C143.376705,115.239229 143.677287,114.823949 143.587678,114.004856 C143.525267,113.434239 143.404531,112.868963 143.291341,112.3051 C143.06842,111.193865 142.734353,110.931567 141.609057,111.122087 C138.693631,111.615899 135.782451,112.134527 132.873157,112.66305 C131.833225,112.852 131.58295,113.268221 131.770027,114.324954 C132.335348,117.51824 132.897524,120.712312 133.46143,123.905913 C133.975343,126.81554 134.487213,129.725638 135.005685,132.634637 C135.202038,133.735662 135.60119,134.017593 136.679323,133.838853 C137.118249,133.765975 137.555916,133.684459 137.994055,133.607026 C140.57164,133.150752 143.148282,132.689138 145.727438,132.241975 C146.485339,132.110511 146.815319,131.675285 146.749449,130.927656 M132.682935,133.168029 C132.36789,131.338694 132.053631,129.508888 131.70683,127.685365 C131.368518,125.905977 130.561725,124.528675 128.314121,124.28601 C129.952072,123.403305 130.260357,122.128252 130.093402,120.684983 C129.967321,119.596052 129.76751,118.514189 129.568484,117.435153 C129.142765,115.127084 127.397754,113.773656 125.046864,114.095953 C122.456231,114.451077 119.883676,114.944889 117.309865,115.414356 C116.498356,115.562311 116.226543,116.081254 116.394284,117.033381 C117.478706,123.186555 118.570674,129.338473 119.667515,135.489605 C119.827239,136.385189 120.243683,136.690838 121.158477,136.573353 C121.910247,136.476758 122.659343,136.346237 123.400894,136.189487 C124.238499,136.012474 124.545055,135.582588 124.446328,134.721087 C124.375113,134.098639 124.243373,133.482944 124.133641,132.865051 C123.80995,131.044041 123.483586,129.223344 123.160837,127.416313 C123.296351,127.338409 123.358134,127.279509 123.428406,127.266159 C123.968101,127.164695 124.508111,127.064016 125.050637,126.978416 C126.323237,126.777216 126.55842,126.948102 126.787001,128.212632 C127.140562,130.16809 127.489092,132.12449 127.8513,134.078377 C128.005993,134.913491 128.471958,135.261861 129.28158,135.142492 C130.057402,135.027835 130.831337,134.893858 131.600085,134.738364 C132.515351,134.553342 132.840143,134.081205 132.682935,133.168029 M236.527564,121.601614 C196.205718,128.70503 155.94361,135.798081 115.572714,142.910293 C113.706182,132.325533 111.860087,121.856216 110,111.307737 C150.358476,104.197724 190.606749,97.1071864 230.948561,90 C232.808019,100.533086 234.655844,110.999419 236.527564,121.601614 M276.229696,162.30875 C275.518015,162.453721 274.795801,162.547017 274.052835,162.667486 C273.997026,162.460161 273.946405,162.315347 273.919523,162.165978 C273.508423,159.876443 273.077673,157.590207 272.704618,155.294389 C272.584511,154.55477 272.232994,154.367863 271.569261,154.544247 C271.418184,154.584456 271.262076,154.613984 271.106597,154.627491 C270.428873,154.686077 270.22576,155.038059 270.346024,155.696161 C270.871728,158.574846 271.382183,161.456673 271.876917,164.341013 C271.985391,164.973199 272.284558,165.176912 272.909303,165.052674 C274.11509,164.812993 275.323391,164.572055 276.54144,164.413577 C277.336913,164.310071 277.295096,163.831965 277.196369,163.286165 C277.100001,162.75183 277.081607,162.135193 276.229696,162.30875 M206.685842,166.101082 C206.123194,165.775172 204.84965,166.365893 204.636476,167.001221 C204.322846,167.937013 204.020692,168.87689 203.654869,169.994406 C203.039084,169.220077 202.451912,168.610822 202.020218,167.906229 C201.483352,167.030278 200.813174,166.907453 199.896336,167.165511 C199.28684,167.337026 199.139693,167.572309 199.518879,168.080728 C199.877943,168.562289 200.211224,169.070394 200.620908,169.505935 C202.282599,171.272443 203.303194,173.302036 203.456157,175.761986 C203.549696,177.26337 203.713036,177.282532 205.342341,176.954423 C205.861599,176.849818 206.031384,176.576368 205.929356,176.05931 C205.757213,175.189171 205.662574,174.302382 205.460561,173.439939 C205.240156,172.497707 205.269396,171.619086 205.618556,170.695701 C206.097883,169.428502 206.466694,168.117952 206.841321,166.813999 C206.902946,166.599449 206.832517,166.186054 206.685842,166.101082 M195.827003,167.977222 C195.228355,167.658537 193.997572,168.244861 193.78031,168.899978 C193.469353,169.836399 193.169714,170.776747 192.809864,171.886567 C192.189364,171.105326 191.608008,170.491674 191.168926,169.78928 C190.652497,168.96359 190.025236,168.769143 189.122704,169.041494 C188.370306,169.268138 188.266392,169.410439 188.725282,170.026291 C189.396875,170.927529 190.052433,171.845416 190.787696,172.693253 C191.68897,173.732551 192.260894,174.874256 192.351603,176.263966 C192.392005,176.885629 192.555816,177.499281 192.667277,178.115918 C192.826843,178.99611 192.985623,179.105113 193.887212,178.956843 C194.041905,178.931399 194.192824,178.878782 194.347832,178.861034 C194.96566,178.790826 195.215463,178.504182 195.070518,177.852834 C194.877309,176.987093 194.776696,176.100932 194.591033,175.233306 C194.407099,174.374318 194.410872,173.56135 194.721515,172.7132 C195.205402,171.391027 195.605969,170.037128 195.999775,168.684171 C196.060929,168.473547 195.974936,168.055754 195.827003,167.977222 M170.365728,180.937275 C169.588177,181.124653 168.788302,181.21952 167.949596,181.363078 C167.81314,180.5699 167.690517,179.856354 167.553746,179.061292 C168.330197,178.918205 168.990629,178.767894 169.659392,178.681352 C170.284923,178.600463 170.533784,178.321202 170.406131,177.682419 C170.283194,177.067196 170.226756,176.448988 169.323124,176.644691 C168.641784,176.792332 167.950382,176.892854 167.199399,177.025573 C167.077248,176.362603 166.970976,175.786017 166.855428,175.159014 C167.775881,174.998965 168.622447,174.855408 169.467756,174.70384 C170.202389,174.571749 170.07961,174.033801 169.97994,173.544544 C169.885458,173.081517 169.903694,172.458912 169.144221,172.585035 C167.701522,172.825187 166.256622,173.06157 164.829486,173.375542 C164.592888,173.427688 164.244043,173.898097 164.280358,174.120815 C164.772734,177.133163 165.329565,180.135144 165.856213,183.141995 C165.957298,183.719208 166.252534,183.844703 166.798833,183.740255 C168.132587,183.485024 169.476559,183.283196 170.813615,183.043986 C171.618835,182.899958 171.671657,182.726558 171.530169,181.742075 C171.424211,181.002928 171.106808,180.758692 170.365728,180.937275 M255.115541,165.98344 C254.299317,166.159039 253.472716,166.28579 252.523336,166.456991 C252.389709,165.633029 252.271332,164.902048 252.14698,164.134001 C252.918558,163.994999 253.580404,163.843431 254.250897,163.763328 C255.032064,163.670031 255.060519,163.234019 254.952045,162.592566 C254.841842,161.940276 254.636371,161.564262 253.887431,161.729495 C253.206406,161.879649 252.513904,161.977971 251.77251,162.108492 C251.654761,161.448977 251.551161,160.868308 251.438757,160.238635 C252.353866,160.078272 253.202633,159.938641 254.047784,159.778906 C254.839012,159.62938 254.637786,159.043842 254.54802,158.541077 C254.466115,158.082448 254.417223,157.539632 253.716546,157.660415 C252.273532,157.909048 250.825803,158.140719 249.397095,158.456419 C249.167728,158.506994 248.836019,158.986199 248.87312,159.215357 C249.358265,162.208543 249.904877,165.191519 250.42618,168.178893 C250.520819,168.721553 250.765435,168.93736 251.344747,168.826472 C252.732109,168.560875 254.127017,168.33266 255.52161,168.106486 C256.28627,167.982405 256.220086,167.473829 256.119787,166.924573 C256.016501,166.359925 255.938369,165.806271 255.115541,165.98344 M155.983541,183.43225 C155.180522,183.627953 154.354236,183.727689 153.484717,183.878943 C153.348575,183.060007 153.227053,182.328555 153.100343,181.567576 C153.872393,181.428574 154.534868,181.28266 155.205203,181.196275 C155.840324,181.114601 156.058686,180.817591 155.937636,180.184934 C155.746471,179.185373 155.623691,179.041815 154.849441,179.170609 C154.162285,179.284952 153.477486,179.414688 152.738293,179.547093 C152.61457,178.89119 152.509712,178.334709 152.384418,177.670168 C153.298269,177.513417 154.120624,177.37143 154.943452,177.231486 C155.777598,177.089813 155.592093,176.495951 155.503742,175.955647 C155.419006,175.439061 155.311948,174.967395 154.577314,175.110481 C153.216835,175.37545 151.848809,175.601623 150.482828,175.837063 C150.006173,175.919208 149.698988,176.115382 149.797715,176.669821 C150.329078,179.655154 150.859656,182.640643 151.381587,185.627389 C151.478584,186.182771 151.761402,186.36528 152.31839,186.260675 C153.681228,186.004659 155.047524,185.763251 156.418379,185.555297 C157.218254,185.434042 157.188384,184.941487 157.081483,184.344955 C156.968922,183.718423 156.82146,183.227909 155.983541,183.43225 M283.924564,161.942946 C283.837785,161.333377 283.629641,160.964903 282.907427,161.121811 C282.075167,161.302749 281.229702,161.422747 280.350279,161.575885 C280.216338,160.764017 280.098589,160.050628 279.970464,159.274256 C280.71233,159.134469 281.370246,158.975205 282.037594,158.894473 C282.71076,158.813114 282.939026,158.520973 282.795337,157.843866 C282.586722,156.861583 282.484537,156.738444 281.678845,156.873834 C280.995776,156.988648 280.313807,157.110373 279.593007,157.235868 C279.472743,156.555934 279.374017,155.997254 279.263814,155.375277 C280.163201,155.214757 281.005366,155.060362 281.849573,154.915391 C282.511577,154.801676 282.522739,154.347288 282.397758,153.849078 C282.280166,153.379768 282.376378,152.668735 281.564869,152.79423 C280.092929,153.022131 278.624448,153.283016 277.169644,153.599659 C276.955684,153.646307 276.646927,154.104151 276.68277,154.322157 C277.183478,157.363091 277.736065,160.395543 278.27749,163.429722 C278.365212,163.922278 278.662807,164.048087 279.136318,163.961387 C280.525252,163.707099 281.916072,163.461763 283.31098,163.243286 C284.195433,163.104598 284.007255,162.525185 283.924564,161.942946 M267.617362,159.432421 C267.313165,157.207439 267.296029,157.190948 265.554791,157.572772 C265.739039,158.602333 265.91637,159.59247 266.092129,160.57444 C267.531998,160.482871 267.738884,160.321094 267.617362,159.432421 M270.107068,159.722991 C270.328102,161.048304 269.672702,161.953155 268.338319,162.186396 C267.725836,162.293515 267.115554,162.413512 266.447105,162.538536 C266.595824,163.430508 266.70131,164.281328 266.888545,165.113929 C267.037736,165.777685 266.828335,166.11726 266.165073,166.200347 C266.009595,166.219823 265.849399,166.229561 265.701467,166.275424 C264.972335,166.50144 264.639054,166.203645 264.519104,165.482089 C264.15611,163.295118 263.762618,161.113172 263.381389,158.929342 C263.260181,158.2359 263.166171,157.536333 263.012264,156.850274 C262.887126,156.292693 263.078606,155.99694 263.624275,155.899717 C264.779912,155.693805 265.931934,155.464804 267.09213,155.288578 C268.461727,155.080624 269.424627,155.806892 269.665627,157.178854 C269.814346,158.02669 269.96558,158.873898 270.107068,159.722991 M245.744521,162.318174 C245.53905,161.181809 245.390488,161.113329 243.86777,161.522797 C244.044629,162.517803 244.222903,163.521134 244.39992,164.517554 C246.103899,164.337557 246.107986,164.330489 245.744521,162.318174 M248.423977,163.728145 C248.616399,164.977754 247.963042,165.871767 246.713395,166.104223 C246.09761,166.218566 245.480568,166.326941 244.751909,166.45809 C244.905344,167.37692 245.010673,168.231824 245.199323,169.068038 C245.35433,169.75504 245.084404,170.05362 244.443938,170.136079 C244.262205,170.159482 244.076228,170.171104 243.900626,170.218852 C243.223059,170.402775 242.943229,170.087546 242.835541,169.453004 C242.410922,166.95363 241.967123,164.457241 241.530399,161.960066 C241.458241,161.547928 241.405419,161.131235 241.308264,160.725222 C241.180925,160.193086 241.414065,159.921678 241.90817,159.831837 C243.091476,159.616815 244.272424,159.382317 245.462647,159.213629 C246.78068,159.027036 247.695946,159.71231 247.950151,161.025216 C248.123866,161.923156 248.284847,162.824237 248.423977,163.728145 M127.524936,183.063305 C127.319622,181.91893 127.190711,181.857361 125.638438,182.248924 C125.826302,183.278641 126.006619,184.266422 126.185679,185.248078 C127.881955,185.068867 127.884156,185.06494 127.524936,183.063305 M130.189614,184.359404 C130.409862,185.697126 129.775685,186.588155 128.437215,186.842129 C127.826461,186.958043 127.215078,187.070816 126.535939,187.197724 C126.683872,188.097863 126.789202,188.949626 126.972035,189.784426 C127.117924,190.450852 126.899247,190.786186 126.2363,190.866446 C125.976593,190.897702 125.717985,190.939795 125.460007,190.983616 C125.013378,191.059479 124.761531,190.871315 124.683398,190.431062 C124.144646,187.394684 123.590487,184.361132 123.096382,181.317686 C123.061639,181.103763 123.429035,180.652045 123.675694,180.594559 C124.845008,180.322208 126.033188,180.118652 127.222782,179.94698 C128.538457,179.757246 129.460011,180.433567 129.72019,181.735478 C129.894377,182.606717 130.04514,183.482825 130.189614,184.359404 M221.115978,164.382478 C220.958455,163.48925 220.813195,163.408518 219.730502,163.606734 C218.741663,163.78783 218.638063,163.92589 218.79873,164.822574 C219.190178,167.006875 219.584613,169.190548 219.966,171.37642 C220.070072,171.973581 220.08202,172.607338 219.314372,172.73943 C218.588071,172.864296 218.326319,172.36216 218.21533,171.71678 C217.835044,169.504521 217.436678,167.295403 217.035011,165.0866 C216.868528,164.170126 216.803915,164.178922 215.56653,164.348238 C214.845888,164.446717 214.543891,164.716555 214.685536,165.472979 C215.112985,167.75686 215.500031,170.04828 215.917104,172.334202 C216.206839,173.922128 217.246928,174.767609 218.880321,174.775693 C221.396437,174.788027 222.690417,173.245336 222.245361,170.7835 C221.860044,168.651345 221.492334,166.516204 221.115978,164.382478 M260.790913,164.963461 C260.418487,162.89366 260.105485,161.072335 259.754282,159.25855 C259.660272,158.772748 259.302309,158.478566 258.780063,158.560553 C258.216158,158.649295 257.973586,159.06913 258.05722,159.588386 C258.347269,161.386622 258.642349,163.186429 259.031754,164.964717 C259.098882,165.270837 259.651625,165.691143 259.94922,165.667583 C260.277157,165.641824 260.569407,165.165132 260.790913,164.963461 M263.04292,164.052327 C263.403555,166.155269 261.934917,167.718222 259.63449,167.69906 C257.956293,167.684924 256.9423,166.849967 256.637316,165.197959 C256.324472,163.504485 256.025462,161.808341 255.736671,160.110627 C255.422569,158.264957 256.475235,156.94467 258.527587,156.583578 C260.355603,156.262223 261.813552,157.222361 262.132999,158.96798 C262.442542,160.661611 262.751927,162.355398 263.04292,164.052327 M135.652283,186.955844 C135.278442,184.874577 134.967956,183.018384 134.598359,181.173814 C134.50089,180.687384 134.032567,180.365715 133.58248,180.592674 C133.270422,180.749896 132.904913,181.273236 132.946573,181.581084 C133.191503,183.392827 133.511422,185.19766 133.906014,186.982702 C133.97157,187.278927 134.535319,187.658553 134.857438,187.648186 C135.155505,187.638448 135.438479,187.157673 135.652283,186.955844 M137.907276,186.087275 C138.246846,188.156919 136.792042,189.691443 134.528244,189.68956 C132.853506,189.688145 131.802412,188.843921 131.501044,187.215315 C131.183169,185.496711 130.881801,183.774809 130.597097,182.050708 C130.297301,180.235352 131.34195,178.939566 133.360974,178.583029 C135.229235,178.252879 136.654485,179.161185 136.987294,180.924709 C137.3113,182.642214 137.624459,184.362546 137.907276,186.087275 M212.530998,173.470567 C212.156056,171.387886 211.859247,169.527453 211.44972,167.692306 C211.388095,167.4165 210.788817,167.083052 210.458523,167.103627 C210.216265,167.118862 209.782528,167.700002 209.820258,167.976123 C210.075249,169.838755 210.399727,171.694163 210.794005,173.532293 C210.853115,173.808099 211.414506,174.17783 211.707699,174.148145 C212.028403,174.115632 212.307291,173.670196 212.530998,173.470567 M214.696697,172.17541 C215.137666,174.625465 213.826236,176.197841 211.347692,176.18025 C209.728605,176.168784 208.685372,175.323147 208.385105,173.727211 C208.061727,172.008921 207.758787,170.286704 207.473455,168.561975 C207.16627,166.705153 208.211075,165.425075 210.291253,165.066495 C212.134833,164.748596 213.552851,165.699153 213.86994,167.473986 C214.149613,169.040394 214.414823,170.609316 214.696697,172.17541 M160.652466,176.382864 C160.472462,176.139256 159.691452,176.3392 159.11497,176.3392 C159.263375,177.184052 159.387569,177.891001 159.557354,178.857578 C160.14264,178.570778 160.904785,178.426592 160.990463,178.103353 C161.130064,177.576714 160.977572,176.822646 160.652466,176.382864 M164.530162,183.40979 C164.628103,183.955119 164.425147,184.224957 163.864857,184.326892 C162.294348,184.612907 162.297963,184.629085 162.023792,183.025295 C161.927109,182.45939 161.792225,181.897569 161.736573,181.327895 C161.661428,180.557492 161.345596,180.221373 160.554211,180.509116 C160.387413,180.5699 160.199077,180.571942 159.912801,180.618747 C159.981973,181.119627 160.039354,181.597418 160.115914,182.072383 C160.190903,182.536195 160.284913,182.997024 160.37122,183.459109 C160.627155,184.829029 160.174396,185.353625 158.772256,185.167817 C158.518994,185.134206 158.186656,184.673063 158.127546,184.363959 C157.651048,181.877151 157.219197,179.381704 156.797722,176.884686 C156.466327,174.91949 156.480948,174.913836 158.480478,174.52887 C159.199076,174.390496 159.918461,174.252907 160.64209,174.144689 C161.866742,173.961552 162.752924,174.563895 163.020964,175.754761 C163.118276,176.187004 163.186818,176.626943 163.244514,177.06641 C163.345441,177.833201 163.351415,178.579731 162.497618,179.131028 C163.624486,179.368039 163.97113,180.115511 164.121735,181.016749 C164.255205,181.814796 164.387103,182.613314 164.530162,183.40979 M238.013496,166.995095 C237.596265,164.821317 237.587462,164.822888 235.404469,165.257172 C234.196639,165.497482 234.215661,165.542402 234.412643,166.745048 C234.547842,167.568382 235.135172,167.312838 235.663863,167.392941 C235.756615,167.915496 235.837892,168.376795 235.920269,168.838252 C236.029057,169.446878 235.928444,169.983569 235.22651,170.097598 C234.568908,170.204716 234.287977,169.736977 234.187049,169.174214 C233.891498,167.527388 233.618899,165.876479 233.330737,164.22824 C233.230909,163.657623 233.294264,163.128629 233.933158,162.971721 C234.627704,162.801148 234.950924,163.266846 235.051851,163.872959 C235.142089,164.415461 235.435596,164.573783 235.93489,164.482057 C236.192396,164.434938 236.451318,164.396771 236.708354,164.347766 C237.268643,164.240648 237.496752,163.954162 237.373344,163.347106 C237.02387,161.625204 235.63305,160.666322 233.824842,160.947626 C231.831914,161.257672 230.720924,162.500055 230.974029,164.285569 C231.249301,166.22532 231.601761,168.155962 231.983777,170.077965 C232.174628,171.038574 232.66606,171.857039 233.701119,172.135358 C234.745138,172.416033 235.601451,172.058553 236.109076,171.426838 C236.821386,171.379719 237.34033,171.346578 237.85896,171.310924 C238.493295,171.26726 238.725334,170.96067 238.596738,170.315918 C238.376961,169.213951 238.225098,168.09879 238.013496,166.995095 M176.293733,179.361914 C176.029466,177.664513 175.73423,175.970254 175.372336,174.291702 C175.318886,174.044168 174.856536,173.811712 174.539919,173.717316 C174.299705,173.645694 173.990634,173.804644 173.584565,173.886632 C173.972869,176.084598 174.351898,178.228376 174.728255,180.357862 C176.018934,180.390218 176.416827,180.152893 176.293733,179.361914 M178.754041,179.363641 C178.984508,180.649532 178.316059,181.740976 177.044874,182.013012 C175.871001,182.264159 174.679206,182.432218 173.497315,182.647554 C172.98686,182.74038 172.709859,182.563525 172.617892,182.037671 C172.092503,179.030664 171.541331,176.028054 171.04644,173.016178 C171.010439,172.797229 171.312279,172.339542 171.523095,172.293051 C172.847102,172.001853 174.189817,171.795941 175.290117,171.603065 C176.70782,171.590343 177.499834,172.261638 177.704048,173.428316 C178.050534,175.407334 178.399379,177.386037 178.754041,179.363641 M186.604859,176.015489 C186.454882,175.773766 185.589766,175.974652 184.978855,175.974652 C185.14691,176.908874 185.291542,177.712889 185.472803,178.721403 C186.079312,178.446382 186.927135,178.291045 186.983573,177.988538 C187.101165,177.358551 186.943485,176.561604 186.604859,176.015489 M184.691321,174.374475 C185.271576,174.094428 186.004952,173.968934 186.12899,173.624333 C186.294844,173.163662 186.150213,172.394358 185.830451,172.0218 C185.598412,171.751491 184.865979,171.909342 184.260571,171.870232 C184.410705,172.743827 184.528768,173.430044 184.691321,174.374475 M189.330376,176.588619 C189.790682,179.252282 189.421557,179.809077 186.749019,180.32001 C185.978856,180.467336 185.19313,180.545712 184.434129,180.734504 C183.634882,180.933505 183.352379,180.597386 183.232115,179.864836 C182.876982,177.700638 182.484276,175.542253 182.105561,173.381825 C181.979323,172.661368 181.857487,171.939969 181.721816,171.22124 C181.622932,170.696644 181.853242,170.434031 182.355994,170.347174 C183.48915,170.151471 184.618377,169.932994 185.753734,169.752527 C186.929179,169.565776 187.869598,170.249637 188.091891,171.421812 C188.160119,171.780705 188.208225,172.143368 188.27661,172.502105 C188.427687,173.294811 188.328803,174.005216 187.513522,174.562011 C188.820865,174.707453 189.152888,175.560315 189.330376,176.588619 M229.403205,162.722459 C229.363432,162.508694 229.078413,162.215611 228.868698,162.178386 C227.526612,161.941846 226.991003,162.489218 227.209208,163.807306 C227.247567,164.039134 227.293158,164.269862 227.332145,164.501533 C227.513092,165.575229 227.692466,166.649081 227.87247,167.722934 C226.911613,166.543534 226.117869,165.317956 225.312806,164.099604 C224.365156,162.665916 224.742141,162.87811 222.994143,163.131142 C222.446587,163.21046 222.223195,163.494747 222.32255,164.050286 C222.856115,167.034519 223.384806,170.019694 223.907523,173.005969 C223.994459,173.502137 224.273346,173.662814 224.744813,173.571716 C224.975909,173.527267 225.209049,173.490043 225.442503,173.461771 C226.088157,173.383553 226.342363,173.087328 226.20229,172.397342 C225.917115,170.992083 225.699696,169.573001 225.454294,168.159417 C225.512304,168.131146 225.570313,168.10256 225.628323,168.074131 C226.411691,169.267981 227.194431,170.461989 227.978428,171.655368 C228.813832,172.92775 228.810059,172.907489 230.318314,172.592417 C230.86697,172.477917 231.096494,172.230853 230.998711,171.677514 C230.470963,168.69171 229.956106,165.703551 229.403205,162.722459 M148.555613,176.425888 C147.994852,176.447261 147.411767,176.469564 146.890936,176.65066 C146.691439,176.720082 146.539733,177.200544 146.531558,177.498339 C146.495086,178.805119 146.521497,180.113469 146.518981,181.421192 C146.518353,181.696369 146.491313,181.971547 146.472133,182.326671 C146.345424,182.206987 146.289929,182.178873 146.274523,182.136622 C145.759195,180.712515 145.222643,179.295632 144.746617,177.858489 C144.527469,177.197245 144.152213,176.987564 143.503729,177.157351 C143.277035,177.216721 143.04028,177.237297 142.808712,177.279704 C141.625563,177.496297 141.580602,177.548442 141.579187,178.742136 C141.577458,180.245404 141.578715,181.748672 141.578715,183.254296 C141.537684,183.248013 141.495867,183.250683 141.491779,183.239532 C140.97991,181.846366 140.467411,180.453201 139.962616,179.057365 C139.5468,177.907336 139.462537,177.855661 138.248732,178.084976 C137.323405,178.259632 137.271369,178.358583 137.611882,179.288564 C138.51017,181.741133 139.415846,184.191188 140.303286,186.647526 C140.938092,188.405239 140.922843,188.386705 142.738754,188.055927 C143.462698,187.923992 143.758249,187.598083 143.739384,186.846056 C143.697567,185.184938 143.726336,183.521934 143.726336,181.85956 L143.900365,181.828304 C144.378435,183.109796 144.857134,184.390975 145.334418,185.672624 C146.072982,187.655254 145.753063,187.478085 147.955392,187.1305 C147.981174,187.126417 148.007428,187.124218 148.033053,187.119035 C148.536905,187.020398 148.793155,186.75166 148.790658,186.201462 C148.776962,183.141209 148.788596,180.081114 148.774132,177.020861 C148.773189,176.812593 148.623999,176.423387 148.555613,176.425888 M189.050074,156.40044 C188.98216,155.961287 188.917548,155.521505 188.838158,155.084393 C188.595428,153.749499 188.272366,153.540917 186.896165,153.78688 C185.459126,154.043367 184.0202,154.288702 182.492608,154.554456 C182.294054,153.404113 182.124426,152.401725 181.94741,151.40075 C181.214506,147.25518 180.484274,143.10898 179.740679,138.965294 C179.586144,138.104108 179.081506,137.765633 178.221105,137.89851 C177.548883,138.002487 176.87729,138.114003 176.209627,138.243581 C175.128821,138.453577 174.834685,138.869014 175.019247,139.939568 C175.498732,142.722287 175.986706,145.503592 176.474837,148.284897 C177.062481,151.633363 177.648239,154.981987 178.246573,158.328569 C178.416987,159.28101 178.922725,159.618071 179.867389,159.454567 C180.330996,159.374307 180.791301,159.274885 181.254594,159.193525 C183.471386,158.803847 185.691008,158.43019 187.904813,158.02402 C188.98389,157.825961 189.214514,157.465654 189.050074,156.40044 M267.671914,124.97521 C267.83258,125.902207 268.275121,126.22262 269.202335,126.083146 C270.017302,125.960793 270.831168,125.829486 271.702573,125.693154 C271.93304,127.036216 272.137883,128.269646 272.357817,129.500564 C273.069655,133.487185 273.778035,137.474435 274.509368,141.4576 C274.678524,142.378315 275.092767,142.652393 276.011806,142.519359 C276.709967,142.418209 277.402155,142.270568 278.093242,142.127011 C279.100789,141.917643 279.40027,141.48006 279.219481,140.450814 C278.686388,137.414279 278.137417,134.38057 277.604796,131.344035 C277.230798,129.212978 276.873149,127.079095 276.491762,124.849244 C277.402941,124.670976 278.266957,124.506843 279.128457,124.331558 C279.846584,124.185331 280.139149,123.723089 280.034291,123.017396 C279.94594,122.42322 279.838881,121.830614 279.709342,121.243977 C279.533426,120.44593 279.105662,120.13824 278.285193,120.278656 C274.986023,120.842833 271.689368,121.42146 268.394914,122.012338 C267.615004,122.152283 267.332658,122.555154 267.415193,123.350217 C267.471945,123.894918 267.57806,124.434907 267.671914,124.97521 M242.266448,148.448559 C245.410296,147.9048 248.551944,147.348319 251.691548,146.781001 C252.373674,146.657705 252.711829,146.164992 252.611058,145.472964 C252.509502,144.775282 252.362827,144.083882 252.23596,143.389813 C252.115696,142.730925 251.692334,142.45025 251.05627,142.515903 C250.458722,142.57763 249.86589,142.689146 249.273372,142.792338 C247.941662,143.024323 246.611367,143.264789 245.196808,143.516721 C244.903614,141.933507 244.625356,140.431181 244.335464,138.865244 C244.7659,138.771319 245.115688,138.681949 245.470507,138.620066 C246.706949,138.404416 247.946064,138.205886 249.18172,137.985681 C249.997158,137.840396 250.320536,137.423703 250.221809,136.620473 C250.145563,135.999124 250.033159,135.381074 249.909436,134.767107 C249.773451,134.092827 249.328867,133.789221 248.656016,133.869324 C248.08535,133.937333 247.520816,134.056388 246.953294,134.15047 C245.859126,134.332037 244.764642,134.512191 243.635416,134.698627 C243.400076,133.408967 243.185644,132.233022 242.957063,130.980429 C243.272265,130.898913 243.537633,130.810799 243.810232,130.763052 C245.304652,130.501224 246.80206,130.255732 248.296166,129.991863 C249.265983,129.820662 249.537953,129.465539 249.419261,128.473046 C249.344745,127.851854 249.220707,127.234589 249.085351,126.622978 C248.90802,125.821005 248.477113,125.529178 247.668906,125.668338 C244.756625,126.169846 241.845444,126.677166 238.93615,127.19548 C237.723918,127.411444 237.471442,127.830179 237.691376,129.060154 C238.463897,133.380852 239.226514,137.703278 239.990545,142.025233 C240.304647,143.801165 240.597998,145.580554 240.930493,147.352717 C241.091317,148.208878 241.543605,148.573582 242.266448,148.448559 M167.365568,144.242675 C168.968462,143.991999 170.563496,143.685409 172.155072,143.367352 C172.975069,143.203376 173.24924,142.767678 173.120959,141.952512 C173.039839,141.435925 172.928379,140.924365 172.840185,140.408878 C172.634714,139.207331 172.272349,138.95163 171.072379,139.163667 C168.211505,139.669573 165.350474,140.175165 162.488971,140.677616 C161.463345,140.857769 161.150187,141.287813 161.328304,142.300882 C162.401564,148.405052 163.474981,154.509222 164.550756,160.613235 C164.754498,161.769546 165.178017,162.051478 166.452346,161.831116 C169.392453,161.322697 172.330202,160.800613 175.267321,160.275859 C176.060122,160.134187 176.390102,159.693777 176.286816,158.883322 C176.200823,158.210142 176.078515,157.539789 175.935613,156.876032 C175.786265,156.181963 175.314012,155.860608 174.612078,155.9627 C173.990634,156.053169 173.375321,156.185418 172.756078,156.29128 C171.477505,156.509914 170.197987,156.723208 168.851028,156.95001 C168.561608,155.336954 168.292467,153.836513 168.017668,152.30513 C169.71866,151.987545 171.291056,151.711582 172.855277,151.39541 C173.77746,151.209131 174.050373,150.79071 173.908571,149.890885 C173.831382,149.400372 173.735642,148.912057 173.628112,148.427198 C173.404562,147.420098 173.019245,147.159527 172.006667,147.333555 C170.485836,147.594597 168.966733,147.865848 167.313847,148.156104 C167.111205,147.099999 166.936075,146.102009 166.723687,145.111715 C166.602323,144.546124 166.783112,144.333773 167.365568,144.242675 M138.744881,149.275034 C140.395881,149.005354 142.039964,148.692952 143.68389,148.381335 C144.470717,148.231966 144.780102,147.77318 144.655436,146.974505 C144.57919,146.484776 144.466157,146.001016 144.388811,145.511602 C144.184283,144.218644 143.82805,143.95666 142.537213,144.183461 C139.678383,144.686069 136.819868,145.191347 133.961509,145.696153 C132.993578,145.86704 132.678533,146.321586 132.850519,147.293032 C133.920635,153.339716 134.991537,159.386244 136.060081,165.433085 C136.306111,166.825308 136.636091,167.065617 138.018108,166.823895 C140.928345,166.314847 143.837954,165.803758 146.747719,165.292198 C147.582337,165.145499 147.921435,164.711372 147.815949,163.859138 C147.745362,163.289777 147.610006,162.728585 147.514109,162.162209 C147.348254,161.182438 146.926465,160.876161 145.944543,161.035425 C145.660782,161.081602 145.376864,161.127465 145.093261,161.17427 C143.551835,161.428715 142.010252,161.683318 140.393366,161.950328 C140.141833,160.60868 139.924257,159.352632 139.665021,158.105379 C139.535638,157.483559 139.706209,157.220162 140.368684,157.132205 C141.689547,156.95645 143.001921,156.706717 144.31115,156.453371 C145.30219,156.261752 145.585322,155.815844 145.411136,154.843927 C145.332846,154.406972 145.26053,153.968761 145.172494,153.533534 C144.94297,152.400311 144.545548,152.142568 143.406103,152.355077 C142.094515,152.599941 140.778998,152.824858 139.469611,153.080245 C139.017637,153.168359 138.792201,153.052759 138.718942,152.573397 C138.585001,151.69509 138.409242,150.823223 138.244802,149.949785 C138.167141,149.537018 138.289921,149.349483 138.744881,149.275034 M207.893043,137.505376 C208.237958,139.272985 208.554575,141.046247 208.893359,142.877781 C209.114865,142.877781 209.272545,142.896472 209.424565,142.874326 C209.941937,142.798463 210.461824,142.729041 210.972279,142.618781 C211.806426,142.43847 212.130274,142.013139 212.012683,141.15525 C211.849501,139.964384 211.646388,138.777916 211.421894,137.596945 C211.216423,136.515867 210.834879,136.268333 209.713042,136.407022 C209.323952,136.45524 208.938477,136.556704 208.548915,136.573824 C207.896659,136.602253 207.780796,136.930362 207.893043,137.505376 M207.572496,154.569849 C206.442483,154.768693 205.961112,154.444982 205.760986,153.302178 C205.004029,148.978496 204.261535,144.652457 203.504735,140.328932 C203.216415,138.681478 202.896339,137.039679 202.604089,135.392853 C202.354443,133.986337 202.622325,133.582995 204.009373,133.33546 C206.300996,132.926778 208.59655,132.539613 210.891631,132.151348 C211.199759,132.099203 211.515748,132.093234 211.611016,132.084873 C214.012842,132.076742 215.671859,133.429699 216.046487,135.53594 C216.394231,137.490769 216.736473,139.446384 217.07054,141.40357 C217.469692,143.741795 216.12399,145.681389 213.794165,146.121171 C212.612117,146.34436 211.429283,146.572575 210.238274,146.736551 C209.662421,146.815869 209.574227,147.047226 209.676412,147.570252 C209.996803,149.210952 210.293611,150.856992 210.557407,152.507901 C210.749515,153.708505 210.478645,154.044152 209.271601,154.268441 C208.706124,154.37336 208.139074,154.47027 207.572496,154.569849 M153.885913,164.020286 C155.331127,163.778877 156.774927,163.529615 158.218255,163.276898 C159.347481,163.079153 159.709217,162.670628 159.706404,161.541174 C159.695225,156.778966 159.674631,152.017073 159.655452,147.25518 C159.649321,145.711232 159.639259,144.167441 159.627469,142.62365 C159.619294,141.539745 159.244981,141.237238 158.153013,141.429329 C157.585806,141.529065 157.020171,141.638382 156.453436,141.739846 C155.164644,141.97026 154.835135,142.330096 154.839537,143.619598 C154.847398,145.81725 154.890158,148.015059 154.901792,150.212711 C154.913268,152.355705 154.904307,154.499012 154.904307,156.642163 C154.863904,156.647974 154.823345,156.653943 154.782942,156.659754 C154.701037,156.446303 154.614415,156.234579 154.537698,156.019243 C153.153165,152.128432 151.769262,148.237306 150.386459,144.345709 C150.003657,143.268401 149.558287,142.985999 148.430161,143.152802 C147.757625,143.252224 147.08949,143.381488 146.420569,143.504156 C145.525583,143.668446 145.228617,144.167912 145.538946,145.035381 C147.661099,150.967094 149.787025,156.897393 151.91861,162.825808 C152.302984,163.894948 152.817526,164.198869 153.885913,164.020286 M198.021472,151.12306 C197.919601,150.528883 197.802795,149.833871 197.680959,149.139801 C197.147552,146.103109 196.624835,143.064217 196.069733,140.031451 C195.932647,139.282251 195.443415,138.677395 194.697148,138.588182 C194.196597,138.52834 193.552358,138.724985 193.148176,139.035188 C192.588672,139.464604 192.475954,140.16637 192.620429,140.897664 C192.863315,142.127482 193.052279,143.36798 193.272685,144.602353 C193.686143,146.917804 194.095198,149.23404 194.527992,151.546035 C194.71617,152.551094 195.556134,153.198044 196.47533,153.106632 C197.331642,153.021346 198.038293,152.162829 198.021472,151.12306 M197.554878,156.98268 C196.971793,157.11163 196.364498,157.130949 195.768365,157.200843 C192.443412,157.15121 190.251773,155.322189 189.691012,152.085396 C189.088905,148.609707 188.483811,145.134489 187.88359,141.658329 C187.318898,138.388395 188.990964,135.713423 192.194237,134.834331 C194.552674,134.187066 196.854516,134.142931 198.912999,135.752532 C200.093004,136.675288 200.647948,137.954739 200.900582,139.380731 C201.516052,142.854535 202.078385,146.337921 202.724511,149.805913 C203.472193,153.81688 200.995221,156.2228 197.554878,156.98268 M128.020613,162.839629 C127.489721,159.778435 126.860417,156.731847 126.420548,153.657773 C126.024069,150.886834 125.164141,151.230806 123.209572,151.599594 C122.687326,151.698231 122.525245,151.852155 122.633561,152.41963 C123.05425,154.625135 123.405296,156.843834 123.798159,159.05468 C124.149205,161.030399 124.521002,163.002506 124.900974,165.070108 C125.542069,164.974298 126.083337,164.902991 126.621146,164.811108 C127.838409,164.603154 128.233316,164.066149 128.020613,162.839629 M129.322296,168.354335 C127.004891,168.775112 124.684184,169.176727 122.365207,169.589179 C121.166966,169.802159 120.730714,169.515987 120.516911,168.317268 C119.883362,164.766344 119.259717,161.213694 118.635129,157.6612 C118.196047,155.164339 117.759165,152.667165 117.326371,150.169204 C117.141809,149.103833 117.417867,148.635309 118.396644,148.455312 C120.866856,148.001552 123.34147,147.57088 125.815611,147.138637 C126.071861,147.093717 126.337071,147.100156 126.452147,147.092617 C128.88793,147.108952 130.461112,148.406779 130.867495,150.671027 C131.610775,154.813927 132.343208,158.958556 133.052689,163.107111 C133.501203,165.728995 131.96135,167.874659 129.322296,168.354335 M254.443634,144.987791 C254.59534,145.841753 255.029077,146.164521 255.875957,146.052377 C256.601316,145.956253 257.323844,145.829501 258.041342,145.685787 C259.038199,145.486001 259.356546,145.006639 259.181573,144.006763 C258.929411,142.564908 258.664044,141.125251 258.413297,139.683081 C258.116016,137.972487 257.828168,136.260166 257.536232,134.54863 C257.769372,134.634544 257.872344,134.771034 257.966354,134.913649 C259.879734,137.816365 261.806006,140.710757 263.69439,143.629651 C264.14542,144.326705 264.699422,144.561517 265.483104,144.397384 C266.148724,144.258067 266.819688,144.145295 267.487823,144.018229 C268.846416,143.760172 269.094333,143.406776 268.854433,142.022406 C268.390198,139.343664 267.919202,136.666179 267.446791,133.98885 C266.856318,130.642112 266.267101,127.295216 265.665309,123.950362 C265.497568,123.017396 265.007864,122.640127 264.141647,122.771904 C263.366297,122.88986 262.598649,123.057762 261.826757,123.199749 C261.066656,123.339851 260.757113,123.809475 260.864486,124.550978 C260.991825,125.429599 261.136456,126.306021 261.291621,127.180087 C261.724886,129.621033 262.167427,132.060251 262.606195,134.49994 C262.556675,134.523499 262.50684,134.547059 262.457162,134.570619 C262.154065,134.126439 261.842793,133.6876 261.549442,133.236981 C259.823297,130.585254 258.099667,127.9318 256.379181,125.276618 C255.942928,124.603281 255.417224,124.223498 254.545505,124.456111 C253.841369,124.64396 253.105321,124.712284 252.383264,124.833224 C251.332642,125.009136 250.993387,125.462269 251.18125,126.531095 C252.262056,132.684584 253.350566,138.836658 254.443634,144.987791 M223.611657,139.725331 C223.844168,141.024258 224.079037,142.322871 224.308718,143.622269 C224.691048,145.785052 225.076051,147.947679 225.447219,150.112504 C225.583047,150.904425 225.275548,151.385829 224.502084,151.568653 C223.840709,151.724775 223.169902,151.849642 222.497051,151.944352 C221.546256,152.078328 221.134214,151.733885 220.955154,150.718775 C220.323491,147.138952 219.690729,143.559443 219.060324,139.979462 C218.625172,137.507418 218.192535,135.034903 217.76037,132.562387 C217.542479,131.315763 217.806432,130.946032 219.026053,130.732267 C220.211874,130.524627 221.400524,130.326882 222.576599,130.072909 C223.411217,129.892598 223.876081,130.252905 224.161414,130.974147 C224.989115,133.064366 225.811156,135.156785 226.640587,137.246376 C227.109067,138.426562 227.588237,139.602664 228.062691,140.780651 C228.156545,140.77107 228.250084,140.761489 228.34378,140.751751 C228.34378,139.400678 228.326015,138.049135 228.347867,136.698377 C228.380252,134.711192 228.43779,132.724321 228.490926,130.737293 C228.531015,129.231041 228.739158,128.991831 230.208583,128.735344 C231.265493,128.550793 232.323189,128.37111 233.380571,128.1897 C234.43591,128.008605 234.901246,128.314096 235.088481,129.370985 C236.092884,135.036159 237.086596,140.703218 238.085811,146.369334 C238.16756,146.832675 238.271789,147.292247 238.347877,147.756531 C238.499269,148.681486 238.181708,149.153623 237.271316,149.33252 C236.654903,149.453617 236.033616,149.553667 235.411229,149.639582 C234.411228,149.777642 234.01019,149.47325 233.836318,148.484055 C233.261565,145.213022 232.685397,141.942145 232.107657,138.671426 C232.08722,138.555512 232.045717,138.443211 232.013961,138.329182 C231.950921,138.337663 231.888195,138.346302 231.825154,138.35494 C231.766987,139.834177 231.698287,141.3131 231.653011,142.792809 C231.586827,144.962817 231.541236,147.133454 231.478825,149.303777 C231.458073,150.027532 231.121962,150.486476 230.357302,150.56595 C230.150101,150.587468 229.948718,150.658776 229.742146,150.689875 C228.482909,150.879923 228.179183,150.703225 227.716519,149.528066 C226.499256,146.437814 225.282151,143.347248 224.061587,140.258253 C223.981882,140.056738 223.873094,139.86669 223.611657,139.725331" id="logo-with-tagline"></path>
        </g>
    </g>
</svg>