<?xml version="1.0" encoding="utf-8"?>
<!-- Generator: Adobe Illustrator 24.0.1, SVG Export Plug-In . SVG Version: 6.00 Build 0)  -->
<svg version="1.1"
	 id="Layer_1" shape-rendering="geometricPrecision" image-rendering="optimizeQuality" text-rendering="geometricPrecision"
	 xmlns="http://www.w3.org/2000/svg" xmlns:xlink="http://www.w3.org/1999/xlink" x="0px" y="0px" viewBox="0 0 512 512"
	 style="enable-background:new 0 0 512 512;" xml:space="preserve">
<style type="text/css">
	.st0{fill-rule:evenodd;clip-rule:evenodd;fill:#33B2B6;}
</style>
<g id="Layer_x0020_1">
	<g id="_305932936">
		<g>
			<g>
				<g id="_274541040">
					<path class="st0" d="M209.8,448.5h-37.5c-8.7,0-15.7-7-15.7-15.7v-37.5c0-8.7,7-15.7,15.7-15.7h37.5c8.7,0,15.7,7,15.7,15.7
						v37.5C225.5,441.5,218.5,448.5,209.8,448.5z M172.4,390.1c-2.6,0-5.2,2.6-5.2,5.2v37.5c0,2.6,2.6,5.2,5.2,5.2h37.5
						c3.5,0,5.2-2.6,5.2-5.2v-37.5c0-2.6-1.7-5.2-5.2-5.2H172.4z"/>
				</g>
				<g id="_274541304">
					<path class="st0" d="M373.6,435.4H220.3c-2.6,0-5.2-2.6-5.2-5.2V398c0-2.6,2.6-5.2,5.2-5.2h153.3c12.2,0,21.8,9.6,21.8,21.8
						C395.4,425.9,385.8,435.4,373.6,435.4z M225.5,425h148.1c6.1,0,11.3-4.4,11.3-10.5s-5.2-11.3-11.3-11.3H225.5V425z
						 M161.9,435.4h-23.5c-12.2,0-21.8-9.6-21.8-20.9c0-12.2,9.6-21.8,21.8-21.8h23.5c2.6,0,5.2,2.6,5.2,5.2v32.2
						C167.1,432.8,164.5,435.4,161.9,435.4z M138.4,403.2c-6.1,0-11.3,5.2-11.3,11.3s5.2,10.5,11.3,10.5h18.3v-21.8H138.4z"/>
				</g>
			</g>
			<g>
				<g id="_274541448">
					<path class="st0" d="M256,362.3c-13.9,0-26.1-11.3-26.1-26.1c0-13.9,12.2-25.3,26.1-25.3s26.1,11.3,26.1,25.3
						C282.1,350.9,269.9,362.3,256,362.3z M256,321.3c-8.7,0-15.7,7-15.7,14.8c0,8.7,7,15.7,15.7,15.7s15.7-7,15.7-15.7
						C271.7,328.3,264.7,321.3,256,321.3z"/>
				</g>
				<g id="_274540968">
					<path class="st0" d="M245.5,323.9c-1.7,0-3.5-0.9-4.4-2.6l-28.7-50.5c-1.7-2.6-0.9-5.2,1.7-7s5.2-0.9,7,1.7l28.7,50.5
						c1.7,2.6,0.9,5.2-1.7,7C247.3,323.9,246.4,323.9,245.5,323.9z"/>
				</g>
				<g id="_274540512">
					<path class="st0" d="M286.5,205.5h-0.9c-2.6-0.9-4.4-3.5-4.4-6.1l4.4-14.8c0.9-2.6,3.5-4.4,6.1-3.5s4.4,3.5,3.5,6.1l-3.5,14.8
						C290.8,204.6,289.1,205.5,286.5,205.5z"/>
				</g>
				<g id="_274541208">
					<path class="st0" d="M315.2,217.7c-0.9,0-1.7,0-2.6-0.9c-2.6-0.9-3.5-4.4-1.7-7l7-13.1c1.7-2.6,5.2-3.5,7.8-1.7
						c1.7,1.7,2.6,4.4,1.7,7l-7.8,13.1C318.7,216.8,317,217.7,315.2,217.7z"/>
				</g>
				<g id="_274540920">
					<path class="st0" d="M339.6,236.8c-0.9,0-2.6,0-3.5-1.7c-1.7-1.7-1.7-5.2,0-7l10.5-10.5c1.7-2.6,5.2-2.6,7.8,0
						c1.7,1.7,1.7,5.2,0,7L344,235.1C342.2,236.8,341.4,236.8,339.6,236.8z"/>
				</g>
				<g id="_274541952">
					<path class="st0" d="M358.8,262.1c-1.7,0-3.5-0.9-4.4-2.6c-1.7-2.6-0.9-6.1,1.7-7.8l13.1-7c2.6-1.7,5.2-0.9,7,1.7
						s0.9,6.1-1.7,7l-13.1,7.8C360.5,261.2,359.7,262.1,358.8,262.1z"/>
				</g>
				<g id="_274540392">
					<path class="st0" d="M371,290.8c-2.6,0-5.2-1.7-5.2-4.4c-0.9-2.6,0.9-5.2,3.5-6.1l13.9-3.5c3.5-0.9,6.1,0.9,7,3.5
						s-0.9,5.2-3.5,6.1l-14.8,4.4H371z"/>
				</g>
				<g id="_274540152">
					<path class="st0" d="M141,290.8h-0.9l-14.8-4.4c-2.6-0.9-4.4-3.5-3.5-6.1s3.5-4.4,7-3.5l13.9,3.5c2.6,0.9,4.4,3.5,3.5,6.1
						C146.2,289.1,143.6,290.8,141,290.8z"/>
				</g>
				<g id="_274541616">
					<path class="st0" d="M153.2,262.1c-0.9,0-1.7-0.9-2.6-0.9l-13.1-7.8c-2.6-0.9-3.5-4.4-1.7-7s4.4-3.5,7-1.7l13.1,7
						c2.6,1.7,3.5,5.2,1.7,7.8C156.7,261.2,155,262.1,153.2,262.1z"/>
				</g>
				<g id="_274541568">
					<path class="st0" d="M172.4,236.8c-1.7,0-2.6,0-4.4-1.7l-10.5-10.5c-1.7-1.7-1.7-5.2,0-7c2.6-2.6,6.1-2.6,7.8,0l10.5,10.5
						c1.7,1.7,1.7,5.2,0,7C175,236.8,173.2,236.8,172.4,236.8z"/>
				</g>
				<g id="_274541976">
					<path class="st0" d="M196.8,217.7c-1.7,0-3.5-0.9-4.4-2.6l-7.8-13.1c-0.9-2.6,0-5.2,1.7-7c2.6-1.7,6.1-0.9,7.8,1.7l7,13.1
						c1.7,2.6,0.9,6.1-1.7,7C198.5,217.7,197.6,217.7,196.8,217.7z"/>
				</g>
				<g id="_274541112">
					<path class="st0" d="M225.5,205.5c-2.6,0-4.4-0.9-5.2-3.5l-3.5-14.8c-0.9-2.6,0.9-5.2,3.5-6.1s5.2,0.9,6.1,3.5l4.4,14.8
						c0,2.6-1.7,5.2-4.4,6.1H225.5z"/>
				</g>
				<g id="_274542024">
					<path class="st0" d="M256,213.3c-2.6,0-5.2-1.7-5.2-5.2V182c0-3.5,2.6-5.2,5.2-5.2s5.2,1.7,5.2,5.2v26.1
						C261.2,211.6,258.6,213.3,256,213.3z"/>
				</g>
			</g>
			<g id="_274542072">
				<path class="st0" d="M445.9,90.5H66.1c-10.5,0-19.2-8.7-19.2-19.2V38.2c0-2.6,1.7-5.2,5.2-5.2h407.7c3.5,0,5.2,2.6,5.2,5.2v33.1
					C465.1,81.8,456.4,90.5,445.9,90.5z M57.4,43.5v27.9c0,4.4,3.5,8.7,8.7,8.7h379.8c5.2,0,8.7-4.4,8.7-8.7V43.5H57.4z"/>
			</g>
			<g id="_274542168">
				<path class="st0" d="M314.4,150.6H197.6c-2.6,0-5.2-2.6-5.2-5.2V85.3c0-3.5,2.6-5.2,5.2-5.2h116.7c2.6,0,5.2,1.7,5.2,5.2v60.1
					C319.6,148,317,150.6,314.4,150.6z M202.9,140.1h106.3V90.5H202.9V140.1z"/>
			</g>
			<g id="_274542216">
				<path class="st0" d="M427.6,479H84.4c-11.3,0-23.5-5.2-30.5-13.9c-6.1-6.1-8.7-13.9-7-22.6l40.9-268.3c2.6-20,18.3-34,37.5-34
					h261.3c19.2,0,34.8,13.9,37.5,34l40.9,268.3c1.7,7.8-0.9,16.6-7,22.6C451.1,473.8,438.9,479,427.6,479z M125.3,150.6
					c-16.6,0-25.3,12.2-27,25.3L57.4,444.2c-0.9,6.1,1.7,11.3,4.4,13.9c5.2,7,13.9,10.5,22.6,10.5h343.2c8.7,0,17.4-3.5,22.6-10.5
					c2.6-2.6,5.2-7.8,4.4-13.9l-40.9-268.3c-1.7-13.1-10.5-25.3-27-25.3H125.3z"/>
			</g>
		</g>
	</g>
</g>
</svg>
