<?xml version="1.0" encoding="utf-8"?>
<!-- Generator: Adobe Illustrator 25.0.1, SVG Export Plug-In . SVG Version: 6.00 Build 0)  -->
<svg version="1.1" id="Layer_1" xmlns="http://www.w3.org/2000/svg" xmlns:xlink="http://www.w3.org/1999/xlink" x="0px" y="0px"
	 viewBox="0 0 408.3 311.1" style="enable-background:new 0 0 408.3 311.1;" xml:space="preserve">
<style type="text/css">
	.st0{display:none;}
	.st1{display:inline;}
	.st2{display:inline;clip-path:url(#SVGID_2_);}
	.st3{fill-rule:evenodd;clip-rule:evenodd;fill:#CE0000;stroke:#000063;stroke-width:12.9683;stroke-miterlimit:3.75;}
	.st4{fill-rule:evenodd;clip-rule:evenodd;fill:#FFFFFF;}
	.st5{fill:#B22234;}
	.st6{fill:#FFFFFF;}
	.st7{fill:#3C3B6E;}
</style>
<g class="st0">
	<defs>
		<rect id="SVGID_1_" x="19.1" y="7.9" width="299.7" height="299.7"/>
	</defs>
	<clipPath id="SVGID_2_" class="st1">
		<use xlink:href="#SVGID_1_"  style="overflow:visible;"/>
	</clipPath>
	<g transform="translate(0 14.96) scale(.9375)" class="st2">
		<g>
			<path class="st3" d="M24.4,308.1l236.5,0l-154.8-157l160.6,0.2L24.5-3.5L24.4,308.1z"/>
			<path class="st4" d="M133.2,224.6l-16.9,5.6l13.2,12.4l-17.8-1.1l7.3,16.4l-16-7.7l0.3,17.9l-11.7-13.1L85,271.6l-5.7-16.4
				L66.6,268l1.2-17.3L51,257.8l7.9-15.6l-18.3,0.3l13.4-11.4l-17-6.5l16.9-5.6l-13.2-12.4l17.8,1.1L51,191.4l16,7.7l-0.3-17.9
				l11.7,13.1l6.7-16.6l5.7,16.4l12.7-12.9l-1.2,17.3l16.8-7.1l-7.9,15.6l18.3-0.3l-13.4,11.4L133.2,224.6z M113,109.3l-7.1,5.2
				l3.5,2.9c8.5-6.5,14.5-12.5,19.2-22.5c1.1,13.3-11,43-42.9,43.3c-34.1,0-46-31.6-44.6-43.9c6.3,11.4,10.1,16.9,19.9,22.8l3-2.8
				l-6.7-5.6l8.6-2.2l-4.6-7.8l9,0.7l-1.1-9l7.9,4.6l2.5-8.4l5.7,6.8l5.3-6.4l2.9,8.7l7.4-5.1l-0.9,8.9l8.8-1l-4.1,8.2L113,109.3
				L113,109.3z"/>
		</g>
	</g>
</g>
<g>
	<path class="st5" d="M45.2,58.6H299c8.6,0,15.7,7,15.7,15.7v167c0,8.6-7,15.7-15.7,15.7H45.2c-8.6,0.1-15.7-7-15.7-15.6V74.2
		C29.5,65.6,36.6,58.6,45.2,58.6L45.2,58.6z"/>
	<path class="st6" d="M29.6,72.7h285c0.1,0.5,0.1,1,0.1,1.6v15.2H29.5V74.2C29.5,73.7,29.6,73.2,29.6,72.7L29.6,72.7z M314.7,103.3
		v16.7H29.5v-16.7H314.7L314.7,103.3z M314.7,134v16.7H29.5V134L314.7,134L314.7,134z M314.7,164.7v16.7H29.5v-16.7H314.7
		L314.7,164.7z M314.7,195.4v16.7H29.5v-16.7H314.7L314.7,195.4z M314.7,226.1v15.1c0,0.5-0.1,1.1-0.1,1.6H29.6
		c-0.1-0.5-0.1-1-0.1-1.5v-15.1L314.7,226.1L314.7,226.1z"/>
	<path class="st7" d="M137,58.6v106.8H29.5V74.2c0-8.6,7-15.7,15.7-15.7H137L137,58.6L137,58.6z"/>
	<polygon class="st6" points="35.9,73.3 39.5,84.4 30.1,77.6 41.7,77.6 32.3,84.4 	"/>
	<polygon class="st6" points="35.9,94.8 39.5,105.9 30.1,99.1 41.7,99.1 32.3,105.9 	"/>
	<polygon class="st6" points="35.9,116.3 39.5,127.4 30.1,120.5 41.7,120.5 32.3,127.4 	"/>
	<polygon class="st6" points="35.9,137.8 39.5,148.9 30.1,142 41.7,142 32.3,148.9 	"/>
	<polygon class="st6" points="48.5,62.6 52.1,73.7 42.7,66.8 54.4,66.8 44.9,73.7 	"/>
	<polygon class="st6" points="48.5,84.1 52.1,95.2 42.7,88.3 54.4,88.3 44.9,95.2 	"/>
	<polygon class="st6" points="48.5,105.6 52.1,116.7 42.7,109.8 54.4,109.8 44.9,116.7 	"/>
	<polygon class="st6" points="48.5,127.1 52.1,138.2 42.7,131.3 54.4,131.3 44.9,138.2 	"/>
	<polygon class="st6" points="48.5,148.5 52.1,159.7 42.7,152.8 54.4,152.8 44.9,159.7 	"/>
	<polygon class="st6" points="61.2,73.3 64.8,84.4 55.3,77.6 67,77.6 57.5,84.4 	"/>
	<polygon class="st6" points="61.2,94.8 64.8,105.9 55.3,99.1 67,99.1 57.5,105.9 	"/>
	<polygon class="st6" points="61.2,116.3 64.8,127.4 55.3,120.5 67,120.5 57.5,127.4 	"/>
	<polygon class="st6" points="61.2,137.8 64.8,148.9 55.3,142 67,142 57.5,148.9 	"/>
	<polygon class="st6" points="73.8,62.6 77.4,73.7 68,66.8 79.6,66.8 70.2,73.7 	"/>
	<polygon class="st6" points="73.8,84.1 77.4,95.2 68,88.3 79.6,88.3 70.2,95.2 	"/>
	<polygon class="st6" points="73.8,105.6 77.4,116.7 68,109.8 79.6,109.8 70.2,116.7 	"/>
	<polygon class="st6" points="73.8,127.1 77.4,138.2 68,131.3 79.6,131.3 70.2,138.2 	"/>
	<polygon class="st6" points="73.8,148.5 77.4,159.7 68,152.8 79.6,152.8 70.2,159.7 	"/>
	<polygon class="st6" points="86.4,73.3 90,84.4 80.6,77.6 92.2,77.6 82.8,84.4 	"/>
	<polygon class="st6" points="86.4,94.8 90,105.9 80.6,99.1 92.2,99.1 82.8,105.9 	"/>
	<polygon class="st6" points="86.4,116.3 90,127.4 80.6,120.5 92.2,120.5 82.8,127.4 	"/>
	<polygon class="st6" points="86.4,137.8 90,148.9 80.6,142 92.2,142 82.8,148.9 	"/>
	<polygon class="st6" points="99.1,62.6 102.7,73.7 93.2,66.8 104.9,66.8 95.4,73.7 	"/>
	<polygon class="st6" points="99.1,84.1 102.7,95.2 93.2,88.3 104.9,88.3 95.4,95.2 	"/>
	<polygon class="st6" points="99.1,105.6 102.7,116.7 93.2,109.8 104.9,109.8 95.4,116.7 	"/>
	<polygon class="st6" points="99.1,127.1 102.7,138.2 93.2,131.3 104.9,131.3 95.4,138.2 	"/>
	<polygon class="st6" points="99.1,148.5 102.7,159.7 93.2,152.8 104.9,152.8 95.4,159.7 	"/>
	<polygon class="st6" points="111.7,73.3 115.3,84.4 105.8,77.6 117.5,77.6 108.1,84.4 	"/>
	<polygon class="st6" points="111.7,94.8 115.3,105.9 105.8,99.1 117.5,99.1 108.1,105.9 	"/>
	<polygon class="st6" points="111.7,116.3 115.3,127.4 105.8,120.5 117.5,120.5 108.1,127.4 	"/>
	<polygon class="st6" points="111.7,137.8 115.3,148.9 105.8,142 117.5,142 108.1,148.9 	"/>
	<polygon class="st6" points="124.3,62.6 127.9,73.7 118.5,66.8 130.2,66.8 120.7,73.7 	"/>
	<polygon class="st6" points="124.3,84.1 127.9,95.2 118.5,88.3 130.2,88.3 120.7,95.2 	"/>
	<polygon class="st6" points="124.3,105.6 127.9,116.7 118.5,109.8 130.2,109.8 120.7,116.7 	"/>
	<polygon class="st6" points="124.3,127.1 127.9,138.2 118.5,131.3 130.2,131.3 120.7,138.2 	"/>
	<polygon class="st6" points="124.3,148.5 127.9,159.7 118.5,152.8 130.2,152.8 120.7,159.7 	"/>
</g>
</svg>
