<?xml version="1.0" encoding="utf-8"?>
<!-- Generator: Adobe Illustrator 24.0.1, SVG Export Plug-In . SVG Version: 6.00 Build 0)  -->
<svg version="1.1" id="Capa_1" xmlns="http://www.w3.org/2000/svg" xmlns:xlink="http://www.w3.org/1999/xlink" x="0px" y="0px"
	 viewBox="0 0 512 512" style="enable-background:new 0 0 512 512;" xml:space="preserve">
<style type="text/css">
	.st0{fill:#33B2B6;}
</style>
<g id="XMLID_1227_">
	<g id="XMLID_1114_">
		<path id="XMLID_1119_" class="st0" d="M445.9,56.9H297.6c-5.1,0-9.2,4.1-9.2,9.2s4.1,9.2,9.2,9.2h148.3
			c15.2,0,27.7,12.4,27.7,27.7v223.1H38.4V103c0-15.2,12.4-27.7,27.7-27.7h148.5c5.1,0,9.2-4.1,9.2-9.2s-4.1-9.2-9.2-9.2H66.1
			C40.7,56.9,20,77.6,20,103V409c0,25.4,20.7,46.1,46.1,46.1h379.8c25.4,0,46.1-20.7,46.1-46.1V103C492,77.6,471.3,56.9,445.9,56.9z
			 M445.9,436.7H66.1c-15.2,0-27.7-12.4-27.7-27.7v-64.5h435.1V409C473.6,424.3,461.2,436.7,445.9,436.7z"/>
		<path id="XMLID_1192_" class="st0" d="M112.1,362.9c-15.2,0-27.7,12.4-27.7,27.7s12.4,27.7,27.7,27.7s27.7-12.4,27.7-27.7
			S127.4,362.9,112.1,362.9z M112.1,399.8c-5.1,0-9.2-4.1-9.2-9.2s4.1-9.2,9.2-9.2s9.2,4.1,9.2,9.2S117.2,399.8,112.1,399.8z"/>
		<path id="XMLID_1245_" class="st0" d="M418.3,381.4H188.7c-5.1,0-9.2,4.1-9.2,9.2s4.1,9.2,9.2,9.2h229.6c5.1,0,9.2-4.1,9.2-9.2
			S423.4,381.4,418.3,381.4z"/>
		<path id="XMLID_1248_" class="st0" d="M208.9,172.7v55.9c0,9.5,4.9,18,13.1,22.8c4.1,2.4,8.6,3.6,13.1,3.6c4.5,0,9-1.2,13.1-3.6
			l48.4-28c8.2-4.8,13.1-13.3,13.1-22.8s-4.9-18-13.1-22.8l-48.4-28c-8.2-4.8-18.1-4.8-26.3,0C213.8,154.7,208.9,163.2,208.9,172.7
			L208.9,172.7z M227.3,172.7c0-4.1,2.7-6.1,3.9-6.8c0.7-0.4,2.2-1.1,4-1.1c1.2,0,2.5,0.3,3.9,1.1l48.4,28c3.5,2,3.9,5.4,3.9,6.8
			s-0.4,4.8-3.9,6.8l-48.4,28c-3.5,2-6.7,0.7-7.9,0c-1.2-0.7-3.9-2.7-3.9-6.8L227.3,172.7L227.3,172.7z"/>
		<path id="XMLID_1249_" class="st0" d="M256.1,75.3c2.4,0,4.8-1,6.5-2.7c1.7-1.7,2.7-4.1,2.7-6.5c0-2.4-1-4.8-2.7-6.5
			c-1.7-1.7-4.1-2.7-6.5-2.7s-4.8,1-6.5,2.7c-1.7,1.7-2.7,4.1-2.7,6.5c0,2.4,1,4.8,2.7,6.5C251.3,74.3,253.7,75.3,256.1,75.3z"/>
	</g>
</g>
</svg>
