<?xml version="1.0" encoding="utf-8"?>
<!-- Generator: Adobe Illustrator 24.0.1, SVG Export Plug-In . SVG Version: 6.00 Build 0)  -->
<svg version="1.1" id="Layer_1" xmlns="http://www.w3.org/2000/svg" xmlns:xlink="http://www.w3.org/1999/xlink" x="0px" y="0px"
	 viewBox="0 0 75 75" style="enable-background:new 0 0 75 75;" xml:space="preserve">
<style type="text/css">
	.st0{fill:#33b2b6;}
</style>
<g id="Carbon_Dioxide">
	<g>
		<path class="st0" d="M16.1,23.6c0.4,0,0.7-0.2,0.8-0.6c0.9-4.5,5.9-7.3,10.4-5.2c0.5,0.2,1-0.1,1.1-0.6
			c1.2-8.7,10.5-13.7,18.1-9.4c0.4,0.2,0.8,0.1,1-0.3c0.2-0.4,0.1-0.8-0.3-1C39,1.9,28.9,6.8,27,16c-4.9-1.7-10.1,1.2-11.5,6
			C8,22.2,4,30.9,8.8,36.7C9.1,37,9.5,37,9.9,36.8c0.3-0.3,0.4-0.7,0.1-1.1c-4-4.8-0.6-12.2,5.7-12.2C15.7,23.5,16,23.6,16.1,23.6z"
			/>
		<path class="st0" d="M40.7,29.4c-8.9,0-16.1,7.2-16.1,16.1s7.2,16.1,16.1,16.1s16.1-7.2,16.1-16.1S49.6,29.4,40.7,29.4z
			 M40.7,60.2c-8.1,0-14.6-6.6-14.6-14.6s6.6-14.6,14.6-14.6s14.6,6.6,14.6,14.6S48.7,60.2,40.7,60.2z"/>
		<path class="st0" d="M63.4,48.7c-0.4,0-0.8,0.3-0.8,0.8v10.4l-0.8-0.8c-0.3-0.3-0.8-0.3-1.1,0s-0.3,0.8,0,1.1l2.1,2.1
			c0.3,0.3,0.8,0.3,1.1,0l2.1-2.1c0.3-0.3,0.3-0.8,0-1.1c-0.3-0.3-0.8-0.3-1.1,0l-0.8,0.8V49.5C64.2,49.1,63.8,48.7,63.4,48.7z"/>
		<path class="st0" d="M17.9,48.7c-0.4,0-0.8,0.3-0.8,0.8v10.4l-0.8-0.8c-0.3-0.3-0.8-0.3-1.1,0s-0.3,0.8,0,1.1l2.1,2.1
			c0.3,0.3,0.8,0.3,1.1,0l2.1-2.1c0.3-0.3,0.3-0.8,0-1.1c-0.3-0.3-0.8-0.3-1.1,0l-0.8,0.8V49.5C18.7,49.1,18.3,48.7,17.9,48.7z"/>
		<path class="st0" d="M40.7,62.6c-0.4,0-0.8,0.3-0.8,0.8v4.3l-0.8-0.8c-0.3-0.3-0.8-0.3-1.1,0c-0.3,0.3-0.3,0.8,0,1.1l2.1,2.1
			c0.3,0.3,0.8,0.3,1.1,0l2.1-2.1c0.3-0.3,0.3-0.8,0-1.1s-0.8-0.3-1.1,0l-0.8,0.8v-4.3C41.4,63,41.1,62.6,40.7,62.6z"/>
		<path class="st0" d="M46.3,11.1c-6.5,0-12.2,4.8-13.5,11.3c-4.9-1.7-10.1,1.2-11.5,6c-4.9,0.1-8.8,4.1-8.8,8.9
			c0,4.9,4,8.9,8.9,8.9c0.4,0,0.8-0.3,0.8-0.8s-0.3-0.8-0.8-0.8c-4.1,0-7.4-3.3-7.4-7.4c0-4,3.1-7.2,7-7.4c0.2,2.2,1.6,3.7,3.9,4.3
			c0.4,0.1,0.8-0.1,0.9-0.5c0.1-0.4-0.1-0.8-0.5-0.9c-1.8-0.5-2.6-1.5-2.8-3.2c0-0.1,0.1-0.2,0.1-0.3c0.9-4.5,5.9-7.3,10.4-5.2
			c0.9,0.5,1.2,1,1.2,1.9c0,0.4,0.3,0.8,0.7,0.8c0.4,0,0.8-0.3,0.8-0.7c0.1-1.3-0.4-2.4-1.5-3.1c1.1-6,6.2-10.5,12.1-10.5
			c7.5,0,13.2,6.9,12.2,14.2c0,0.2-0.1,0.3,0,0.5c-0.9,1.3-2.1,1.9-3.8,1.8c-0.4-0.1-0.8,0.3-0.8,0.7s0.3,0.8,0.7,0.8
			c2.2,0.1,4-0.8,5.2-2.6c4,0.8,6.9,4.2,6.9,8.3c0,4.3-3.2,7.9-7.5,8.4c-0.4,0-0.7,0.4-0.7,0.8c0,0.4,0.4,0.7,0.8,0.7
			c5.1-0.6,8.9-4.8,8.9-9.9c0-4.8-3.5-8.9-8.2-9.8c0-0.4,0.1-0.8,0.1-1.2C60.2,17.5,54,11.1,46.3,11.1z"/>
		<path class="st0" d="M36.3,46.7c-0.5,0.3-1.1,0.5-1.7,0.5c-1.8,0-2.6-1.2-2.6-3c0-1.8,0.8-3,2.6-3c0.6,0,1.2,0.1,1.7,0.5
			c0.9,0.6,1.5-0.7,0.7-1.2c-0.7-0.4-1.6-0.6-2.4-0.6c-2.7,0-4.2,1.8-4.2,4.3c0,2.6,1.5,4.4,4.2,4.4c0.8,0,1.8-0.2,2.5-0.7
			C37.7,47.3,37.2,46.1,36.3,46.7z"/>
		<path class="st0" d="M42.2,39.8c-2.5,0-4.1,1.8-4.1,4.3c0,2.7,1.7,4.4,4.1,4.4c2.6,0,4.1-1.8,4.1-4.4
			C46.3,41.4,44.6,39.8,42.2,39.8z M42.2,47.2c-1.7,0-2.5-1.3-2.5-3c0-1.7,0.8-3,2.5-3c1.7,0,2.5,1.3,2.5,3
			C44.7,45.8,43.9,47.2,42.2,47.2z"/>
		<path class="st0" d="M51.1,47.5c0.3-0.8,0.1-1.7-0.8-2.1c-0.6-0.3-1.7-0.3-2.6,0.2c-0.7,0.4-0.3,1.4,0.5,1
			c0.3-0.1,0.6-0.2,0.8-0.2c0.2,0,0.4,0,0.6,0.1c0.3,0.2,0.2,0.6,0.1,0.9c-0.1,0.2-0.2,0.3-0.4,0.6c-1.3,1.4-1.7,1.6-1.7,2.1
			c0,0.5,0.2,0.6,0.6,0.6h2.7c0.7,0,0.7-0.8,0.4-1c-0.2-0.2-0.6-0.1-2-0.1C49.8,49.1,50.8,48.4,51.1,47.5z"/>
	</g>
</g>
</svg>
