<?xml version="1.0" encoding="utf-8"?>
<!-- Generator: Adobe Illustrator 24.0.1, SVG Export Plug-In . SVG Version: 6.00 Build 0)  -->
<svg version="1.1" id="Capa_1" xmlns="http://www.w3.org/2000/svg" xmlns:xlink="http://www.w3.org/1999/xlink" x="0px" y="0px"
	 viewBox="0 0 512 512" style="enable-background:new 0 0 512 512;" xml:space="preserve">
<style type="text/css">
	.st0{fill:#33B2B6;}
</style>
<g>
	<g>
		<path class="st0" d="M99.4,431.8c-5.6,0-11.1-2.3-15.1-6.3c-3.9-4-6.1-9.2-6-14.7c0-4,1.2-7.8,3.3-11.1l2.2-3.4l-3.7-1.7
			c-7.1-3.4-11.6-10.3-11.9-18.1c-0.1-4.9,1.4-9.5,4.3-13.3l2.4-3.1l-3.3-2.1c-5.8-3.7-9.3-10-9.5-16.8c-0.2-5.7,1.9-11,5.9-15
			c1.5-1.5,3.2-2.8,5-3.8l3.5-1.9l-2.3-3.3c-2.4-3.4-3.6-7.5-3.7-11.7c-0.1-5.4,2.1-10.6,6-14.6c4-4,9.5-6.3,15.1-6.3h104.7
			c1.7,0,3.1,1.4,3.1,3.1s-1.4,3.1-3.1,3.1H91.7c-4,0-7.9,1.6-10.7,4.5c-2.7,2.8-4.2,6.4-4.2,10.1c0.1,7.7,6.4,14.2,14.1,14.4
			c1.7,0,3.1,1.5,3,3.2c0,1.7-1.4,3.1-3.1,3.1H83c-4,0-7.7,1.6-10.5,4.4c-2.7,2.8-4.2,6.6-4.1,10.5c0.2,7.8,6.9,14.1,14.9,14.1h5.8
			c1.7,0,3.1,1.4,3.1,3.1s-1.4,3.1-3.1,3.1h-0.1c-4,0-7.7,1.6-10.5,4.4c-2.7,2.8-4.2,6.6-4.1,10.5c0.2,7.8,6.9,14.1,14.9,14.1h9.3
			c1.7,0,3.1,1.4,3.1,3.1c0,1.7-1.4,3.1-3.1,3.2c-7.9,0.1-14.2,6.4-14.2,14.3c0,3.8,1.5,7.4,4.2,10.2c2.8,2.9,6.7,4.5,10.7,4.5h27.7
			c1.7,0,3.1,1.4,3.1,3.1s-1.4,3.1-3.1,3.1H99.4z"/>
	</g>
	<g>
		<path class="st0" d="M254,311.7c-1.3,0-2.5-0.9-3-2.1c-9.9-29.9-33.2-40.2-53.7-49.3l-2.2-1c-1.6-0.7-2.3-2.5-1.6-4.1
			c0.5-1.1,1.6-1.9,2.9-1.9c0.4,0,0.9,0.1,1.3,0.3l2.2,1c18.5,8.2,43.9,19.5,55.5,48.6l0.9,2.3h42.6c1.7,0,3.1,1.4,3.1,3.1
			s-1.4,3.1-3.1,3.1H254z"/>
	</g>
	<g>
		<path class="st0" d="M158.4,431.8c-1.7,0-3.1-1.4-3.1-3.1s1.4-3.1,3.1-3.1h52c15.2,0,29.3-8.2,36.7-21.5c0.6-1,1.6-1.6,2.7-1.6
			h48.9c1.7,0,3.1,1.4,3.1,3.1s-1.4,3.1-3.1,3.1h-47.1l-1.1,1.6c-9,13.5-24,21.5-40.2,21.5H158.4z"/>
	</g>
	<g>
		<path class="st0" d="M440,408.8c-1.7,0-3.1-1.4-3.1-3.1s1.4-3.1,3.1-3.1h21.4c8.5,0,15.4-6.9,15.4-15.3v-60.2
			c0-8.5-6.9-15.4-15.4-15.4H440c-1.7,0-3.1-1.4-3.1-3.1s1.4-3.1,3.1-3.1h21.4c11.9,0,21.6,9.7,21.6,21.6v60.2
			c0,11.9-9.7,21.6-21.6,21.6H440z"/>
	</g>
</g>
<g>
	<path class="st0" d="M98.8,396.6c-1.7,0-3.1-1.4-3.1-3.1s1.4-3.1,3.1-3.1h50.1c1.7,0,3.1,1.4,3.1,3.1s-1.4,3.1-3.1,3.1H98.8z"/>
</g>
<g>
	<path class="st0" d="M90.9,326.1c-1.7,0-3.1-1.4-3.1-3.1s1.4-3.1,3.1-3.1h57.9c1.7,0,3.1,1.4,3.1,3.1s-1.4,3.1-3.1,3.1H90.9z"/>
</g>
<g>
	<path class="st0" d="M89.2,361.3c-1.7,0-3.1-1.4-3.1-3.1s1.4-3.1,3.1-3.1h59.6c1.7,0,3.1,1.4,3.1,3.1s-1.4,3.1-3.1,3.1H89.2z"/>
</g>
<g>
	<g>
		<path class="st0" d="M267.7,311.7c-0.4,0-0.9-0.1-1.3-0.3c-0.8-0.3-1.3-1-1.6-1.7c-0.3-0.8-0.3-1.6,0.1-2.4l1-2.2
			c8.2-18.5,19.5-43.9,48.6-55.5l2.3-0.9v-42.4c0-1.7,1.4-3.1,3.1-3.1s3.1,1.4,3.1,3.1V251c0,1.3-0.9,2.5-2.1,3
			c-29.9,9.9-40.2,33.2-49.3,53.7l-1,2.2C270.1,311,269,311.7,267.7,311.7z"/>
	</g>
	<g>
		<path class="st0" d="M351.6,442.7c-5.3,0-10.4-2-14.2-5.8c-1.5-1.5-2.8-3.2-3.8-5l-1.9-3.5l-3.3,2.3c-3.4,2.4-7.5,3.6-11.7,3.7
			l-0.1,0c-5.4,0-10.5-2.1-14.5-6c-4-4-6.4-9.5-6.4-15.1V308.6c0-1.7,1.4-3.1,3.1-3.1s3.1,1.4,3.1,3.1v104.7c0,4,1.6,7.9,4.5,10.7
			c2.7,2.7,6.3,4.2,10,4.2l0.2,0c7.7-0.1,14.1-6.4,14.3-14.1c0-1.7,1.5-3,3.1-3c1.7,0,3.1,1.4,3.1,3.1v7.9c0,4,1.6,7.7,4.4,10.5
			c2.7,2.6,6.2,4,10,4c0.2,0,0.3,0,0.5,0c7.8-0.2,14.1-6.9,14.1-14.9v-5.8c0-1.7,1.4-3.1,3.1-3.1s3.1,1.4,3.1,3.1
			c0,4,1.6,7.8,4.4,10.6c2.7,2.6,6.2,4,10,4c0.2,0,0.3,0,0.5,0c7.8-0.2,14.1-6.9,14.1-14.9v-9.3c0-1.7,1.4-3.1,3.1-3.1
			c1.7,0,3.1,1.4,3.2,3.1c0.1,7.9,6.4,14.2,14.3,14.2l0.1,0c3.8,0,7.3-1.5,10.1-4.2c2.9-2.8,4.5-6.7,4.5-10.7V294.5
			c0-15.2-8.2-29.3-21.5-36.7c-1-0.6-1.6-1.6-1.6-2.7v-48.7c0-1.7,1.4-3.1,3.1-3.1c1.7,0,3.1,1.4,3.1,3.1v46.9l1.6,1.1
			c13.5,9,21.5,24,21.5,40.2v110.9c0,5.6-2.3,11.1-6.3,15.1c-3.9,3.9-9.1,6-14.5,6l-0.2,0c-4,0-7.8-1.2-11.1-3.3l-3.4-2.2l-1.7,3.7
			c-3.4,7.1-10.3,11.6-18.1,11.9c-0.3,0-0.5,0-0.8,0c-4.6,0-8.9-1.5-12.5-4.3l-3.1-2.4l-2.1,3.3c-3.7,5.8-10,9.3-16.8,9.5
			C352.1,442.7,351.8,442.7,351.6,442.7z"/>
	</g>
	<g>
		<path class="st0" d="M416.9,68.4c-1.7,0-3.1-1.4-3.1-3.1V43.7c0-8.5-6.9-15.4-15.4-15.4h-60.2c-8.5,0-15.4,6.9-15.4,15.4v21.6
			c0,1.7-1.4,3.1-3.1,3.1s-3.1-1.4-3.1-3.1V43.7c0-11.9,9.7-21.6,21.6-21.6h60.2c11.9,0,21.6,9.7,21.6,21.6v21.6
			C420,67,418.6,68.4,416.9,68.4z"/>
	</g>
</g>
<g>
	<path class="st0" d="M404.7,409.3c-1.7,0-3.1-1.4-3.1-3.1v-50.1c0-1.7,1.4-3.1,3.1-3.1s3.1,1.4,3.1,3.1v50.1
		C407.9,407.9,406.5,409.3,404.7,409.3z"/>
</g>
<g>
	<path class="st0" d="M334.1,417.3c-1.7,0-3.1-1.4-3.1-3.1v-58c0-1.7,1.4-3.1,3.1-3.1s3.1,1.4,3.1,3.1v58
		C337.3,415.9,335.9,417.3,334.1,417.3z"/>
</g>
<g>
	<path class="st0" d="M369.4,419c-1.7,0-3.1-1.4-3.1-3.1v-59.7c0-1.7,1.4-3.1,3.1-3.1s3.1,1.4,3.1,3.1v59.7
		C372.5,417.6,371.1,419,369.4,419z"/>
</g>
<g>
	<g>
		<path class="st0" d="M54.8,188.5c-11.9,0-21.6-9.7-21.6-21.6v-60.2c0-11.9,9.7-21.6,21.6-21.6h21.5c1.7,0,3.1,1.4,3.1,3.1
			s-1.4,3.1-3.1,3.1H54.8c-8.5,0-15.4,6.9-15.4,15.4v60.2c0,8.5,6.9,15.4,15.4,15.4h21.5c1.7,0,3.1,1.4,3.1,3.1
			c0,1.7-1.4,3.1-3.1,3.1H54.8z"/>
	</g>
	<g>
		<path class="st0" d="M319.8,209.4c-1.7,0-3.1-1.4-3.1-3.1c0-1.7,1.4-3.1,3.1-3.1h104.7c4,0,7.9-1.6,10.7-4.5
			c2.7-2.8,4.2-6.4,4.2-10.1c-0.1-7.7-6.4-14.2-14.1-14.4c-1.7,0-3.1-1.5-3-3.2c0-1.7,1.4-3.1,3.1-3.1h7.9c4,0,7.7-1.6,10.5-4.4
			c2.7-2.8,4.2-6.6,4.1-10.5c-0.2-7.8-6.9-14.1-14.9-14.1H427c-1.7,0-3.1-1.4-3.1-3.1s1.4-3.1,3.1-3.1h0.1c4,0,7.7-1.6,10.5-4.4
			c2.7-2.8,4.2-6.6,4.1-10.5c-0.2-7.8-6.9-14.1-14.9-14.1h-9.3c-1.7,0-3.1-1.4-3.1-3.1c0-1.7,1.4-3.1,3.1-3.2
			c7.9-0.1,14.2-6.4,14.2-14.3c0-3.8-1.5-7.4-4.2-10.2c-2.8-2.9-6.7-4.5-10.7-4.5h-23.1c-1.7,0-3.1-1.4-3.1-3.1
			c0-1.7,1.4-3.1,3.1-3.1h23.1c5.6,0,11.1,2.3,15.1,6.3c3.9,4,6.1,9.2,6,14.7c0,4-1.2,7.8-3.3,11.1l-2.2,3.4l3.7,1.7
			c7.1,3.4,11.6,10.3,11.9,18.1c0.1,4.9-1.4,9.5-4.3,13.3l-2.4,3.1l3.3,2.1c5.8,3.7,9.3,10,9.5,16.8c0.2,5.7-1.9,11-5.9,15
			c-1.5,1.5-3.2,2.8-5,3.8l-3.5,1.9l2.3,3.3c2.4,3.4,3.6,7.5,3.7,11.7c0.1,5.4-2.1,10.6-6,14.6c-4,4-9.5,6.3-15.1,6.3H319.8z"/>
	</g>
	<g>
		<path class="st0" d="M319.8,240.7c-0.4,0-0.9-0.1-1.3-0.3l-2.2-1c-18.5-8.2-43.9-19.5-55.5-48.6l-0.9-2.3h-42.5
			c-1.7,0-3.1-1.4-3.1-3.1c0-1.7,1.4-3.1,3.1-3.1h44.8c1.3,0,2.5,0.9,3,2.1c9.9,29.9,33.2,40.2,53.7,49.3l2.2,1
			c1.6,0.7,2.3,2.5,1.6,4.1C322.1,239.9,321,240.7,319.8,240.7z"/>
	</g>
	<g>
		<path class="st0" d="M217.5,91.5c-1.7,0-3.1-1.4-3.1-3.1s1.4-3.1,3.1-3.1h47l1.1-1.6c9-13.5,24-21.5,40.2-21.5h56.6
			c1.7,0,3.1,1.4,3.1,3.1c0,1.7-1.4,3.1-3.1,3.1h-56.6c-15.2,0-29.3,8.2-36.7,21.5c-0.6,1-1.6,1.6-2.7,1.6H217.5z"/>
	</g>
</g>
<g>
	<path class="st0" d="M367.3,103.7c-1.7,0-3.1-1.4-3.1-3.1s1.4-3.1,3.1-3.1h50.1c1.7,0,3.1,1.4,3.1,3.1s-1.4,3.1-3.1,3.1H367.3z"/>
</g>
<g>
	<path class="st0" d="M367.3,174.2c-1.7,0-3.1-1.4-3.1-3.1s1.4-3.1,3.1-3.1h58c1.7,0,3.1,1.4,3.1,3.1s-1.4,3.1-3.1,3.1H367.3z"/>
</g>
<g>
	<path class="st0" d="M367.3,138.9c-1.7,0-3.1-1.4-3.1-3.1s1.4-3.1,3.1-3.1H427c1.7,0,3.1,1.4,3.1,3.1s-1.4,3.1-3.1,3.1H367.3z"/>
</g>
<g>
	<path class="st0" d="M111.6,141c-1.7,0-3.1-1.4-3.1-3.1V87.8c0-1.7,1.4-3.1,3.1-3.1c1.7,0,3.1,1.4,3.1,3.1v50.1
		C114.7,139.6,113.3,141,111.6,141z"/>
</g>
<g>
	<path class="st0" d="M182.2,141c-1.7,0-3.1-1.4-3.1-3.1v-58c0-1.7,1.4-3.1,3.1-3.1s3.1,1.4,3.1,3.1v58
		C185.3,139.6,183.9,141,182.2,141z"/>
</g>
<g>
	<path class="st0" d="M146.9,141c-1.7,0-3.1-1.4-3.1-3.1V78.1c0-1.7,1.4-3.1,3.1-3.1s3.1,1.4,3.1,3.1v59.7
		C150,139.6,148.6,141,146.9,141z"/>
</g>
<g>
	<path class="st0" d="M196.4,290.8c-1.7,0-3.1-1.4-3.1-3.1V243c0-1.3,0.9-2.5,2.1-3c29.9-9.9,40.2-33.2,49.3-53.7l1-2.2
		c0.5-1.1,1.6-1.9,2.9-1.9c0.4,0,0.9,0.1,1.3,0.3c0.8,0.3,1.3,1,1.6,1.7c0.3,0.8,0.3,1.6-0.1,2.4l-1,2.2
		c-8.2,18.5-19.5,43.9-48.6,55.5l-2.3,0.9v42.5C199.6,289.4,198.2,290.8,196.4,290.8z"/>
</g>
<g>
	<path class="st0" d="M99.4,290.7c-1.7,0-3.1-1.4-3.1-3.1v-46.9l-1.6-1.1c-13.5-9-21.5-24-21.5-40.2V88.5c0-5.6,2.3-11.1,6.3-15.1
		c3.9-3.9,9.1-6,14.5-6l0.2,0c4,0,7.9,1.2,11.2,3.4l3.4,2.3l1.8-3.7c3.4-7.1,10.3-11.6,18.1-11.9c0.3,0,0.5,0,0.8,0
		c4.6,0,8.9,1.5,12.5,4.3l3.1,2.4l2.1-3.3c3.7-5.8,10-9.3,16.8-9.5c0.3,0,0.5,0,0.8,0c5.3,0,10.4,2,14.2,5.8c1.5,1.5,2.8,3.2,3.8,5
		l1.9,3.5l3.3-2.3c3.4-2.4,7.5-3.6,11.7-3.7l0.3,0c5.3,0,10.4,2.1,14.3,6c4,4,6.3,9.5,6.3,15.1v104.7c0,1.7-1.4,3.1-3.1,3.1
		s-3.1-1.4-3.1-3.1V80.7c0-4-1.6-7.9-4.5-10.7c-2.7-2.7-6.3-4.2-10.1-4.2c-7.8,0.1-14.2,6.4-14.4,14.1c0,1.7-1.4,3-3.1,3l-0.1,0
		c-1.7,0-3.1-1.4-3.1-3.1V72c0-4-1.6-7.7-4.4-10.5c-2.7-2.6-6.2-4-9.9-4c-0.2,0-0.4,0-0.5,0c-7.8,0.2-14.1,6.9-14.1,14.9v5.8
		c0,1.7-1.4,3.1-3.1,3.1s-3.1-1.4-3.1-3.1v-0.1c0-4-1.6-7.7-4.4-10.5c-2.7-2.6-6.2-4-9.9-4c-0.2,0-0.3,0-0.5,0
		c-7.8,0.2-14.1,6.9-14.1,14.9v9.3c0,1.7-1.4,3.1-3.1,3.1c-1.7,0-3.1-1.3-3.2-3c-0.2-8-6.5-14.3-14.4-14.4c-3.8,0-7.5,1.5-10.2,4.2
		c-2.9,2.8-4.5,6.7-4.5,10.7v110.9c0,15.2,8.2,29.3,21.5,36.7c1,0.6,1.6,1.6,1.6,2.7v48.7C102.5,289.3,101.1,290.7,99.4,290.7z"/>
</g>
<g>
	<path class="st0" d="M117.9,471.9c-11.9,0-21.6-9.7-21.6-21.6v-21.6c0-1.7,1.4-3.1,3.1-3.1h0.1c1.7,0,3.1,1.4,3.1,3.1
		c0,0.2,0,0.3,0,0.5l0,0.3v20.8c0,8.5,6.9,15.4,15.4,15.4H178c8.5,0,15.4-6.9,15.4-15.4v-21.6c0-1.7,1.4-3.1,3.1-3.1
		c1.7,0,3.1,1.4,3.1,3.1v21.6c0,11.9-9.7,21.6-21.6,21.6H117.9z"/>
</g>
</svg>
