<?xml version="1.0" encoding="utf-8"?>
<!-- Generator: Adobe Illustrator 24.0.1, SVG Export Plug-In . SVG Version: 6.00 Build 0)  -->
<svg version="1.1" id="Layer_1" xmlns="http://www.w3.org/2000/svg" xmlns:xlink="http://www.w3.org/1999/xlink" x="0px" y="0px"
	 viewBox="0 0 512 512" style="enable-background:new 0 0 512 512;" xml:space="preserve">
<style type="text/css">
	.st0{fill:#33B2B6;}
</style>
<g>
	<g>
		<g>
			<path class="st0" d="M221.3,205.5c-16.3,0-23.3-11.8-26.5-19.4c-13.9,6.8-25.9,9.6-26.9,9.8c-2.7,0.7-5.5-1.1-6.1-3.8
				c-0.7-2.7,1.1-5.5,3.8-6.1c0.4-0.1,12.1-2.9,25.4-9.5c-7.8-21,0.7-44.7,20.4-55.1c14-8.4,31.9,7.1,26,22.1
				c-6,17.4-19.8,29.5-33.6,37.7c3.5,8.8,9,16.7,24.1,13.3c5.9-1.3,10.4-6.3,10.7-12.1c-0.7-5.4,7-8.1,9.6-3.2
				c2.7,4.9,10.2,14.8,16.4,14.3c4.8-0.4,9.7-6.9,14-18.6c1.3-3.9,7-4.5,9.2-0.9c2.1,3.3,9.3,12.4,15.4,11.9
				c3.8-0.4,7.8-5,11.1-13.1c1.3-3.4,6.1-4.3,8.5-1.5c4,3.9,11.6,8.1,18.2-0.5c1.8-2.1,5-2.5,7.2-0.7c2.1,1.8,2.5,5,0.7,7.2
				c-4.7,5.7-10.1,8.7-16.1,8.9c-4.8,0.2-8.9-1.6-12-3.4c-4.6,8.3-10.2,12.8-16.8,13.4c-7.8,0.7-14.8-4.6-19.3-9.3
				c-5.3,10.9-11.8,16.5-19.3,17.1c-8.1,0.6-15-5-19.7-10.5C241.3,201.4,230.6,205.7,221.3,205.5L221.3,205.5z M216.3,130.2
				c-15,7.2-21.3,25.2-16.2,41.1c11.6-7.2,22.9-17.4,27.7-31.3C229.7,134.1,222.9,127.1,216.3,130.2z"/>
		</g>
		<g>
			<path class="st0" d="M351,88.3H168.2c-2.8,0-5.1-2.2-5.1-5.1s2.2-5.1,5.1-5.1h182.8c2.8,0,5.1,2.2,5.1,5.1S353.8,88.3,351,88.3z"
				/>
		</g>
		<g>
			<g>
				<path class="st0" d="M436.8,22h-0.2C436.6,22,436.7,22,436.8,22L436.8,22z"/>
			</g>
		</g>
	</g>
	<g>
		<g>
			<path class="st0" d="M65.3,313.2c4.6,3.1,5.8,9.2,2.7,13.7s-9.2,5.7-13.8,2.7c-4.6-3.1-5.8-9.2-2.7-13.7
				C54.6,311.3,60.7,310.1,65.3,313.2z"/>
		</g>
		<g>
			<path class="st0" d="M447.7,317.2c-4.8,2.7-6.4,8.8-3.6,13.5c2.7,4.8,8.8,6.4,13.5,3.6c4.8-2.7,6.4-8.8,3.6-13.5
				C458.6,316.1,452.4,314.4,447.7,317.2z"/>
		</g>
		<path class="st0" d="M492.7,323.5l-68-117.1c-4.9-8.4-15.7-11.2-24-6.4l-31,17.9c-6.5,3.6-10.1,11.8-8.4,19l-26.5,6.7
			c-6.9,1.8-14.1,1.4-20.8-1l-36.9-13.3c-13.2-4.8-27.6-3.3-39.5,4l-34.4,21c-8.4-3.5-16.4-5.6-23.7-6.4c-7.9-0.9-15.6-3.2-22.6-6.6
			c3.4-7.5,0.6-17.1-6.4-21.6l-29.8-20c-8-5.4-19-3.3-24.5,4.7L20,316.4c-5.5,7.8-3.3,19.3,4.8,24.6L54.5,361
			c6.1,4.1,14.1,3.9,20-0.2c5.5,6.9,12,12.9,19.2,18l-6.1,8.6c-7.4,10.6-4.9,25.2,5.8,32.7c4.1,2.9,8.8,4.2,13.5,4.2
			c0.6,0,1.1,0,1.7-0.1c-1.9,8.9,1.6,18.5,9.5,24c6.1,4.2,13.5,5.3,20.4,3.2c0.1,0.8,0.2,1.8,0.4,2.6c1.2,6.3,4.8,11.7,10,15.1
			c8,5.6,18.9,5.4,26.8-0.1c1.6,4.9,4.6,9.2,8.9,12.1c10.5,7.4,25.2,5,32.7-5.8l2.2-3.3l23.9,18.3c9.9,7.8,23.7,5.5,31.8-4.4
			c3.5-4.3,5.3-9.4,5.5-14.6c10.1,7.6,25.5,5.4,33.3-4.5c3.3-4,5.1-8.9,5.4-14l0.4,0.3c10.5,8.5,26,6.9,34.5-3.6
			c3.8-4.7,5.6-10.4,5.4-16c9.5,3.2,20.4,0.3,27.1-7.9c8.4-10.4,6.9-25.9-3.3-34.5L260.3,285.4c-1.3-1.1-3.1-1.5-4.8-1l-28.4,8.5
			c-1,0.3-1.9,0.8-2.5,1.7l-18.5,22.8c-11.6,14.3-31.9,18.6-48.3,10.3c-2.7-1.3-3.6-5-1.9-7.5l29.6-41.9c1.2-1.7,2.7-3.1,4.5-4.2
			l52.5-32c9.2-5.7,20.5-6.8,30.7-3.1l36.9,13.3c8.6,3.1,17.9,3.6,26.8,1.3l28.5-7.2l31.7,54.4l32.5,55.9
			c-6.4,7.3-16.3,16.4-29.7,22.7c-2.5,1.2-3.6,4.3-2.4,6.8c1.2,2.6,4.3,3.6,6.8,2.4c11.8-5.6,22.7-13.8,31.9-23.9
			c5.6,3.9,13,4.4,19,0.9l31-17.9C494.5,343,497.5,331.6,492.7,323.5L492.7,323.5z M60.2,352.5l-29.7-20.1c-3.4-2.1-4.3-7.1-2-10.4
			l76.1-112c2.3-3.4,6.9-4.2,10.3-2l29.7,20.1c3.4,2.1,4.3,7.1,2,10.4L70.4,350.5C68.2,353.8,63.6,354.8,60.2,352.5L60.2,352.5z
			 M115.8,410.7c-4.4,4-11.5,4.5-16.4,0.9c-6-4.2-7.5-12.4-3.3-18.5l9.2-13.2c4.2-6,12.5-7.4,18.5-3.3c5.1,3.6,6.9,10.1,4.7,15.7
			L115.8,410.7z M142.5,436.6c-4.2,6-12.4,7.5-18.5,3.3c-6-4.2-7.5-12.4-3.3-18.5l26.8-38.2c4.2-6.1,12.5-7.4,18.5-3.3
			c6,4.2,7.5,12.4,3.3,18.4L142.5,436.6z M173,457.4c-4.1,5.9-12.2,7.5-18.2,3.5c-6.4-3.8-8.1-12.9-3.8-18.8l32.4-46.2
			c4.2-6,12.4-7.5,18.5-3.3l0.1,0.1c6,4.2,7.5,12.4,3.3,18.4L173,457.4z M208.8,469.6c-4.2,6-12.4,7.5-18.5,3.3
			c-4.9-3.3-6.9-10-4.9-15.4l18.6-26.7c4.6-4.1,11.4-4.7,16.5-1c5.9,3.9,7.5,12.7,3.3,18.5L208.8,469.6z M184.7,265.4
			c-3,1.8-5.5,4.2-7.6,7l-29.5,41.9c-5.4,7.3-2.6,18.6,5.6,22.5c20.6,10.5,46.2,5,60.8-13l17.5-21.5l24.2-7.3l121.2,104.1
			c6,5,6.9,14.2,2,20.3c-5,6.3-14.2,7.2-20.5,2.1l-63.3-51.3c-2.1-1.8-5.4-1.4-7.2,0.7c-1.8,2.1-1.4,5.4,0.7,7.2l55.6,45l0,0l0,0
			c6.1,5,7.1,13.9,2.1,20.1c-5,6.1-13.9,7.1-20.1,2.1l-62.6-50.7c-2.1-1.8-5.4-1.4-7.2,0.7c-1.8,2.1-1.4,5.4,0.7,7.2l46.7,37.8
			c6.1,4.7,7.1,14.2,2.1,20.1c-4.7,6.1-14.2,7.1-20.1,2.1l-33.6-27.3c-2.1-1.8-5.4-1.4-7.2,0.7c-1.8,2.1-1.4,5.4,0.7,7.2l19.2,15.5
			l0,0l0,0c6.4,5.1,7.3,14.5,2.1,20.7c-4.6,5.7-12.3,6.9-17.6,2.7l-24.4-18.6l6.9-9.9c7.5-10.2,4.8-25.7-5.8-32.7
			c-3.9-2.7-8.4-4.1-12.9-4.2l0.1-0.1c7.4-10.6,4.8-25.2-5.8-32.6l-0.1-0.1c-8.3-5.8-19.1-5.5-26.9,0c-1.4-5-4.5-9.5-9.1-12.7
			c-10.6-7.4-25.2-4.9-32.7,5.8l-1.1,1.7c-1.6-4.1-4.5-7.8-8.3-10.6c-9.2-6.5-21.7-5.3-29.6,2.2c-7.2-5-13.5-10.9-18.8-17.8
			L151,249.9c8.3,4.2,17.5,7,26.9,8.1c4.3,0.5,8.9,1.5,13.7,3.1L184.7,265.4z M481.1,338.8l-31,17.9c-3.6,2.1-8,0.7-10.1-2.7
			l-68.1-117.1c-2.1-3.5-0.8-8.2,2.7-10.2l31-17.9c3.5-2.1,8-0.8,10.1,2.7l68,117.1C484.8,330.3,486.1,336.3,481.1,338.8
			L481.1,338.8z"/>
		<path class="st0" d="M438.8,16.9L438.8,16.9l-302.3-0.1c-14.1,0-25.5,11.5-25.5,25.5v130c0,2.8,2.2,5.1,5.1,5.1
			c2.8,0,5.1-2.2,5.1-5.1v-130c0-8.4,6.9-15.3,15.3-15.3h273.5c-8,7.2-13.1,17.7-13.1,29.2v90.8c0,2.8,2.2,5.1,5.1,5.1
			c2.8,0,5.1-2.2,5.1-5.1v-38.5h63.9c2.8,0,5.1-2.2,5.1-5.1V56.3C476.1,35.2,459.6,18,438.8,16.9L438.8,16.9z M465.9,98.4h-58.8v-42
			c0-16.2,13.2-29.2,29.4-29.2c16.2,0,29.4,13.2,29.4,29.2L465.9,98.4L465.9,98.4z"/>
		<g>
			<circle class="st0" cx="402" cy="173.9" r="6.6"/>
		</g>
	</g>
</g>
</svg>
