<?xml version="1.0" encoding="utf-8"?>
<!-- Generator: Adobe Illustrator 24.0.1, SVG Export Plug-In . SVG Version: 6.00 Build 0)  -->
<svg version="1.1" id="Capa_1" xmlns="http://www.w3.org/2000/svg" xmlns:xlink="http://www.w3.org/1999/xlink" x="0px" y="0px"
	 viewBox="0 0 512 512" style="enable-background:new 0 0 512 512;" xml:space="preserve">
<style type="text/css">
	.st0{fill:#33B2B6;}
</style>
<path class="st0" d="M66.7,494.6c-10.5,0-19-8.5-19-19v-11.8H20.8c-9,0-16.3-7.3-16.3-16.3v-8.8c0-9.1,7.3-16.4,16.3-16.4h49.3
	v-61.7c0-2.4,2-4.4,4.4-4.4c2.4,0,4.4,2,4.4,4.4v61.7H115V173.8l-3.4,0.6c-4.8,0.9-9.8,1.3-14.7,1.3c-4.8,0-9.7-0.4-14.7-1.3
	l-3.4-0.6v157.6c0,2.4-2,4.4-4.4,4.4c-2.4,0-4.4-2-4.4-4.4V171.3l-1.9-0.7c-33.1-12.1-55.4-43.8-55.4-79c0-46.4,37.7-84.1,84.1-84.1
	c46.4,0,84.2,37.8,84.2,84.2c0,35.2-22.2,67-55.4,79l-1.9,0.7v251h29.4V307.9c0-10.5,8.5-19,19-19h54.7v-52.7c0-2.4,2-4.4,4.4-4.4
	s4.4,2,4.4,4.4v52.7h138.6V174.8c0-5.6-4.6-10.2-10.2-10.2h-30.8v18.9c0,12-9.7,21.7-21.7,21.7h-13.1c-12,0-21.7-9.7-21.7-21.7
	v-18.9h-30.8c-5.6,0-10.2,4.6-10.2,10.2V207c0,2.4-2,4.4-4.4,4.4s-4.4-2-4.4-4.4v-32.3c0-10.5,8.5-19,19-19h118.3
	c10.5,0,19,8.5,19,19V289h54.7c10.5,0,19,8.5,19,19v73.3c0,2.4-2,4.4-4.4,4.4c-2.4,0-4.4-2-4.4-4.4V308c0-5.6-4.6-10.2-10.2-10.2
	h-29.3v18.9c0,12-9.7,21.7-21.7,21.7h-13.1c-12,0-21.7-9.7-21.7-21.7v-18.9h-42.7v124.3H438c5.6,0,10.2-4.6,10.2-10.2v-1.5
	c0-2.4,2-4.4,4.4-4.4s4.4,2,4.4,4.4v1.5c0,2.2-0.4,4.5-1.2,6.6l-1.5,3.9h25.9c9,0,16.3,7.4,16.3,16.4v8.8c0,9-7.3,16.3-16.3,16.3
	h-26.9v11.8c0,10.5-8.5,19-19,19H66.7z M56.5,475.6c0,5.6,4.6,10.2,10.2,10.2h367.6c5.6,0,10.2-4.6,10.2-10.2v-2.9h-0.1v-8.8H56.5
	V475.6z M20.8,431.2c-4.2,0-7.6,3.4-7.6,7.6v8.8c0,4.2,3.4,7.6,7.6,7.6h459.4c4.2,0,7.6-3.4,7.6-7.6v-2.9h-0.1v-5.8
	c0-4.2-3.4-7.6-7.6-7.6H20.8z M172.2,297.7c-5.6,0-10.2,4.6-10.2,10.2v114.5h138.7V297.7H266v19c0,12-9.7,21.7-21.7,21.7h-13.1
	c-12,0-21.7-9.7-21.7-21.7v-19H172.2z M360.9,316.6c0,7.1,5.8,12.9,12.9,12.9H387c7.1,0,12.9-5.8,12.9-12.9v-18.9h-39V316.6z
	 M218.3,316.6c0,7.1,5.8,12.9,12.9,12.9h13.1c7.1,0,12.9-5.8,12.9-12.9v-19h-39V316.6z M285.6,183.5c0,7.1,5.8,12.9,12.9,12.9h13.1
	c7.1,0,12.9-5.8,12.9-12.9v-18.9h-39V183.5z M97,16.1c-41.6,0-75.5,33.9-75.5,75.5S55.4,167,97,167c41.6,0,75.5-33.9,75.5-75.5
	S138.6,16.1,97,16.1z"/>
<path class="st0" d="M96.9,148.7c-31.5,0-57.2-25.7-57.2-57.2s25.7-57.2,57.2-57.2c31.6,0,57.3,25.7,57.3,57.2
	S128.5,148.7,96.9,148.7z M96.9,43.1c-26.7,0-48.4,21.7-48.4,48.4c0,26.7,21.7,48.4,48.4,48.4c26.8,0,48.5-21.7,48.5-48.4
	C145.4,64.8,123.7,43.1,96.9,43.1z"/>
<path class="st0" d="M96.9,99.8c-2.4,0-4.4-2-4.4-4.4v-24c0-2.4,2-4.4,4.4-4.4c2.4,0,4.4,2,4.4,4.4v24
	C101.3,97.8,99.3,99.8,96.9,99.8z"/>
</svg>
