<?xml version="1.0" encoding="utf-8"?>
<!-- Generator: Adobe Illustrator 24.0.1, SVG Export Plug-In . SVG Version: 6.00 Build 0)  -->
<svg version="1.1" id="Layer_1" xmlns="http://www.w3.org/2000/svg" xmlns:xlink="http://www.w3.org/1999/xlink" x="0px" y="0px"
	 viewBox="0 0 512 512" style="enable-background:new 0 0 512 512;" xml:space="preserve">
<style type="text/css">
	.st0{fill:#33b2b6;}
</style>
<path class="st0" d="M163.8,263c-17.8,15-46,15-63.8,0c-2.9-1.9-6.7-1.2-8.7,1.7c-1.6,2.4-1.4,5.7,0.7,7.8
	c23.1,19.5,56.8,19.5,79.9,0c2.7-2.1,3.1-6.1,1-8.8s-6.1-3.1-8.8-1C164,262.8,164,262.9,163.8,263L163.8,263z"/>
<path class="st0" d="M395.8,263.4c-17.8,15.1-46,15.1-63.8,0c-2.7-2.1-6.6-1.7-8.8,1c-2.1,2.6-1.7,6.3,0.7,8.5
	c23.1,19.5,56.8,19.5,79.9,0c2.6-2.3,2.8-6.2,0.5-8.8C402.1,261.7,398.4,261.3,395.8,263.4L395.8,263.4z"/>
<path class="st0" d="M459.4,240.4c-1.7,0-3.1,0.1-4.5,0.2c0.1-1.6,0.2-3.2,0.3-4.9l0.4-0.9c4.1-10.4,8.7-22.2,8.7-34.8
	c0-53.5-42.4-92.3-100.7-92.3c-58,0-100,38.8-100,92.3c0,12.8,4.1,24.6,8.4,35.6c0,1.7,0.1,3.3,0.3,4.9c-1.1-0.1-2.4-0.1-3.8-0.1
	c-15.7,0-44.7,6.5-42.7,54.9l0.3,0c3.7,0.3,7.1,0.5,10.3,0.5c29,0,40-12.1,43.7-24.9c5.4,12,13.4,22.7,23.3,31.4
	c-17.7,11.2-32.6,26.5-43.3,44.6c-0.3,0.3-0.6,0.6-0.8,0.9c-0.2,0.3-0.3,0.7-0.4,1c-4.5,8.2-8.1,16.8-10.8,25.8
	c-2.7-8.9-6.3-17.5-10.8-25.7c-0.1-0.4-0.2-0.7-0.4-1.1c-0.3-0.4-0.6-0.7-0.9-1c-10.9-18.2-25.9-33.5-43.9-44.7
	c18.3-15.9,29.5-38.3,31.3-62.4c0-0.1,0.1-0.1,0.1-0.2c17.3-51,13.2-84.1,13-85.5c0-0.1,0-0.2,0-0.3c-3.1-16.7-14.6-30.7-33.3-40.5
	c-34.9-18.2-83.8-17.3-109-5.9c-33.4,15-53,0.6-53.8,0c-2.7-2.1-6.6-1.6-8.8,1.1c-0.7,1-1.2,2.1-1.3,3.3l-2.8,34.9
	c-0.2,1.7-4.9,41.9,12.3,92.9c0.1,0.4,0.5,0.6,0.6,0.9c2,23.8,13.2,45.9,31.2,61.6c-17.9,11.3-33,26.7-43.8,44.9
	c-0.3,0.3-0.6,0.6-0.8,0.9c-0.1,0.3-0.3,0.7-0.4,1C18,364.5,11.6,383.2,9.8,406c-0.3,3.4,2.3,6.4,5.7,6.7c0,0,0,0,0,0H16
	c3.2,0,5.9-2.5,6.2-5.7c1.2-16.4,5.5-32.3,12.8-47l27.8,16.7v29.9c0,3.4,2.8,6.2,6.2,6.2s6.2-2.8,6.2-6.2v-33.4c0-2.2-1.1-4.2-3-5.4
	l-31.2-18.7C51.5,333,65.5,319.6,82,309.9c30.2,19.7,69.2,19.8,99.4,0.2c16.5,9.7,30.6,23,41.1,39l-30.9,18.6c-1.9,1.1-3,3.2-3,5.4
	v33.4c0.1,3.4,3,6.1,6.5,6c3.3-0.1,5.9-2.7,6-6v-29.9l27.6-16.6c7.3,14.7,11.7,30.6,12.9,47c0.2,2.1,1.5,4,3.4,4.9l0.2,0.1
	c0.5,0.2,1.1,0.4,1.7,0.5c0.2,0,0.4,0.2,0.6,0.2h0.5h0.2h0.1c0.2,0,0.3-0.1,0.4-0.1c2.9-0.3,5.2-2.7,5.4-5.6
	c1.2-16.4,5.6-32.3,12.8-47.1l27.8,16.7v29.9c0,3.4,2.8,6.2,6.2,6.2c3.4,0,6.2-2.8,6.2-6.2v-33.4c0-2.2-1.1-4.2-3-5.4l-31.1-18.7
	c10.3-15.9,24.1-29.2,40.3-38.8c30.4,20,69.8,20,100.2,0c16.4,9.7,30.4,23,40.9,38.9l-30.9,18.6c-1.9,1.1-3,3.2-3,5.4v33.4
	c0,3.4,2.8,6.2,6.2,6.2c3.4,0,6.2-2.8,6.2-6.2v-29.8l27.6-16.6c7.3,14.7,11.7,30.6,12.9,47c0.3,3.4,3.3,6,6.7,5.7s6-3.3,5.7-6.7l0,0
	c-1.8-22.8-8.2-41.5-16.9-57c-0.1-0.4-0.2-0.7-0.4-1.1c-0.3-0.4-0.6-0.7-0.9-1c-10.8-18.1-25.8-33.5-43.7-44.7
	c10.1-8.9,18.1-19.8,23.5-32.1c3.4,13.1,14.2,25.8,43.9,25.8c3.2,0,6.6-0.1,10.3-0.5l0.3,0C504.1,246.9,475.1,240.4,459.4,240.4
	L459.4,240.4z M265.2,273.6c-4.5,6.2-13.5,9.5-26.8,9.8c0.9-10.1,3.8-17.7,8.6-22.7c6.2-6.4,15.1-7.8,21.4-7.8h0.3
	C269.5,259.2,269.4,267.7,265.2,273.6z M39.9,148l2.1-25.7c10.9,4.4,30.8,8.4,57.3-3.5c22.7-10.2,67.5-10.4,98.1,5.6
	c15.3,8,24.2,18.6,26.7,31.5c0.2,2.2,2.7,28.1-8.7,67.8l-25.2-36c-1.7-2.4-4.7-3.3-7.4-2.2c-0.3,0.1-27,10.7-51.4,10.9
	c-23.7-0.2-50.5-10.8-50.8-10.9c-2.7-1.1-5.8-0.1-7.4,2.2L48,223.6C36.1,181.2,39.9,148.6,39.9,148z M52.9,238.4l27.7-39.6
	c9.3,3.2,30.7,9.9,51.5,10.1c20.1-0.2,41.4-6.8,50.7-10.1l28.2,40.3c-3.4,43.6-41.4,76.3-85.1,72.9
	C86.7,308.9,55.6,277.6,52.9,238.4L52.9,238.4z M363.5,120.3c51.1,0,88.3,33.6,88.3,79.8c0,9-3.1,18-6.5,26.7
	c-23-6.9-66-24.5-75.4-60.7c-0.7-2.7-3.2-4.6-6-4.7h-0.4c-2.8,0-5.3,1.9-6,4.7c-9.4,35.9-52.6,53.6-75.7,60.6
	c-3.1-8.6-5.8-17.5-5.8-26.6C276,153.8,312.8,120.3,363.5,120.3L363.5,120.3z M363.5,312.8c-41.7-0.1-76.2-32.4-79-74
	c25.3-7.5,62.7-23.3,79.2-54.5c16.4,31.4,53.6,47.1,78.9,54.6C439.7,280.5,405.2,312.7,363.5,312.8z M462.6,273.6
	c-4.3-5.9-4.3-14.4-3.5-20.6h0.3c6.4,0,15.2,1.4,21.4,7.8c4.8,5,7.7,12.6,8.6,22.7C476.1,283.1,467.1,279.8,462.6,273.6z"/>
</svg>
