<?xml version="1.0" encoding="utf-8"?>
<!-- Generator: Adobe Illustrator 24.0.1, SVG Export Plug-In . SVG Version: 6.00 Build 0)  -->
<svg version="1.1" id="svg696" xmlns:svg="http://www.w3.org/2000/svg"
	 xmlns="http://www.w3.org/2000/svg" xmlns:xlink="http://www.w3.org/1999/xlink" x="0px" y="0px" viewBox="0 0 682.7 682.7"
	 style="enable-background:new 0 0 682.7 682.7;" xml:space="preserve">
<style type="text/css">
	.st0{fill:#33b2b6;}
</style>
<path class="st0" d="M244.4,673.1L233.1,443c14.3-14.5,27.3-35.6,37.3-54.1c24.1-41,35.8-90.7,35.9-151.8c1.9-15.5-4-31.3-16.1-41.3
	c-9.8-7.2-23.8-10.9-34.1-2.8c-3.1-7.9-8.7-14.8-16.4-19.4c-9.4-5.6-29.6-6.2-39.3,0.4l14.9-72.3c4.7-23-2.9-65.9-34.3-67.2
	c-22.7-2.5-40.6,34-43.5,53.5l-13.8,93.8l-0.2-98.3c0-20.1-16.4-51.2-37.9-51.2c-23.3,0-38.7,34-37.9,52.8
	c1.9,44.1-2,92.5,5.9,135.9c-8.6,10.5-17.4,21-26.5,31.1c-18.1,20.5-23,41.9-14.3,63.7c14.6,36.7,32.9,71.1,54.5,102.2L70,644.7
	c0,2.8,2.3,5,5.1,5h0.1c2.8,0,5-2.3,5-5.1l-1.5-120.2c50.6,12.9,105.7,14.1,155.8-1.4l-0.3,150.2 M417.7,673.1l20-148.9
	c52.9,10.3,110.2,9.9,162.8-1.5c6.6,45.5,12.5,91,18.7,136.6c0.3,2.5,2.5,4.4,5,4.4c0.2,0,0.5,0,0.7,0c2.8-0.4,4.7-2.9,4.3-5.7
	L599.1,443c14.3-14.5,27.3-35.6,37.3-54.1c23-39.1,33.6-84.5,34.2-146.5c1.9-14.7-3.4-29.2-12.3-40.7c-11.1-13.3-23.6-16.1-37.5-8.5
	c-2-9.5-7-18.4-15-25c-10.6-8.8-37.6-13.4-48.8-2.6c-3.4-18.2-17.6-35.4-37.3-36.7c-19.3-1.3-35,5.2-43.8,17.5
	c-7.7-14.9-20.9-22.8-39.6-23.8c-21,0.7-49.1,17-44.9,42.8l11.3,68.1c-6.1,7-12.5,14.3-19.6,21.8c0,0-0.1,0.1-0.1,0.1
	c-18.1,20.5-23,41.9-14.3,63.7c15.6,39.4,38.9,75.1,57.8,102.2l-19,251.8 M661,627.4 M295.6,228.7c1.6,20.4-10.2,37.3-26.1,56.9
	c-11.4,14.1-39.7,5-34.1-16.2c2.5-9.3,24.4-49.1,25.2-62.1c5-8.8,13.9-7.7,23.4-3.5C292.8,210.1,294.8,218.2,295.6,228.7z
	 M202.8,187c0.6-2.6,2.5-4.5,5.6-5.9c8.1-3.4,21.1-1.6,26,1.3c13.4,7.9,18.2,25.2,11.1,39.4l-26.9,52.9
	c-10.9,12.5-21.4,13.2-31.4,2.2c-2.4-3.5-3.4-7.6-2.9-11.8c12.8-3.8,24-9,31.4-21c8.9-19.5,3.3-33.4-16.6-41.7L202.8,187z
	 M147.6,89.5C150.3,71,166.2,43,180,44.6c25.8,3.1,29.4,35.1,25.3,55l-20.4,99.2l-51.6-12.6L147.6,89.5z M85.6,42.4
	c14.8,0,27.8,25.6,27.8,41l0.2,96.5c-7.6-1.6-14.5-0.7-20.6,2.5c-12.3,8.7-21.5,17.8-29.9,27.2L57.8,84.7
	C57.3,71.9,68.4,42.4,85.6,42.4z M78.5,513.9l-0.3-27.6c38.6,11.5,80.8,15.1,120.5,7c2.7-0.6,4.5-3.2,4-6s-3.2-4.5-6-4
	c-38,7.8-76.8,5.3-118.6-7.7l-0.7-59.3c0-1-0.3-2-0.9-2.8c-21.5-30.8-39.8-64.9-54.2-101.4c-7.2-18.2-3.1-35.6,12.4-53.2
	c21.5-22.4,37.9-49.3,63.5-67.7c9.5-1.2,18.3-0.1,26.6,3.3c24.4,6,50,10.1,73.8,18.1c11.2,5.7,14,14.4,8.5,26.1
	c-6.9,8.5-15.1,13.9-24.6,16.3c-25.3,7.8-52.7,6.5-77.2-3.7c-3.9-1-6.2,0.5-7,4.4c-0.3,11.2-4.2,21.6-11.6,31.2
	c-2,3-1.6,5.6,1.3,7.8c31.5,17.7,54.8,48.8,62.3,83.4c0.6,2.7,3.3,4.5,6,3.9c2.7-0.6,4.5-3.3,3.9-6c-7.7-35.5-30.7-67.6-62.2-87.1
	c5.3-7.6,8.7-16.4,9.9-25.6c21.2,7.5,44.2,9,66.2,4.5c0.1,5.3,1.7,10.5,4.7,14.9c10.6,15.6,33.8,16.4,45.7,1.5
	c2.8,7.1,8.5,13.3,16.3,16.8c24.7,11.1,44.5-16.7,54.3-34.1c-3.3,45.9-14.3,84.4-33.4,116.9c-9.8,18.4-23,39.7-37.5,53.9
	c-1.2,1.1-1.7,2.8-1.5,4.4l10.3,70.8C186.9,527.4,131.1,527.8,78.5,513.9L78.5,513.9z M613.2,228.7c5.1-7,7.8-15,8.4-23.1
	c3.7-4.1,19.2-12.4,28.4,1.9c10.1,15.8,14.9,31,6,47.7c-8,15.1-38.4,62.6-65,45.3c-9-5.8-15.2-17.2-10.9-26.6
	C591.2,258.9,602.2,243.8,613.2,228.7L613.2,228.7z M562.2,175.9c1.2-3,3.8-4.9,7.8-5.9c9.9-2.5,24.5,1.9,29.5,6.1
	c13.8,11.4,16.2,31.9,5.6,46.7c0,0-37.3,51.1-39.5,54.2c-15.7,12.8-28.1,11.2-37.4-4.9c17.3-2.8,37.2-8.6,47-24.6
	c12.4-20.1-3.9-41.1-23.7-43.5L562.2,175.9z M480.2,160.4c4.7-14.6,19.1-22.6,38.7-21.3c30.3,4.8,33.6,41.2,21.7,62.2
	c-21-4.1-41.4-10.2-61.7-16.6C480,177,481.1,168.2,480.2,160.4z M401.7,164.4c2-20.3,13.8-31,35.1-31.7
	c18.6,1.4,29.7,10.8,33.3,28.2c0.9,7.1-0.2,15-1.1,22c-6.1-0.7-11.7,0.2-16.7,2.9c-16.7,11.8-28.9,24.5-40.8,37.8L401.7,164.4z
	 M436.7,419.6c0-1-0.3-2-0.9-2.9c-18.7-26.7-42.1-62.3-57.6-101.4c-7.2-18.2-3.1-35.6,12.4-53.2c7.6-7.9,47.8-54,66.9-67.7
	c4.4-1.3,8.7-1.8,12.8-1.4c28.6,4.8,60.3,13.7,87.7,22.8c11.2,5.7,14,14.4,8.5,26.1c-5.2,8.5-13.3,14-24.2,16.2
	c-0.2,0-0.3,0.1-0.5,0.1c-25.3,7.8-52.7,6.5-77.2-3.7c-3.9-1-6.2,0.5-7,4.4c-0.3,11.2-4.2,21.6-11.6,31.2c-2,3-1.6,5.6,1.3,7.8
	c31.5,17.7,54.8,48.8,62.3,83.4c0.6,2.7,3.3,4.5,6,3.9c2.7-0.6,4.5-3.3,3.9-6c-7.7-35.5-30.7-67.6-62.2-87.1
	c5.3-7.6,8.7-16.4,9.9-25.6c16.3,5.8,33.5,8,50.6,6.7c6.5,23.3,35.4,29.2,51.7,14.3c2.3,8.7,8.4,16.7,16,21.6
	c28.9,18.8,60.9-19.2,73.9-39.6c-3.1,46.6-13.2,82.7-31.8,114.2c-9.8,18.4-23,39.7-37.5,53.9c-1.2,1.1-1.7,2.8-1.5,4.4l4.7,32.3
	c-39.4,8.6-85.8,10.6-128.2,5.3c-2.8-0.3-5.3,1.6-5.7,4.4c-0.3,2.8,1.6,5.3,4.4,5.7c43.4,5.4,88.2,3.9,130.9-5.4l4.1,28.4
	c-48.6,10.7-112.4,11.2-161.4,1.2L436.7,419.6z"/>
</svg>
